G04 #@! TF.FileFunction,Soldermask,Top*
%FSLAX46Y46*%
G04 Gerber Fmt 4.6, Leading zero omitted, Abs format (unit mm)*
G04 Created by KiCad (PCBNEW 4.0.7) date Monday, September 03, 2018 'PMt' 09:38:33 PM*
%MOMM*%
%LPD*%
G01*
G04 APERTURE LIST*
%ADD10C,0.100000*%
%ADD11R,1.070000X1.800000*%
%ADD12O,1.070000X1.800000*%
%ADD13C,1.350000*%
%ADD14O,1.350000X1.350000*%
%ADD15R,2.500000X2.000000*%
%ADD16C,1.700000*%
G04 APERTURE END LIST*
D10*
D11*
X114053006Y-98725640D03*
D12*
X112783006Y-98725640D03*
X111513006Y-98725640D03*
X110243006Y-98725640D03*
D11*
X126053006Y-91725640D03*
D12*
X124783006Y-91725640D03*
X123513006Y-91725640D03*
X122243006Y-91725640D03*
D11*
X138053006Y-82725640D03*
D12*
X136783006Y-82725640D03*
X135513006Y-82725640D03*
X134243006Y-82725640D03*
D11*
X113053006Y-107725640D03*
D12*
X111783006Y-107725640D03*
X110513006Y-107725640D03*
X109243006Y-107725640D03*
D11*
X125053006Y-102725640D03*
D12*
X123783006Y-102725640D03*
X122513006Y-102725640D03*
X121243006Y-102725640D03*
D11*
X137053006Y-95725640D03*
D12*
X135783006Y-95725640D03*
X134513006Y-95725640D03*
X133243006Y-95725640D03*
D11*
X121053006Y-112725640D03*
D12*
X119783006Y-112725640D03*
X118513006Y-112725640D03*
X117243006Y-112725640D03*
D11*
X125053006Y-127725640D03*
D12*
X123783006Y-127725640D03*
X122513006Y-127725640D03*
X121243006Y-127725640D03*
D11*
X116053006Y-122725640D03*
D12*
X114783006Y-122725640D03*
X113513006Y-122725640D03*
X112243006Y-122725640D03*
D11*
X90053006Y-98725640D03*
D12*
X88783006Y-98725640D03*
X87513006Y-98725640D03*
X86243006Y-98725640D03*
D11*
X77553006Y-91725640D03*
D12*
X76283006Y-91725640D03*
X75013006Y-91725640D03*
X73743006Y-91725640D03*
D11*
X66053006Y-82725640D03*
D12*
X64783006Y-82725640D03*
X63513006Y-82725640D03*
X62243006Y-82725640D03*
D11*
X91053006Y-107725640D03*
D12*
X89783006Y-107725640D03*
X88513006Y-107725640D03*
X87243006Y-107725640D03*
D11*
X79053006Y-102725640D03*
D12*
X77783006Y-102725640D03*
X76513006Y-102725640D03*
X75243006Y-102725640D03*
D11*
X67053006Y-95725640D03*
D12*
X65783006Y-95725640D03*
X64513006Y-95725640D03*
X63243006Y-95725640D03*
D11*
X83053006Y-112725640D03*
D12*
X81783006Y-112725640D03*
X80513006Y-112725640D03*
X79243006Y-112725640D03*
D11*
X79053006Y-127725640D03*
D12*
X77783006Y-127725640D03*
X76513006Y-127725640D03*
X75243006Y-127725640D03*
D11*
X88053006Y-122725640D03*
D12*
X86783006Y-122725640D03*
X85513006Y-122725640D03*
X84243006Y-122725640D03*
D13*
X99053006Y-94225640D03*
D14*
X101053006Y-94225640D03*
D15*
X100000000Y-113000000D03*
X100000000Y-109000000D03*
D10*
G36*
X128601041Y-114958967D02*
X129041033Y-116601041D01*
X127398959Y-117041033D01*
X126958967Y-115398959D01*
X128601041Y-114958967D01*
X128601041Y-114958967D01*
G37*
D16*
X127342600Y-113546548D02*
X127342600Y-113546548D01*
X126685199Y-111093097D02*
X126685199Y-111093097D01*
D10*
G36*
X73041033Y-115398959D02*
X72601041Y-117041033D01*
X70958967Y-116601041D01*
X71398959Y-114958967D01*
X73041033Y-115398959D01*
X73041033Y-115398959D01*
G37*
D16*
X72657400Y-113546548D02*
X72657400Y-113546548D01*
X73314801Y-111093097D02*
X73314801Y-111093097D01*
M02*
