G04 #@! TF.FileFunction,Copper,L1,Top,Signal*
%FSLAX46Y46*%
G04 Gerber Fmt 4.6, Leading zero omitted, Abs format (unit mm)*
G04 Created by KiCad (PCBNEW 4.0.7) date Monday, September 03, 2018 'PMt' 09:38:33 PM*
%MOMM*%
%LPD*%
G01*
G04 APERTURE LIST*
%ADD10C,0.100000*%
%ADD11R,1.070000X1.800000*%
%ADD12O,1.070000X1.800000*%
%ADD13C,1.350000*%
%ADD14O,1.350000X1.350000*%
%ADD15R,2.500000X2.000000*%
%ADD16C,1.700000*%
%ADD17C,0.250000*%
%ADD18C,0.152400*%
%ADD19C,0.254000*%
G04 APERTURE END LIST*
D10*
D11*
X114053006Y-98725640D03*
D12*
X112783006Y-98725640D03*
X111513006Y-98725640D03*
X110243006Y-98725640D03*
D11*
X126053006Y-91725640D03*
D12*
X124783006Y-91725640D03*
X123513006Y-91725640D03*
X122243006Y-91725640D03*
D11*
X138053006Y-82725640D03*
D12*
X136783006Y-82725640D03*
X135513006Y-82725640D03*
X134243006Y-82725640D03*
D11*
X113053006Y-107725640D03*
D12*
X111783006Y-107725640D03*
X110513006Y-107725640D03*
X109243006Y-107725640D03*
D11*
X125053006Y-102725640D03*
D12*
X123783006Y-102725640D03*
X122513006Y-102725640D03*
X121243006Y-102725640D03*
D11*
X137053006Y-95725640D03*
D12*
X135783006Y-95725640D03*
X134513006Y-95725640D03*
X133243006Y-95725640D03*
D11*
X121053006Y-112725640D03*
D12*
X119783006Y-112725640D03*
X118513006Y-112725640D03*
X117243006Y-112725640D03*
D11*
X125053006Y-127725640D03*
D12*
X123783006Y-127725640D03*
X122513006Y-127725640D03*
X121243006Y-127725640D03*
D11*
X116053006Y-122725640D03*
D12*
X114783006Y-122725640D03*
X113513006Y-122725640D03*
X112243006Y-122725640D03*
D11*
X90053006Y-98725640D03*
D12*
X88783006Y-98725640D03*
X87513006Y-98725640D03*
X86243006Y-98725640D03*
D11*
X77553006Y-91725640D03*
D12*
X76283006Y-91725640D03*
X75013006Y-91725640D03*
X73743006Y-91725640D03*
D11*
X66053006Y-82725640D03*
D12*
X64783006Y-82725640D03*
X63513006Y-82725640D03*
X62243006Y-82725640D03*
D11*
X91053006Y-107725640D03*
D12*
X89783006Y-107725640D03*
X88513006Y-107725640D03*
X87243006Y-107725640D03*
D11*
X79053006Y-102725640D03*
D12*
X77783006Y-102725640D03*
X76513006Y-102725640D03*
X75243006Y-102725640D03*
D11*
X67053006Y-95725640D03*
D12*
X65783006Y-95725640D03*
X64513006Y-95725640D03*
X63243006Y-95725640D03*
D11*
X83053006Y-112725640D03*
D12*
X81783006Y-112725640D03*
X80513006Y-112725640D03*
X79243006Y-112725640D03*
D11*
X79053006Y-127725640D03*
D12*
X77783006Y-127725640D03*
X76513006Y-127725640D03*
X75243006Y-127725640D03*
D11*
X88053006Y-122725640D03*
D12*
X86783006Y-122725640D03*
X85513006Y-122725640D03*
X84243006Y-122725640D03*
D13*
X99053006Y-94225640D03*
D14*
X101053006Y-94225640D03*
D15*
X100000000Y-113000000D03*
X100000000Y-109000000D03*
D10*
G36*
X128601041Y-114958967D02*
X129041033Y-116601041D01*
X127398959Y-117041033D01*
X126958967Y-115398959D01*
X128601041Y-114958967D01*
X128601041Y-114958967D01*
G37*
D16*
X127342600Y-113546548D02*
X127342600Y-113546548D01*
X126685199Y-111093097D02*
X126685199Y-111093097D01*
D10*
G36*
X73041033Y-115398959D02*
X72601041Y-117041033D01*
X70958967Y-116601041D01*
X71398959Y-114958967D01*
X73041033Y-115398959D01*
X73041033Y-115398959D01*
G37*
D16*
X72657400Y-113546548D02*
X72657400Y-113546548D01*
X73314801Y-111093097D02*
X73314801Y-111093097D01*
D17*
X104953007Y-113800641D02*
X113513006Y-122360640D01*
X87853018Y-121050628D02*
X86823018Y-121050628D01*
X86823018Y-121050628D02*
X85513006Y-122360640D01*
X92428006Y-116725640D02*
X92178006Y-116725640D01*
X92178006Y-116725640D02*
X87853018Y-121050628D01*
X85513006Y-122360640D02*
X85513006Y-122725640D01*
X95378007Y-113775639D02*
X92428006Y-116725640D01*
X95378007Y-113264228D02*
X95378007Y-113775639D01*
X102603017Y-112275629D02*
X96366606Y-112275629D01*
X96366606Y-112275629D02*
X95378007Y-113264228D01*
X103553006Y-111325640D02*
X102603017Y-112275629D01*
X103553006Y-112560642D02*
X103553006Y-111325640D01*
X87513006Y-99090640D02*
X87513006Y-98725640D01*
X103553006Y-112560642D02*
X104793005Y-113800641D01*
X104793005Y-113800641D02*
X104953007Y-113800641D01*
X113513006Y-122360640D02*
X113513006Y-122725640D01*
X111513006Y-99090640D02*
X111513006Y-98725640D01*
X74378719Y-83950641D02*
X64858007Y-83950641D01*
X77582488Y-87154411D02*
X74378719Y-83950641D01*
X93053006Y-99475640D02*
X93053006Y-99350640D01*
X80856777Y-87154411D02*
X77582488Y-87154411D01*
X93053006Y-99350640D02*
X80856777Y-87154411D01*
X112053006Y-115175640D02*
X107103006Y-110225640D01*
X86783006Y-121975638D02*
X86783006Y-122725640D01*
D18*
X100053006Y-107975640D02*
X97455406Y-107975640D01*
X97455406Y-107975640D02*
X95205406Y-110225640D01*
X95205406Y-110225640D02*
X94053006Y-110225640D01*
X106053006Y-110225640D02*
X106053006Y-107975640D01*
X106053006Y-107975640D02*
X104900606Y-106823240D01*
X101205406Y-106823240D02*
X100053006Y-107975640D01*
X104900606Y-106823240D02*
X101205406Y-106823240D01*
D17*
X114783006Y-122725640D02*
X114783006Y-121575640D01*
X114783006Y-121575640D02*
X114978007Y-121380639D01*
X114978007Y-121380639D02*
X114978007Y-115165639D01*
X114978007Y-115165639D02*
X114913007Y-115100639D01*
X114913007Y-115100639D02*
X112128007Y-115100639D01*
X112128007Y-115100639D02*
X112053006Y-115175640D01*
X107103006Y-110225640D02*
X106053006Y-110225640D01*
X77783006Y-127725640D02*
X77783006Y-126575640D01*
X77783006Y-126575640D02*
X87633006Y-116725640D01*
X87633006Y-116725640D02*
X89803006Y-116725640D01*
X86783006Y-122725640D02*
X86783006Y-123875640D01*
X86783006Y-123875640D02*
X81708005Y-128950641D01*
X81708005Y-128950641D02*
X77858007Y-128950641D01*
X77858007Y-128950641D02*
X77783006Y-128875640D01*
X77783006Y-128875640D02*
X77783006Y-127725640D01*
X89803006Y-116725640D02*
X89803006Y-115850640D01*
X89803006Y-115850640D02*
X85453005Y-111500639D01*
X85453005Y-111500639D02*
X81858007Y-111500639D01*
X81858007Y-111500639D02*
X81783006Y-111575640D01*
X81783006Y-111575640D02*
X81783006Y-112725640D01*
X79377985Y-101050619D02*
X79913007Y-101585641D01*
X79913007Y-101585641D02*
X79913007Y-103885641D01*
X79913007Y-103885641D02*
X79848007Y-103950641D01*
X77858007Y-103950641D02*
X77783006Y-103875640D01*
X79848007Y-103950641D02*
X77858007Y-103950641D01*
X77783006Y-103875640D02*
X77783006Y-102725640D01*
X65783006Y-96875640D02*
X69957986Y-101050619D01*
X69957986Y-101050619D02*
X79377985Y-101050619D01*
X68053006Y-90753287D02*
X68053006Y-96745642D01*
X68053006Y-96745642D02*
X67848007Y-96950641D01*
X67848007Y-96950641D02*
X65858007Y-96950641D01*
X65858007Y-96950641D02*
X65783006Y-96875640D01*
X65783006Y-96875640D02*
X65783006Y-95725640D01*
X60932987Y-83633268D02*
X68053006Y-90753287D01*
X64858007Y-83950641D02*
X66848007Y-83950641D01*
X66848007Y-83950641D02*
X66913007Y-83885641D01*
X66913007Y-83885641D02*
X66913007Y-81565639D01*
X66913007Y-81565639D02*
X66848007Y-81500639D01*
X66848007Y-81500639D02*
X65829415Y-81500639D01*
X65829415Y-81500639D02*
X65379396Y-81050620D01*
X65379396Y-81050620D02*
X61700378Y-81050621D01*
X61700378Y-81050621D02*
X60932986Y-81818013D01*
X60932986Y-81818013D02*
X60932987Y-83633268D01*
X64858007Y-83950641D02*
X64783006Y-83875640D01*
X64783006Y-83875640D02*
X64783006Y-82725640D01*
X89783006Y-106575640D02*
X76608027Y-93400661D01*
X76608027Y-93400661D02*
X73836790Y-93400661D01*
X76283006Y-91360640D02*
X76283006Y-91725640D01*
X73836790Y-93400661D02*
X72882996Y-92446867D01*
X72882996Y-92446867D02*
X72882996Y-91004413D01*
X72882996Y-91004413D02*
X73386779Y-90500630D01*
X73386779Y-90500630D02*
X75422996Y-90500630D01*
X75422996Y-90500630D02*
X76283006Y-91360640D01*
X94053006Y-110225640D02*
X94053006Y-107975640D01*
X94053006Y-107975640D02*
X92578005Y-106500639D01*
X92578005Y-106500639D02*
X89858007Y-106500639D01*
X89783006Y-106575640D02*
X89783006Y-107725640D01*
X89858007Y-106500639D02*
X89783006Y-106575640D01*
X94053006Y-110225640D02*
X94053006Y-108116877D01*
X94053006Y-108116877D02*
X85382996Y-99446867D01*
X85382996Y-99446867D02*
X85382996Y-98004413D01*
X85382996Y-98004413D02*
X85886779Y-97500630D01*
X85886779Y-97500630D02*
X87922996Y-97500630D01*
X87922996Y-97500630D02*
X88783006Y-98360640D01*
X88783006Y-98360640D02*
X88783006Y-98725640D01*
X124783006Y-91725640D02*
X124783006Y-92090640D01*
X124783006Y-92090640D02*
X116923005Y-99950641D01*
X116923005Y-99950641D02*
X112858007Y-99950641D01*
X112858007Y-99950641D02*
X112783006Y-99875640D01*
X112783006Y-99875640D02*
X112783006Y-98725640D01*
X136783006Y-81575640D02*
X136707996Y-81500630D01*
X136707996Y-81500630D02*
X133858016Y-81500630D01*
X133858016Y-81500630D02*
X124783006Y-90575640D01*
X124783006Y-90575640D02*
X124783006Y-91725640D01*
X135783006Y-95725640D02*
X135783006Y-87015642D01*
X135783006Y-87015642D02*
X138913007Y-83885641D01*
X138913007Y-83885641D02*
X138913007Y-81565639D01*
X138913007Y-81565639D02*
X138848007Y-81500639D01*
X138848007Y-81500639D02*
X136858007Y-81500639D01*
X136858007Y-81500639D02*
X136783006Y-81575640D01*
X136783006Y-81575640D02*
X136783006Y-82725640D01*
X123783006Y-103875640D02*
X118708005Y-108950641D01*
X118708005Y-108950641D02*
X111858007Y-108950641D01*
X111858007Y-108950641D02*
X111783006Y-108875640D01*
X111783006Y-108875640D02*
X111783006Y-107725640D01*
X135783006Y-95725640D02*
X135783006Y-96090640D01*
X135783006Y-96090640D02*
X127923005Y-103950641D01*
X127923005Y-103950641D02*
X123858007Y-103950641D01*
X123858007Y-103950641D02*
X123783006Y-103875640D01*
X123783006Y-103875640D02*
X123783006Y-102725640D01*
X137913007Y-92865639D02*
X137493007Y-92865639D01*
X135783006Y-94575640D02*
X135783006Y-95725640D01*
X137493007Y-92865639D02*
X135783006Y-94575640D01*
X123298012Y-111500636D02*
X137913007Y-96885641D01*
X119783006Y-112725640D02*
X119783006Y-111575640D01*
X119783006Y-111575640D02*
X119858008Y-111500638D01*
X119858008Y-111500638D02*
X123298012Y-111500636D01*
X137913007Y-96885641D02*
X137913007Y-92865639D01*
X114783006Y-123875640D02*
X114858007Y-123950641D01*
X114858007Y-123950641D02*
X116848007Y-123950641D01*
X116848007Y-123950641D02*
X119783006Y-121015642D01*
X119783006Y-121015642D02*
X119783006Y-112725640D01*
X122922996Y-128950650D02*
X123783006Y-128090640D01*
X114783006Y-122725640D02*
X114783006Y-123875640D01*
X114783006Y-123875640D02*
X119858016Y-128950650D01*
X119858016Y-128950650D02*
X122922996Y-128950650D01*
X123783006Y-128090640D02*
X123783006Y-127725640D01*
X114783006Y-122725640D02*
X114783006Y-122360640D01*
X89803006Y-116725640D02*
X89803006Y-113225640D01*
X89803006Y-113225640D02*
X92803006Y-110225640D01*
X92803006Y-110225640D02*
X94053006Y-110225640D01*
X93053006Y-99475640D02*
X92178006Y-99475640D01*
X92178006Y-99475640D02*
X91703005Y-99950641D01*
X91703005Y-99950641D02*
X89258005Y-99950641D01*
X89258005Y-99950641D02*
X88783006Y-99475642D01*
X88783006Y-99475642D02*
X88783006Y-98725640D01*
X114053006Y-98725640D02*
X115608006Y-98725640D01*
X115608006Y-98725640D02*
X122243006Y-92090640D01*
X122243006Y-92090640D02*
X122243006Y-91725640D01*
D19*
X115000000Y-97000000D02*
X111603646Y-97000000D01*
X111603646Y-97000000D02*
X110243006Y-98360640D01*
X117548103Y-94451897D02*
X115000000Y-97000000D01*
X118000000Y-94451897D02*
X117548103Y-94451897D01*
X124000000Y-90000000D02*
X122451897Y-90000000D01*
X122451897Y-90000000D02*
X118000000Y-94451897D01*
X132903771Y-81096229D02*
X124000000Y-90000000D01*
X127342600Y-113546548D02*
X125555798Y-111759746D01*
X125555798Y-111759746D02*
X125555798Y-109814772D01*
X125555798Y-109814772D02*
X139317416Y-96053154D01*
X139317416Y-96053154D02*
X139317416Y-81398126D01*
X139317416Y-81398126D02*
X139015519Y-81096229D01*
X139015519Y-81096229D02*
X132903771Y-81096229D01*
D17*
X110243006Y-98360640D02*
X110243006Y-98725640D01*
X126053006Y-91725640D02*
X126053006Y-91360640D01*
X126053006Y-91360640D02*
X134243006Y-83170640D01*
X134243006Y-83170640D02*
X134243006Y-82725640D01*
X138053006Y-82725640D02*
X138053006Y-83090640D01*
X138053006Y-83090640D02*
X114643016Y-106500630D01*
X114643016Y-106500630D02*
X110103016Y-106500630D01*
X110103016Y-106500630D02*
X109243006Y-107360640D01*
X109243006Y-107360640D02*
X109243006Y-107725640D01*
X113053006Y-107725640D02*
X116608006Y-107725640D01*
X116608006Y-107725640D02*
X121243006Y-103090640D01*
X121243006Y-103090640D02*
X121243006Y-102725640D01*
X125053006Y-102725640D02*
X125053006Y-102360640D01*
X125053006Y-102360640D02*
X131688006Y-95725640D01*
X131688006Y-95725640D02*
X133243006Y-95725640D01*
X137053006Y-95725640D02*
X137053006Y-96090640D01*
X117243006Y-112360640D02*
X117243006Y-112725640D01*
X118553018Y-111050628D02*
X117243006Y-112360640D01*
X122093018Y-111050628D02*
X118553018Y-111050628D01*
X137053006Y-96090640D02*
X122093018Y-111050628D01*
X121053006Y-112725640D02*
X121053006Y-127535640D01*
X121053006Y-127535640D02*
X121243006Y-127725640D01*
X112243006Y-123090640D02*
X112243006Y-122725640D01*
X125053006Y-128090640D02*
X123742985Y-129400661D01*
X123742985Y-129400661D02*
X118553027Y-129400661D01*
X125053006Y-127725640D02*
X125053006Y-128090640D01*
X118553027Y-129400661D02*
X112243006Y-123090640D01*
X90583007Y-103430641D02*
X86243006Y-99090640D01*
X86243006Y-99090640D02*
X86243006Y-98725640D01*
X109599233Y-108950650D02*
X108886779Y-108950650D01*
X110049234Y-109400651D02*
X109599233Y-108950650D01*
X105894418Y-103430641D02*
X90583007Y-103430641D01*
X108382996Y-105919219D02*
X105894418Y-103430641D01*
X108382996Y-108446867D02*
X108382996Y-105919219D01*
X113211607Y-109400651D02*
X110049234Y-109400651D01*
X116053006Y-112242050D02*
X113211607Y-109400651D01*
X116053006Y-122725640D02*
X116053006Y-112242050D01*
X108886779Y-108950650D02*
X108382996Y-108446867D01*
X90053006Y-98725640D02*
X90053006Y-98360640D01*
X73743006Y-92090640D02*
X73743006Y-91725640D01*
X90053006Y-98360640D02*
X84643016Y-92950650D01*
X84643016Y-92950650D02*
X74603016Y-92950650D01*
X74603016Y-92950650D02*
X73743006Y-92090640D01*
X77553006Y-91360640D02*
X70593018Y-84400652D01*
X63553018Y-84400652D02*
X62243006Y-83090640D01*
X70593018Y-84400652D02*
X63553018Y-84400652D01*
X77553006Y-91725640D02*
X77553006Y-91360640D01*
X62243006Y-83090640D02*
X62243006Y-82725640D01*
X61886779Y-81500630D02*
X61382996Y-82004413D01*
X66053006Y-82725640D02*
X66053006Y-82360640D01*
X87243006Y-107360640D02*
X87243006Y-107725640D01*
X76383005Y-96500639D02*
X87243006Y-107360640D01*
X61382996Y-82004413D02*
X61382996Y-83446867D01*
X74436768Y-96500639D02*
X76383005Y-96500639D01*
X66053006Y-82360640D02*
X65192996Y-81500630D01*
X61382996Y-83446867D02*
X74436768Y-96500639D01*
X65192996Y-81500630D02*
X61886779Y-81500630D01*
X91053006Y-107725640D02*
X91053006Y-108090640D01*
X91053006Y-108090640D02*
X90192996Y-108950650D01*
X90192996Y-108950650D02*
X81103016Y-108950650D01*
X81103016Y-108950650D02*
X75243006Y-103090640D01*
X75243006Y-103090640D02*
X75243006Y-102725640D01*
X63243006Y-96090640D02*
X63243006Y-95725640D01*
X68652996Y-101500630D02*
X63243006Y-96090640D01*
X78192996Y-101500630D02*
X68652996Y-101500630D01*
X79053006Y-102360640D02*
X78192996Y-101500630D01*
X79053006Y-102725640D02*
X79053006Y-102360640D01*
X67053006Y-95725640D02*
X67053006Y-95360640D01*
X67053006Y-95360640D02*
X66192996Y-94500630D01*
X66192996Y-94500630D02*
X62886779Y-94500630D01*
X62886779Y-94500630D02*
X62382996Y-95004413D01*
X62382996Y-95004413D02*
X62382996Y-96650630D01*
X62382996Y-96650630D02*
X78458006Y-112725640D01*
X78458006Y-112725640D02*
X79243006Y-112725640D01*
X83053006Y-112725640D02*
X83053006Y-119550640D01*
X83053006Y-119550640D02*
X75243006Y-127360640D01*
X75243006Y-127360640D02*
X75243006Y-127725640D01*
X79053006Y-127725640D02*
X79053006Y-127360640D01*
X83688006Y-122725640D02*
X84243006Y-122725640D01*
X79053006Y-127360640D02*
X83688006Y-122725640D01*
D19*
X72657400Y-113546548D02*
X73507399Y-114396547D01*
X73507399Y-114396547D02*
X73507399Y-127506782D01*
X73507399Y-127506782D02*
X75355667Y-129355050D01*
X75355667Y-129355050D02*
X82577596Y-129355050D01*
X82577596Y-129355050D02*
X88053006Y-123879640D01*
X88053006Y-123879640D02*
X88053006Y-122725640D01*
D18*
X101053006Y-94225640D02*
X99053006Y-94225640D01*
D19*
G36*
X75748501Y-90343569D02*
X75545494Y-90443523D01*
X75488357Y-90511749D01*
X75382984Y-90441341D01*
X75013006Y-90367748D01*
X74643028Y-90441341D01*
X74378006Y-90618423D01*
X74112984Y-90441341D01*
X73743006Y-90367748D01*
X73373028Y-90441341D01*
X73059375Y-90650917D01*
X72849799Y-90964570D01*
X72776206Y-91334548D01*
X72776206Y-92116732D01*
X72849799Y-92486710D01*
X73059375Y-92800363D01*
X73373028Y-93009939D01*
X73743006Y-93083532D01*
X73914376Y-93049444D01*
X74209299Y-93344367D01*
X74389938Y-93465066D01*
X74603016Y-93507450D01*
X84412382Y-93507450D01*
X88248501Y-97343569D01*
X88045494Y-97443523D01*
X87988357Y-97511749D01*
X87882984Y-97441341D01*
X87513006Y-97367748D01*
X87143028Y-97441341D01*
X86878006Y-97618423D01*
X86612984Y-97441341D01*
X86243006Y-97367748D01*
X85873028Y-97441341D01*
X85559375Y-97650917D01*
X85349799Y-97964570D01*
X85276206Y-98334548D01*
X85276206Y-99116732D01*
X85349799Y-99486710D01*
X85559375Y-99800363D01*
X85873028Y-100009939D01*
X86243006Y-100083532D01*
X86414376Y-100049444D01*
X90189290Y-103824358D01*
X90369929Y-103945057D01*
X90583007Y-103987441D01*
X105663784Y-103987441D01*
X107826196Y-106149853D01*
X107826196Y-108446867D01*
X107868580Y-108659945D01*
X107989279Y-108840584D01*
X108493062Y-109344367D01*
X108673701Y-109465066D01*
X108886779Y-109507450D01*
X109368599Y-109507450D01*
X109655517Y-109794368D01*
X109836156Y-109915067D01*
X110049234Y-109957451D01*
X112980973Y-109957451D01*
X115496206Y-112472684D01*
X115496206Y-112568200D01*
X107431800Y-112568200D01*
X107431800Y-111000000D01*
X107402270Y-110843059D01*
X107309518Y-110698918D01*
X107167994Y-110602220D01*
X107000000Y-110568200D01*
X101537579Y-110568200D01*
X101609699Y-110538327D01*
X101788327Y-110359698D01*
X101885000Y-110126309D01*
X101885000Y-109285750D01*
X101726250Y-109127000D01*
X100127000Y-109127000D01*
X100127000Y-109147000D01*
X99873000Y-109147000D01*
X99873000Y-109127000D01*
X98273750Y-109127000D01*
X98115000Y-109285750D01*
X98115000Y-110126309D01*
X98211673Y-110359698D01*
X98390301Y-110538327D01*
X98462421Y-110568200D01*
X93000000Y-110568200D01*
X92843059Y-110597730D01*
X92698918Y-110690482D01*
X92602220Y-110832006D01*
X92568200Y-111000000D01*
X92568200Y-112568200D01*
X84028265Y-112568200D01*
X84028265Y-111825640D01*
X83998156Y-111665625D01*
X83903587Y-111518660D01*
X83759291Y-111420067D01*
X83588006Y-111385381D01*
X82518006Y-111385381D01*
X82434388Y-111401115D01*
X82090389Y-111231740D01*
X81910006Y-111357396D01*
X81910006Y-112568200D01*
X81656006Y-112568200D01*
X81656006Y-111357396D01*
X81475623Y-111231740D01*
X81045494Y-111443523D01*
X80988357Y-111511749D01*
X80882984Y-111441341D01*
X80513006Y-111367748D01*
X80143028Y-111441341D01*
X79878006Y-111618423D01*
X79612984Y-111441341D01*
X79243006Y-111367748D01*
X78873028Y-111441341D01*
X78559375Y-111650917D01*
X78403701Y-111883901D01*
X68558417Y-102038617D01*
X68652996Y-102057430D01*
X74331328Y-102057430D01*
X74276206Y-102334548D01*
X74276206Y-103116732D01*
X74349799Y-103486710D01*
X74559375Y-103800363D01*
X74873028Y-104009939D01*
X75243006Y-104083532D01*
X75414376Y-104049444D01*
X80709299Y-109344367D01*
X80889938Y-109465066D01*
X81103016Y-109507450D01*
X90192996Y-109507450D01*
X90406074Y-109465066D01*
X90586713Y-109344367D01*
X90865181Y-109065899D01*
X91588006Y-109065899D01*
X91748021Y-109035790D01*
X91894986Y-108941221D01*
X91993579Y-108796925D01*
X92028265Y-108625640D01*
X92028265Y-107873691D01*
X98115000Y-107873691D01*
X98115000Y-108714250D01*
X98273750Y-108873000D01*
X99873000Y-108873000D01*
X99873000Y-107523750D01*
X100127000Y-107523750D01*
X100127000Y-108873000D01*
X101726250Y-108873000D01*
X101885000Y-108714250D01*
X101885000Y-107873691D01*
X101788327Y-107640302D01*
X101609699Y-107461673D01*
X101376310Y-107365000D01*
X100285750Y-107365000D01*
X100127000Y-107523750D01*
X99873000Y-107523750D01*
X99714250Y-107365000D01*
X98623690Y-107365000D01*
X98390301Y-107461673D01*
X98211673Y-107640302D01*
X98115000Y-107873691D01*
X92028265Y-107873691D01*
X92028265Y-106825640D01*
X91998156Y-106665625D01*
X91903587Y-106518660D01*
X91759291Y-106420067D01*
X91588006Y-106385381D01*
X90518006Y-106385381D01*
X90434388Y-106401115D01*
X90090389Y-106231740D01*
X89910006Y-106357396D01*
X89910006Y-107598640D01*
X89930006Y-107598640D01*
X89930006Y-107852640D01*
X89910006Y-107852640D01*
X89910006Y-107872640D01*
X89656006Y-107872640D01*
X89656006Y-107852640D01*
X89636006Y-107852640D01*
X89636006Y-107598640D01*
X89656006Y-107598640D01*
X89656006Y-106357396D01*
X89475623Y-106231740D01*
X89045494Y-106443523D01*
X88988357Y-106511749D01*
X88882984Y-106441341D01*
X88513006Y-106367748D01*
X88143028Y-106441341D01*
X87878006Y-106618423D01*
X87612984Y-106441341D01*
X87243006Y-106367748D01*
X87071636Y-106401836D01*
X76776722Y-96106922D01*
X76596083Y-95986223D01*
X76383005Y-95943839D01*
X74667402Y-95943839D01*
X63681015Y-84957452D01*
X70362384Y-84957452D01*
X75748501Y-90343569D01*
X75748501Y-90343569D01*
G37*
X75748501Y-90343569D02*
X75545494Y-90443523D01*
X75488357Y-90511749D01*
X75382984Y-90441341D01*
X75013006Y-90367748D01*
X74643028Y-90441341D01*
X74378006Y-90618423D01*
X74112984Y-90441341D01*
X73743006Y-90367748D01*
X73373028Y-90441341D01*
X73059375Y-90650917D01*
X72849799Y-90964570D01*
X72776206Y-91334548D01*
X72776206Y-92116732D01*
X72849799Y-92486710D01*
X73059375Y-92800363D01*
X73373028Y-93009939D01*
X73743006Y-93083532D01*
X73914376Y-93049444D01*
X74209299Y-93344367D01*
X74389938Y-93465066D01*
X74603016Y-93507450D01*
X84412382Y-93507450D01*
X88248501Y-97343569D01*
X88045494Y-97443523D01*
X87988357Y-97511749D01*
X87882984Y-97441341D01*
X87513006Y-97367748D01*
X87143028Y-97441341D01*
X86878006Y-97618423D01*
X86612984Y-97441341D01*
X86243006Y-97367748D01*
X85873028Y-97441341D01*
X85559375Y-97650917D01*
X85349799Y-97964570D01*
X85276206Y-98334548D01*
X85276206Y-99116732D01*
X85349799Y-99486710D01*
X85559375Y-99800363D01*
X85873028Y-100009939D01*
X86243006Y-100083532D01*
X86414376Y-100049444D01*
X90189290Y-103824358D01*
X90369929Y-103945057D01*
X90583007Y-103987441D01*
X105663784Y-103987441D01*
X107826196Y-106149853D01*
X107826196Y-108446867D01*
X107868580Y-108659945D01*
X107989279Y-108840584D01*
X108493062Y-109344367D01*
X108673701Y-109465066D01*
X108886779Y-109507450D01*
X109368599Y-109507450D01*
X109655517Y-109794368D01*
X109836156Y-109915067D01*
X110049234Y-109957451D01*
X112980973Y-109957451D01*
X115496206Y-112472684D01*
X115496206Y-112568200D01*
X107431800Y-112568200D01*
X107431800Y-111000000D01*
X107402270Y-110843059D01*
X107309518Y-110698918D01*
X107167994Y-110602220D01*
X107000000Y-110568200D01*
X101537579Y-110568200D01*
X101609699Y-110538327D01*
X101788327Y-110359698D01*
X101885000Y-110126309D01*
X101885000Y-109285750D01*
X101726250Y-109127000D01*
X100127000Y-109127000D01*
X100127000Y-109147000D01*
X99873000Y-109147000D01*
X99873000Y-109127000D01*
X98273750Y-109127000D01*
X98115000Y-109285750D01*
X98115000Y-110126309D01*
X98211673Y-110359698D01*
X98390301Y-110538327D01*
X98462421Y-110568200D01*
X93000000Y-110568200D01*
X92843059Y-110597730D01*
X92698918Y-110690482D01*
X92602220Y-110832006D01*
X92568200Y-111000000D01*
X92568200Y-112568200D01*
X84028265Y-112568200D01*
X84028265Y-111825640D01*
X83998156Y-111665625D01*
X83903587Y-111518660D01*
X83759291Y-111420067D01*
X83588006Y-111385381D01*
X82518006Y-111385381D01*
X82434388Y-111401115D01*
X82090389Y-111231740D01*
X81910006Y-111357396D01*
X81910006Y-112568200D01*
X81656006Y-112568200D01*
X81656006Y-111357396D01*
X81475623Y-111231740D01*
X81045494Y-111443523D01*
X80988357Y-111511749D01*
X80882984Y-111441341D01*
X80513006Y-111367748D01*
X80143028Y-111441341D01*
X79878006Y-111618423D01*
X79612984Y-111441341D01*
X79243006Y-111367748D01*
X78873028Y-111441341D01*
X78559375Y-111650917D01*
X78403701Y-111883901D01*
X68558417Y-102038617D01*
X68652996Y-102057430D01*
X74331328Y-102057430D01*
X74276206Y-102334548D01*
X74276206Y-103116732D01*
X74349799Y-103486710D01*
X74559375Y-103800363D01*
X74873028Y-104009939D01*
X75243006Y-104083532D01*
X75414376Y-104049444D01*
X80709299Y-109344367D01*
X80889938Y-109465066D01*
X81103016Y-109507450D01*
X90192996Y-109507450D01*
X90406074Y-109465066D01*
X90586713Y-109344367D01*
X90865181Y-109065899D01*
X91588006Y-109065899D01*
X91748021Y-109035790D01*
X91894986Y-108941221D01*
X91993579Y-108796925D01*
X92028265Y-108625640D01*
X92028265Y-107873691D01*
X98115000Y-107873691D01*
X98115000Y-108714250D01*
X98273750Y-108873000D01*
X99873000Y-108873000D01*
X99873000Y-107523750D01*
X100127000Y-107523750D01*
X100127000Y-108873000D01*
X101726250Y-108873000D01*
X101885000Y-108714250D01*
X101885000Y-107873691D01*
X101788327Y-107640302D01*
X101609699Y-107461673D01*
X101376310Y-107365000D01*
X100285750Y-107365000D01*
X100127000Y-107523750D01*
X99873000Y-107523750D01*
X99714250Y-107365000D01*
X98623690Y-107365000D01*
X98390301Y-107461673D01*
X98211673Y-107640302D01*
X98115000Y-107873691D01*
X92028265Y-107873691D01*
X92028265Y-106825640D01*
X91998156Y-106665625D01*
X91903587Y-106518660D01*
X91759291Y-106420067D01*
X91588006Y-106385381D01*
X90518006Y-106385381D01*
X90434388Y-106401115D01*
X90090389Y-106231740D01*
X89910006Y-106357396D01*
X89910006Y-107598640D01*
X89930006Y-107598640D01*
X89930006Y-107852640D01*
X89910006Y-107852640D01*
X89910006Y-107872640D01*
X89656006Y-107872640D01*
X89656006Y-107852640D01*
X89636006Y-107852640D01*
X89636006Y-107598640D01*
X89656006Y-107598640D01*
X89656006Y-106357396D01*
X89475623Y-106231740D01*
X89045494Y-106443523D01*
X88988357Y-106511749D01*
X88882984Y-106441341D01*
X88513006Y-106367748D01*
X88143028Y-106441341D01*
X87878006Y-106618423D01*
X87612984Y-106441341D01*
X87243006Y-106367748D01*
X87071636Y-106401836D01*
X76776722Y-96106922D01*
X76596083Y-95986223D01*
X76383005Y-95943839D01*
X74667402Y-95943839D01*
X63681015Y-84957452D01*
X70362384Y-84957452D01*
X75748501Y-90343569D01*
G36*
X125160667Y-109419641D02*
X125039534Y-109600928D01*
X124996998Y-109814772D01*
X124996998Y-111759746D01*
X125039534Y-111973590D01*
X125117583Y-112090397D01*
X125160667Y-112154877D01*
X125573990Y-112568200D01*
X122028265Y-112568200D01*
X122028265Y-111825640D01*
X121998156Y-111665625D01*
X121960707Y-111607428D01*
X122093018Y-111607428D01*
X122306096Y-111565044D01*
X122486735Y-111444345D01*
X136865181Y-97065899D01*
X137514409Y-97065899D01*
X125160667Y-109419641D01*
X125160667Y-109419641D01*
G37*
X125160667Y-109419641D02*
X125039534Y-109600928D01*
X124996998Y-109814772D01*
X124996998Y-111759746D01*
X125039534Y-111973590D01*
X125117583Y-112090397D01*
X125160667Y-112154877D01*
X125573990Y-112568200D01*
X122028265Y-112568200D01*
X122028265Y-111825640D01*
X121998156Y-111665625D01*
X121960707Y-111607428D01*
X122093018Y-111607428D01*
X122306096Y-111565044D01*
X122486735Y-111444345D01*
X136865181Y-97065899D01*
X137514409Y-97065899D01*
X125160667Y-109419641D01*
G36*
X62647434Y-74041500D02*
X65784954Y-75141903D01*
X68802886Y-76660290D01*
X70983792Y-77936247D01*
X71691073Y-78367797D01*
X73119255Y-79376660D01*
X73128256Y-79380665D01*
X73135320Y-79387530D01*
X77586419Y-82270430D01*
X77587710Y-82270943D01*
X77588708Y-82271902D01*
X83545542Y-86082464D01*
X89271646Y-90158830D01*
X93270853Y-93583054D01*
X94428769Y-94806828D01*
X94546341Y-95002700D01*
X94578537Y-95038176D01*
X94603271Y-95079206D01*
X95184671Y-95717406D01*
X95237709Y-95756532D01*
X95285734Y-95801662D01*
X95312727Y-95811873D01*
X95335951Y-95829005D01*
X95399918Y-95844855D01*
X95461564Y-95868174D01*
X96055664Y-95967274D01*
X96081402Y-95966474D01*
X96106313Y-95972989D01*
X96174628Y-95963577D01*
X96243563Y-95961435D01*
X96267037Y-95950846D01*
X96292543Y-95947332D01*
X96352056Y-95912494D01*
X96414923Y-95884135D01*
X96432556Y-95865371D01*
X96454779Y-95852362D01*
X96970179Y-95394862D01*
X97012012Y-95339660D01*
X97059376Y-95289132D01*
X97552577Y-94496732D01*
X97555176Y-94489835D01*
X97560051Y-94484310D01*
X97583005Y-94444830D01*
X97946015Y-94444830D01*
X98114160Y-94851773D01*
X98425236Y-95163392D01*
X98831884Y-95332247D01*
X99272196Y-95332631D01*
X99679139Y-95164486D01*
X99990758Y-94853410D01*
X100040491Y-94733640D01*
X100072393Y-94733640D01*
X100270380Y-95029949D01*
X100629452Y-95269873D01*
X101053006Y-95354123D01*
X101476560Y-95269873D01*
X101835632Y-95029949D01*
X102075556Y-94670877D01*
X102159806Y-94247323D01*
X102159806Y-94203957D01*
X102075556Y-93780403D01*
X101835632Y-93421331D01*
X101476560Y-93181407D01*
X101053006Y-93097157D01*
X100629452Y-93181407D01*
X100270380Y-93421331D01*
X100072393Y-93717640D01*
X100040663Y-93717640D01*
X99991852Y-93599507D01*
X99680776Y-93287888D01*
X99274128Y-93119033D01*
X98833816Y-93118649D01*
X98426873Y-93286794D01*
X98115254Y-93597870D01*
X97946399Y-94004518D01*
X97946015Y-94444830D01*
X97583005Y-94444830D01*
X98070394Y-93606555D01*
X98611650Y-92906593D01*
X99176421Y-92561380D01*
X99782845Y-92566026D01*
X99784692Y-92565673D01*
X99786536Y-92566040D01*
X100319476Y-92566040D01*
X100321320Y-92565673D01*
X100323167Y-92566026D01*
X100929591Y-92561380D01*
X101494362Y-92906593D01*
X102035618Y-93606555D01*
X102545961Y-94484310D01*
X102550837Y-94489837D01*
X102553436Y-94496732D01*
X103046636Y-95289132D01*
X103093998Y-95339658D01*
X103135833Y-95394862D01*
X103651233Y-95852361D01*
X103673454Y-95865369D01*
X103691089Y-95884135D01*
X103753957Y-95912494D01*
X103813469Y-95947332D01*
X103838976Y-95950846D01*
X103862450Y-95961435D01*
X103931383Y-95963577D01*
X103999698Y-95972989D01*
X104024609Y-95966474D01*
X104050348Y-95967274D01*
X104644449Y-95868174D01*
X104706092Y-95844856D01*
X104770061Y-95829006D01*
X104793286Y-95811873D01*
X104820279Y-95801662D01*
X104868304Y-95756532D01*
X104921341Y-95717406D01*
X105502740Y-95079206D01*
X105527474Y-95038178D01*
X105559671Y-95002700D01*
X105677243Y-94806828D01*
X106835154Y-93583060D01*
X110834360Y-90158836D01*
X116560478Y-86082457D01*
X122517304Y-82271903D01*
X122518304Y-82270942D01*
X122519592Y-82270430D01*
X126970692Y-79387530D01*
X126977756Y-79380665D01*
X126986757Y-79376660D01*
X128414943Y-78367794D01*
X129122219Y-77936247D01*
X131303133Y-76660286D01*
X134321058Y-75141903D01*
X137458578Y-74041500D01*
X138851490Y-73787000D01*
X141637484Y-73787000D01*
X143030114Y-74363940D01*
X144861784Y-76110994D01*
X145915429Y-78458569D01*
X146107755Y-80401040D01*
X145999886Y-80996219D01*
X146000245Y-81017282D01*
X145994238Y-81037473D01*
X145906488Y-81979906D01*
X145224275Y-84818233D01*
X143929646Y-88528337D01*
X142574769Y-92250335D01*
X142571938Y-92268721D01*
X142563528Y-92285311D01*
X141761488Y-95151611D01*
X141759186Y-95181647D01*
X141748993Y-95209994D01*
X141607498Y-96153619D01*
X141358776Y-97031195D01*
X140205074Y-99679239D01*
X138163558Y-102939752D01*
X135646378Y-105885752D01*
X133545343Y-107891621D01*
X132805435Y-108508211D01*
X132759251Y-108565357D01*
X132708285Y-108618288D01*
X132684624Y-108655191D01*
X132405178Y-108832117D01*
X131718901Y-109042249D01*
X130846422Y-109187902D01*
X129960357Y-109319573D01*
X129936882Y-109327979D01*
X129911986Y-109329316D01*
X129188585Y-109514016D01*
X129104527Y-109554241D01*
X129020345Y-109594169D01*
X128606945Y-109901469D01*
X128568969Y-109943462D01*
X128524859Y-109978966D01*
X128506507Y-110012530D01*
X128480852Y-110040898D01*
X128461836Y-110094227D01*
X128434671Y-110143909D01*
X128430560Y-110181940D01*
X128417714Y-110217967D01*
X128420554Y-110274515D01*
X128414469Y-110330809D01*
X128458569Y-110826810D01*
X128471130Y-110869678D01*
X128474566Y-110914210D01*
X128497303Y-110959003D01*
X128511429Y-111007214D01*
X128539436Y-111042010D01*
X128559654Y-111081840D01*
X129025355Y-111674440D01*
X129055267Y-111700067D01*
X129078550Y-111731844D01*
X129220758Y-111862247D01*
X129710017Y-112568200D01*
X128165369Y-112568200D01*
X128007772Y-112429988D01*
X127545343Y-112273005D01*
X127845862Y-112019443D01*
X128112008Y-111504763D01*
X128169928Y-111064745D01*
X127993241Y-110874088D01*
X126840742Y-111182900D01*
X126845918Y-111202218D01*
X126600572Y-111267959D01*
X126595396Y-111248640D01*
X126576078Y-111253816D01*
X126510337Y-111008470D01*
X126529656Y-111003294D01*
X126524480Y-110983976D01*
X126769826Y-110918235D01*
X126775002Y-110937554D01*
X127927501Y-110628743D01*
X127985188Y-110375286D01*
X127715019Y-110023179D01*
X127227189Y-109710527D01*
X126656846Y-109608358D01*
X126466020Y-109784412D01*
X126447085Y-109713747D01*
X139712547Y-96448285D01*
X139793663Y-96326887D01*
X139833680Y-96266998D01*
X139876216Y-96053154D01*
X139876216Y-81398126D01*
X139833680Y-81184282D01*
X139712547Y-81002995D01*
X139410650Y-80701098D01*
X139343194Y-80656025D01*
X139229363Y-80579965D01*
X139015519Y-80537429D01*
X132903771Y-80537429D01*
X132689928Y-80579964D01*
X132508640Y-80701098D01*
X123768538Y-89441200D01*
X122451897Y-89441200D01*
X122238053Y-89483736D01*
X122056766Y-89604869D01*
X117768538Y-93893097D01*
X117548103Y-93893097D01*
X117334259Y-93935633D01*
X117228275Y-94006450D01*
X117152972Y-94056766D01*
X114768538Y-96441200D01*
X111603646Y-96441200D01*
X111389803Y-96483735D01*
X111208515Y-96604868D01*
X110412017Y-97401366D01*
X110243006Y-97367748D01*
X109873028Y-97441341D01*
X109559375Y-97650917D01*
X109349799Y-97964570D01*
X109276206Y-98334548D01*
X109276206Y-99116732D01*
X109349799Y-99486710D01*
X109559375Y-99800363D01*
X109873028Y-100009939D01*
X110243006Y-100083532D01*
X110612984Y-100009939D01*
X110878006Y-99832857D01*
X111143028Y-100009939D01*
X111513006Y-100083532D01*
X111882984Y-100009939D01*
X111988357Y-99939531D01*
X112045494Y-100007757D01*
X112475623Y-100219540D01*
X112656006Y-100093884D01*
X112656006Y-98852640D01*
X112636006Y-98852640D01*
X112636006Y-98598640D01*
X112656006Y-98598640D01*
X112656006Y-98578640D01*
X112910006Y-98578640D01*
X112910006Y-98598640D01*
X112930006Y-98598640D01*
X112930006Y-98852640D01*
X112910006Y-98852640D01*
X112910006Y-100093884D01*
X113090389Y-100219540D01*
X113436113Y-100049315D01*
X113518006Y-100065899D01*
X114588006Y-100065899D01*
X114748021Y-100035790D01*
X114894986Y-99941221D01*
X114993579Y-99796925D01*
X115028265Y-99625640D01*
X115028265Y-99282440D01*
X115608006Y-99282440D01*
X115821084Y-99240056D01*
X116001723Y-99119357D01*
X122071636Y-93049444D01*
X122243006Y-93083532D01*
X122612984Y-93009939D01*
X122878006Y-92832857D01*
X123143028Y-93009939D01*
X123513006Y-93083532D01*
X123882984Y-93009939D01*
X123988357Y-92939531D01*
X124045494Y-93007757D01*
X124475623Y-93219540D01*
X124656006Y-93093884D01*
X124656006Y-91852640D01*
X124636006Y-91852640D01*
X124636006Y-91598640D01*
X124656006Y-91598640D01*
X124656006Y-90357396D01*
X124524485Y-90265777D01*
X133135233Y-81655029D01*
X133556627Y-81655029D01*
X133349799Y-81964570D01*
X133276206Y-82334548D01*
X133276206Y-83116732D01*
X133314909Y-83311303D01*
X126240831Y-90385381D01*
X125518006Y-90385381D01*
X125434388Y-90401115D01*
X125090389Y-90231740D01*
X124910006Y-90357396D01*
X124910006Y-91598640D01*
X124930006Y-91598640D01*
X124930006Y-91852640D01*
X124910006Y-91852640D01*
X124910006Y-93093884D01*
X125090389Y-93219540D01*
X125436113Y-93049315D01*
X125518006Y-93065899D01*
X126588006Y-93065899D01*
X126748021Y-93035790D01*
X126894986Y-92941221D01*
X126993579Y-92796925D01*
X127028265Y-92625640D01*
X127028265Y-91172815D01*
X134138363Y-84062717D01*
X134243006Y-84083532D01*
X134612984Y-84009939D01*
X134878006Y-83832857D01*
X135143028Y-84009939D01*
X135513006Y-84083532D01*
X135882984Y-84009939D01*
X135988357Y-83939531D01*
X136045494Y-84007757D01*
X136248501Y-84107711D01*
X114412382Y-105943830D01*
X110103016Y-105943830D01*
X109889938Y-105986214D01*
X109709299Y-106106913D01*
X109414376Y-106401836D01*
X109243006Y-106367748D01*
X108939796Y-106428060D01*
X108939796Y-105919219D01*
X108897412Y-105706141D01*
X108776713Y-105525502D01*
X106288135Y-103036924D01*
X106107496Y-102916225D01*
X105894418Y-102873841D01*
X90813641Y-102873841D01*
X87923001Y-99983201D01*
X87988357Y-99939531D01*
X88045494Y-100007757D01*
X88475623Y-100219540D01*
X88656006Y-100093884D01*
X88656006Y-98852640D01*
X88636006Y-98852640D01*
X88636006Y-98598640D01*
X88656006Y-98598640D01*
X88656006Y-98578640D01*
X88910006Y-98578640D01*
X88910006Y-98598640D01*
X88930006Y-98598640D01*
X88930006Y-98852640D01*
X88910006Y-98852640D01*
X88910006Y-100093884D01*
X89090389Y-100219540D01*
X89436113Y-100049315D01*
X89518006Y-100065899D01*
X90588006Y-100065899D01*
X90748021Y-100035790D01*
X90894986Y-99941221D01*
X90993579Y-99796925D01*
X91028265Y-99625640D01*
X91028265Y-97825640D01*
X90998156Y-97665625D01*
X90903587Y-97518660D01*
X90759291Y-97420067D01*
X90588006Y-97385381D01*
X89865181Y-97385381D01*
X85036733Y-92556933D01*
X84856094Y-92436234D01*
X84643016Y-92393850D01*
X78528265Y-92393850D01*
X78528265Y-90825640D01*
X78498156Y-90665625D01*
X78403587Y-90518660D01*
X78259291Y-90420067D01*
X78088006Y-90385381D01*
X77365181Y-90385381D01*
X70986735Y-84006935D01*
X70806096Y-83886236D01*
X70593018Y-83843852D01*
X66961515Y-83843852D01*
X66993579Y-83796925D01*
X67028265Y-83625640D01*
X67028265Y-81825640D01*
X66998156Y-81665625D01*
X66903587Y-81518660D01*
X66759291Y-81420067D01*
X66588006Y-81385381D01*
X65865181Y-81385381D01*
X65586713Y-81106913D01*
X65406074Y-80986214D01*
X65192996Y-80943830D01*
X61886779Y-80943830D01*
X61673701Y-80986214D01*
X61493062Y-81106913D01*
X60989279Y-81610696D01*
X60868580Y-81791335D01*
X60826196Y-82004413D01*
X60826196Y-83446867D01*
X60868580Y-83659945D01*
X60989279Y-83840584D01*
X74043051Y-96894356D01*
X74223690Y-97015055D01*
X74436768Y-97057439D01*
X76152371Y-97057439D01*
X86301636Y-107206704D01*
X86276206Y-107334548D01*
X86276206Y-108116732D01*
X86331328Y-108393850D01*
X81333650Y-108393850D01*
X76923001Y-103983201D01*
X76988357Y-103939531D01*
X77045494Y-104007757D01*
X77475623Y-104219540D01*
X77656006Y-104093884D01*
X77656006Y-102852640D01*
X77636006Y-102852640D01*
X77636006Y-102598640D01*
X77656006Y-102598640D01*
X77656006Y-102578640D01*
X77910006Y-102578640D01*
X77910006Y-102598640D01*
X77930006Y-102598640D01*
X77930006Y-102852640D01*
X77910006Y-102852640D01*
X77910006Y-104093884D01*
X78090389Y-104219540D01*
X78436113Y-104049315D01*
X78518006Y-104065899D01*
X79588006Y-104065899D01*
X79748021Y-104035790D01*
X79894986Y-103941221D01*
X79993579Y-103796925D01*
X80028265Y-103625640D01*
X80028265Y-101825640D01*
X79998156Y-101665625D01*
X79903587Y-101518660D01*
X79759291Y-101420067D01*
X79588006Y-101385381D01*
X78865181Y-101385381D01*
X78586713Y-101106913D01*
X78406074Y-100986214D01*
X78192996Y-100943830D01*
X68883630Y-100943830D01*
X64923001Y-96983201D01*
X64988357Y-96939531D01*
X65045494Y-97007757D01*
X65475623Y-97219540D01*
X65656006Y-97093884D01*
X65656006Y-95852640D01*
X65636006Y-95852640D01*
X65636006Y-95598640D01*
X65656006Y-95598640D01*
X65656006Y-95578640D01*
X65910006Y-95578640D01*
X65910006Y-95598640D01*
X65930006Y-95598640D01*
X65930006Y-95852640D01*
X65910006Y-95852640D01*
X65910006Y-97093884D01*
X66090389Y-97219540D01*
X66436113Y-97049315D01*
X66518006Y-97065899D01*
X67588006Y-97065899D01*
X67748021Y-97035790D01*
X67894986Y-96941221D01*
X67993579Y-96796925D01*
X68028265Y-96625640D01*
X68028265Y-94825640D01*
X67998156Y-94665625D01*
X67903587Y-94518660D01*
X67759291Y-94420067D01*
X67588006Y-94385381D01*
X66865181Y-94385381D01*
X66586713Y-94106913D01*
X66406074Y-93986214D01*
X66192996Y-93943830D01*
X62886779Y-93943830D01*
X62673701Y-93986214D01*
X62493062Y-94106913D01*
X61989279Y-94610696D01*
X61868580Y-94791335D01*
X61826196Y-95004413D01*
X61826196Y-96650630D01*
X61868580Y-96863708D01*
X61989279Y-97044347D01*
X77513132Y-112568200D01*
X73490090Y-112568200D01*
X73469745Y-112545001D01*
X73856791Y-112475667D01*
X74344621Y-112163015D01*
X74614790Y-111810908D01*
X74557103Y-111557451D01*
X73404604Y-111248640D01*
X73399428Y-111267959D01*
X73154082Y-111202218D01*
X73159258Y-111182900D01*
X72488962Y-111003294D01*
X73470344Y-111003294D01*
X74622843Y-111312106D01*
X74799530Y-111121449D01*
X74741610Y-110681431D01*
X74475464Y-110166751D01*
X74032616Y-109793099D01*
X73779327Y-109850154D01*
X73470344Y-111003294D01*
X72488962Y-111003294D01*
X72006759Y-110874088D01*
X71830072Y-111064745D01*
X71887992Y-111504763D01*
X72154138Y-112019443D01*
X72454657Y-112273005D01*
X71992228Y-112429987D01*
X71834630Y-112568200D01*
X70395995Y-112568200D01*
X70885254Y-111862247D01*
X71027462Y-111731844D01*
X71050743Y-111700069D01*
X71080658Y-111674440D01*
X71546358Y-111081840D01*
X71566576Y-111042009D01*
X71594583Y-111007214D01*
X71608708Y-110959007D01*
X71631447Y-110914210D01*
X71634883Y-110869674D01*
X71647443Y-110826809D01*
X71687588Y-110375286D01*
X72014812Y-110375286D01*
X72072499Y-110628743D01*
X73224998Y-110937554D01*
X73533982Y-109784414D01*
X73343154Y-109608358D01*
X72772811Y-109710527D01*
X72284981Y-110023179D01*
X72014812Y-110375286D01*
X71687588Y-110375286D01*
X71691543Y-110330809D01*
X71685458Y-110274514D01*
X71688298Y-110217967D01*
X71675452Y-110181940D01*
X71671341Y-110143908D01*
X71644177Y-110094228D01*
X71625161Y-110040898D01*
X71599504Y-110012528D01*
X71581153Y-109978966D01*
X71537043Y-109943462D01*
X71499067Y-109901469D01*
X71085667Y-109594169D01*
X71001485Y-109554241D01*
X70917427Y-109514016D01*
X70194027Y-109329316D01*
X70169129Y-109327979D01*
X70145654Y-109319573D01*
X69259581Y-109187901D01*
X68387111Y-109042249D01*
X67700835Y-108832118D01*
X67421389Y-108655192D01*
X67397727Y-108618288D01*
X67346761Y-108565357D01*
X67300577Y-108508211D01*
X66560677Y-107891628D01*
X64459634Y-105885752D01*
X61942456Y-102939757D01*
X59900936Y-99679234D01*
X58747236Y-97031195D01*
X58498514Y-96153617D01*
X58357019Y-95209993D01*
X58346826Y-95181646D01*
X58344524Y-95151611D01*
X57542484Y-92285311D01*
X57534074Y-92268721D01*
X57531243Y-92250335D01*
X56176366Y-88528337D01*
X54881737Y-84818233D01*
X54199524Y-81979906D01*
X54111774Y-81037473D01*
X54105767Y-81017282D01*
X54106126Y-80996219D01*
X53998257Y-80401040D01*
X54190583Y-78458567D01*
X55244228Y-76110994D01*
X57075897Y-74363942D01*
X58468530Y-73787000D01*
X61254522Y-73787000D01*
X62647434Y-74041500D01*
X62647434Y-74041500D01*
G37*
X62647434Y-74041500D02*
X65784954Y-75141903D01*
X68802886Y-76660290D01*
X70983792Y-77936247D01*
X71691073Y-78367797D01*
X73119255Y-79376660D01*
X73128256Y-79380665D01*
X73135320Y-79387530D01*
X77586419Y-82270430D01*
X77587710Y-82270943D01*
X77588708Y-82271902D01*
X83545542Y-86082464D01*
X89271646Y-90158830D01*
X93270853Y-93583054D01*
X94428769Y-94806828D01*
X94546341Y-95002700D01*
X94578537Y-95038176D01*
X94603271Y-95079206D01*
X95184671Y-95717406D01*
X95237709Y-95756532D01*
X95285734Y-95801662D01*
X95312727Y-95811873D01*
X95335951Y-95829005D01*
X95399918Y-95844855D01*
X95461564Y-95868174D01*
X96055664Y-95967274D01*
X96081402Y-95966474D01*
X96106313Y-95972989D01*
X96174628Y-95963577D01*
X96243563Y-95961435D01*
X96267037Y-95950846D01*
X96292543Y-95947332D01*
X96352056Y-95912494D01*
X96414923Y-95884135D01*
X96432556Y-95865371D01*
X96454779Y-95852362D01*
X96970179Y-95394862D01*
X97012012Y-95339660D01*
X97059376Y-95289132D01*
X97552577Y-94496732D01*
X97555176Y-94489835D01*
X97560051Y-94484310D01*
X97583005Y-94444830D01*
X97946015Y-94444830D01*
X98114160Y-94851773D01*
X98425236Y-95163392D01*
X98831884Y-95332247D01*
X99272196Y-95332631D01*
X99679139Y-95164486D01*
X99990758Y-94853410D01*
X100040491Y-94733640D01*
X100072393Y-94733640D01*
X100270380Y-95029949D01*
X100629452Y-95269873D01*
X101053006Y-95354123D01*
X101476560Y-95269873D01*
X101835632Y-95029949D01*
X102075556Y-94670877D01*
X102159806Y-94247323D01*
X102159806Y-94203957D01*
X102075556Y-93780403D01*
X101835632Y-93421331D01*
X101476560Y-93181407D01*
X101053006Y-93097157D01*
X100629452Y-93181407D01*
X100270380Y-93421331D01*
X100072393Y-93717640D01*
X100040663Y-93717640D01*
X99991852Y-93599507D01*
X99680776Y-93287888D01*
X99274128Y-93119033D01*
X98833816Y-93118649D01*
X98426873Y-93286794D01*
X98115254Y-93597870D01*
X97946399Y-94004518D01*
X97946015Y-94444830D01*
X97583005Y-94444830D01*
X98070394Y-93606555D01*
X98611650Y-92906593D01*
X99176421Y-92561380D01*
X99782845Y-92566026D01*
X99784692Y-92565673D01*
X99786536Y-92566040D01*
X100319476Y-92566040D01*
X100321320Y-92565673D01*
X100323167Y-92566026D01*
X100929591Y-92561380D01*
X101494362Y-92906593D01*
X102035618Y-93606555D01*
X102545961Y-94484310D01*
X102550837Y-94489837D01*
X102553436Y-94496732D01*
X103046636Y-95289132D01*
X103093998Y-95339658D01*
X103135833Y-95394862D01*
X103651233Y-95852361D01*
X103673454Y-95865369D01*
X103691089Y-95884135D01*
X103753957Y-95912494D01*
X103813469Y-95947332D01*
X103838976Y-95950846D01*
X103862450Y-95961435D01*
X103931383Y-95963577D01*
X103999698Y-95972989D01*
X104024609Y-95966474D01*
X104050348Y-95967274D01*
X104644449Y-95868174D01*
X104706092Y-95844856D01*
X104770061Y-95829006D01*
X104793286Y-95811873D01*
X104820279Y-95801662D01*
X104868304Y-95756532D01*
X104921341Y-95717406D01*
X105502740Y-95079206D01*
X105527474Y-95038178D01*
X105559671Y-95002700D01*
X105677243Y-94806828D01*
X106835154Y-93583060D01*
X110834360Y-90158836D01*
X116560478Y-86082457D01*
X122517304Y-82271903D01*
X122518304Y-82270942D01*
X122519592Y-82270430D01*
X126970692Y-79387530D01*
X126977756Y-79380665D01*
X126986757Y-79376660D01*
X128414943Y-78367794D01*
X129122219Y-77936247D01*
X131303133Y-76660286D01*
X134321058Y-75141903D01*
X137458578Y-74041500D01*
X138851490Y-73787000D01*
X141637484Y-73787000D01*
X143030114Y-74363940D01*
X144861784Y-76110994D01*
X145915429Y-78458569D01*
X146107755Y-80401040D01*
X145999886Y-80996219D01*
X146000245Y-81017282D01*
X145994238Y-81037473D01*
X145906488Y-81979906D01*
X145224275Y-84818233D01*
X143929646Y-88528337D01*
X142574769Y-92250335D01*
X142571938Y-92268721D01*
X142563528Y-92285311D01*
X141761488Y-95151611D01*
X141759186Y-95181647D01*
X141748993Y-95209994D01*
X141607498Y-96153619D01*
X141358776Y-97031195D01*
X140205074Y-99679239D01*
X138163558Y-102939752D01*
X135646378Y-105885752D01*
X133545343Y-107891621D01*
X132805435Y-108508211D01*
X132759251Y-108565357D01*
X132708285Y-108618288D01*
X132684624Y-108655191D01*
X132405178Y-108832117D01*
X131718901Y-109042249D01*
X130846422Y-109187902D01*
X129960357Y-109319573D01*
X129936882Y-109327979D01*
X129911986Y-109329316D01*
X129188585Y-109514016D01*
X129104527Y-109554241D01*
X129020345Y-109594169D01*
X128606945Y-109901469D01*
X128568969Y-109943462D01*
X128524859Y-109978966D01*
X128506507Y-110012530D01*
X128480852Y-110040898D01*
X128461836Y-110094227D01*
X128434671Y-110143909D01*
X128430560Y-110181940D01*
X128417714Y-110217967D01*
X128420554Y-110274515D01*
X128414469Y-110330809D01*
X128458569Y-110826810D01*
X128471130Y-110869678D01*
X128474566Y-110914210D01*
X128497303Y-110959003D01*
X128511429Y-111007214D01*
X128539436Y-111042010D01*
X128559654Y-111081840D01*
X129025355Y-111674440D01*
X129055267Y-111700067D01*
X129078550Y-111731844D01*
X129220758Y-111862247D01*
X129710017Y-112568200D01*
X128165369Y-112568200D01*
X128007772Y-112429988D01*
X127545343Y-112273005D01*
X127845862Y-112019443D01*
X128112008Y-111504763D01*
X128169928Y-111064745D01*
X127993241Y-110874088D01*
X126840742Y-111182900D01*
X126845918Y-111202218D01*
X126600572Y-111267959D01*
X126595396Y-111248640D01*
X126576078Y-111253816D01*
X126510337Y-111008470D01*
X126529656Y-111003294D01*
X126524480Y-110983976D01*
X126769826Y-110918235D01*
X126775002Y-110937554D01*
X127927501Y-110628743D01*
X127985188Y-110375286D01*
X127715019Y-110023179D01*
X127227189Y-109710527D01*
X126656846Y-109608358D01*
X126466020Y-109784412D01*
X126447085Y-109713747D01*
X139712547Y-96448285D01*
X139793663Y-96326887D01*
X139833680Y-96266998D01*
X139876216Y-96053154D01*
X139876216Y-81398126D01*
X139833680Y-81184282D01*
X139712547Y-81002995D01*
X139410650Y-80701098D01*
X139343194Y-80656025D01*
X139229363Y-80579965D01*
X139015519Y-80537429D01*
X132903771Y-80537429D01*
X132689928Y-80579964D01*
X132508640Y-80701098D01*
X123768538Y-89441200D01*
X122451897Y-89441200D01*
X122238053Y-89483736D01*
X122056766Y-89604869D01*
X117768538Y-93893097D01*
X117548103Y-93893097D01*
X117334259Y-93935633D01*
X117228275Y-94006450D01*
X117152972Y-94056766D01*
X114768538Y-96441200D01*
X111603646Y-96441200D01*
X111389803Y-96483735D01*
X111208515Y-96604868D01*
X110412017Y-97401366D01*
X110243006Y-97367748D01*
X109873028Y-97441341D01*
X109559375Y-97650917D01*
X109349799Y-97964570D01*
X109276206Y-98334548D01*
X109276206Y-99116732D01*
X109349799Y-99486710D01*
X109559375Y-99800363D01*
X109873028Y-100009939D01*
X110243006Y-100083532D01*
X110612984Y-100009939D01*
X110878006Y-99832857D01*
X111143028Y-100009939D01*
X111513006Y-100083532D01*
X111882984Y-100009939D01*
X111988357Y-99939531D01*
X112045494Y-100007757D01*
X112475623Y-100219540D01*
X112656006Y-100093884D01*
X112656006Y-98852640D01*
X112636006Y-98852640D01*
X112636006Y-98598640D01*
X112656006Y-98598640D01*
X112656006Y-98578640D01*
X112910006Y-98578640D01*
X112910006Y-98598640D01*
X112930006Y-98598640D01*
X112930006Y-98852640D01*
X112910006Y-98852640D01*
X112910006Y-100093884D01*
X113090389Y-100219540D01*
X113436113Y-100049315D01*
X113518006Y-100065899D01*
X114588006Y-100065899D01*
X114748021Y-100035790D01*
X114894986Y-99941221D01*
X114993579Y-99796925D01*
X115028265Y-99625640D01*
X115028265Y-99282440D01*
X115608006Y-99282440D01*
X115821084Y-99240056D01*
X116001723Y-99119357D01*
X122071636Y-93049444D01*
X122243006Y-93083532D01*
X122612984Y-93009939D01*
X122878006Y-92832857D01*
X123143028Y-93009939D01*
X123513006Y-93083532D01*
X123882984Y-93009939D01*
X123988357Y-92939531D01*
X124045494Y-93007757D01*
X124475623Y-93219540D01*
X124656006Y-93093884D01*
X124656006Y-91852640D01*
X124636006Y-91852640D01*
X124636006Y-91598640D01*
X124656006Y-91598640D01*
X124656006Y-90357396D01*
X124524485Y-90265777D01*
X133135233Y-81655029D01*
X133556627Y-81655029D01*
X133349799Y-81964570D01*
X133276206Y-82334548D01*
X133276206Y-83116732D01*
X133314909Y-83311303D01*
X126240831Y-90385381D01*
X125518006Y-90385381D01*
X125434388Y-90401115D01*
X125090389Y-90231740D01*
X124910006Y-90357396D01*
X124910006Y-91598640D01*
X124930006Y-91598640D01*
X124930006Y-91852640D01*
X124910006Y-91852640D01*
X124910006Y-93093884D01*
X125090389Y-93219540D01*
X125436113Y-93049315D01*
X125518006Y-93065899D01*
X126588006Y-93065899D01*
X126748021Y-93035790D01*
X126894986Y-92941221D01*
X126993579Y-92796925D01*
X127028265Y-92625640D01*
X127028265Y-91172815D01*
X134138363Y-84062717D01*
X134243006Y-84083532D01*
X134612984Y-84009939D01*
X134878006Y-83832857D01*
X135143028Y-84009939D01*
X135513006Y-84083532D01*
X135882984Y-84009939D01*
X135988357Y-83939531D01*
X136045494Y-84007757D01*
X136248501Y-84107711D01*
X114412382Y-105943830D01*
X110103016Y-105943830D01*
X109889938Y-105986214D01*
X109709299Y-106106913D01*
X109414376Y-106401836D01*
X109243006Y-106367748D01*
X108939796Y-106428060D01*
X108939796Y-105919219D01*
X108897412Y-105706141D01*
X108776713Y-105525502D01*
X106288135Y-103036924D01*
X106107496Y-102916225D01*
X105894418Y-102873841D01*
X90813641Y-102873841D01*
X87923001Y-99983201D01*
X87988357Y-99939531D01*
X88045494Y-100007757D01*
X88475623Y-100219540D01*
X88656006Y-100093884D01*
X88656006Y-98852640D01*
X88636006Y-98852640D01*
X88636006Y-98598640D01*
X88656006Y-98598640D01*
X88656006Y-98578640D01*
X88910006Y-98578640D01*
X88910006Y-98598640D01*
X88930006Y-98598640D01*
X88930006Y-98852640D01*
X88910006Y-98852640D01*
X88910006Y-100093884D01*
X89090389Y-100219540D01*
X89436113Y-100049315D01*
X89518006Y-100065899D01*
X90588006Y-100065899D01*
X90748021Y-100035790D01*
X90894986Y-99941221D01*
X90993579Y-99796925D01*
X91028265Y-99625640D01*
X91028265Y-97825640D01*
X90998156Y-97665625D01*
X90903587Y-97518660D01*
X90759291Y-97420067D01*
X90588006Y-97385381D01*
X89865181Y-97385381D01*
X85036733Y-92556933D01*
X84856094Y-92436234D01*
X84643016Y-92393850D01*
X78528265Y-92393850D01*
X78528265Y-90825640D01*
X78498156Y-90665625D01*
X78403587Y-90518660D01*
X78259291Y-90420067D01*
X78088006Y-90385381D01*
X77365181Y-90385381D01*
X70986735Y-84006935D01*
X70806096Y-83886236D01*
X70593018Y-83843852D01*
X66961515Y-83843852D01*
X66993579Y-83796925D01*
X67028265Y-83625640D01*
X67028265Y-81825640D01*
X66998156Y-81665625D01*
X66903587Y-81518660D01*
X66759291Y-81420067D01*
X66588006Y-81385381D01*
X65865181Y-81385381D01*
X65586713Y-81106913D01*
X65406074Y-80986214D01*
X65192996Y-80943830D01*
X61886779Y-80943830D01*
X61673701Y-80986214D01*
X61493062Y-81106913D01*
X60989279Y-81610696D01*
X60868580Y-81791335D01*
X60826196Y-82004413D01*
X60826196Y-83446867D01*
X60868580Y-83659945D01*
X60989279Y-83840584D01*
X74043051Y-96894356D01*
X74223690Y-97015055D01*
X74436768Y-97057439D01*
X76152371Y-97057439D01*
X86301636Y-107206704D01*
X86276206Y-107334548D01*
X86276206Y-108116732D01*
X86331328Y-108393850D01*
X81333650Y-108393850D01*
X76923001Y-103983201D01*
X76988357Y-103939531D01*
X77045494Y-104007757D01*
X77475623Y-104219540D01*
X77656006Y-104093884D01*
X77656006Y-102852640D01*
X77636006Y-102852640D01*
X77636006Y-102598640D01*
X77656006Y-102598640D01*
X77656006Y-102578640D01*
X77910006Y-102578640D01*
X77910006Y-102598640D01*
X77930006Y-102598640D01*
X77930006Y-102852640D01*
X77910006Y-102852640D01*
X77910006Y-104093884D01*
X78090389Y-104219540D01*
X78436113Y-104049315D01*
X78518006Y-104065899D01*
X79588006Y-104065899D01*
X79748021Y-104035790D01*
X79894986Y-103941221D01*
X79993579Y-103796925D01*
X80028265Y-103625640D01*
X80028265Y-101825640D01*
X79998156Y-101665625D01*
X79903587Y-101518660D01*
X79759291Y-101420067D01*
X79588006Y-101385381D01*
X78865181Y-101385381D01*
X78586713Y-101106913D01*
X78406074Y-100986214D01*
X78192996Y-100943830D01*
X68883630Y-100943830D01*
X64923001Y-96983201D01*
X64988357Y-96939531D01*
X65045494Y-97007757D01*
X65475623Y-97219540D01*
X65656006Y-97093884D01*
X65656006Y-95852640D01*
X65636006Y-95852640D01*
X65636006Y-95598640D01*
X65656006Y-95598640D01*
X65656006Y-95578640D01*
X65910006Y-95578640D01*
X65910006Y-95598640D01*
X65930006Y-95598640D01*
X65930006Y-95852640D01*
X65910006Y-95852640D01*
X65910006Y-97093884D01*
X66090389Y-97219540D01*
X66436113Y-97049315D01*
X66518006Y-97065899D01*
X67588006Y-97065899D01*
X67748021Y-97035790D01*
X67894986Y-96941221D01*
X67993579Y-96796925D01*
X68028265Y-96625640D01*
X68028265Y-94825640D01*
X67998156Y-94665625D01*
X67903587Y-94518660D01*
X67759291Y-94420067D01*
X67588006Y-94385381D01*
X66865181Y-94385381D01*
X66586713Y-94106913D01*
X66406074Y-93986214D01*
X66192996Y-93943830D01*
X62886779Y-93943830D01*
X62673701Y-93986214D01*
X62493062Y-94106913D01*
X61989279Y-94610696D01*
X61868580Y-94791335D01*
X61826196Y-95004413D01*
X61826196Y-96650630D01*
X61868580Y-96863708D01*
X61989279Y-97044347D01*
X77513132Y-112568200D01*
X73490090Y-112568200D01*
X73469745Y-112545001D01*
X73856791Y-112475667D01*
X74344621Y-112163015D01*
X74614790Y-111810908D01*
X74557103Y-111557451D01*
X73404604Y-111248640D01*
X73399428Y-111267959D01*
X73154082Y-111202218D01*
X73159258Y-111182900D01*
X72488962Y-111003294D01*
X73470344Y-111003294D01*
X74622843Y-111312106D01*
X74799530Y-111121449D01*
X74741610Y-110681431D01*
X74475464Y-110166751D01*
X74032616Y-109793099D01*
X73779327Y-109850154D01*
X73470344Y-111003294D01*
X72488962Y-111003294D01*
X72006759Y-110874088D01*
X71830072Y-111064745D01*
X71887992Y-111504763D01*
X72154138Y-112019443D01*
X72454657Y-112273005D01*
X71992228Y-112429987D01*
X71834630Y-112568200D01*
X70395995Y-112568200D01*
X70885254Y-111862247D01*
X71027462Y-111731844D01*
X71050743Y-111700069D01*
X71080658Y-111674440D01*
X71546358Y-111081840D01*
X71566576Y-111042009D01*
X71594583Y-111007214D01*
X71608708Y-110959007D01*
X71631447Y-110914210D01*
X71634883Y-110869674D01*
X71647443Y-110826809D01*
X71687588Y-110375286D01*
X72014812Y-110375286D01*
X72072499Y-110628743D01*
X73224998Y-110937554D01*
X73533982Y-109784414D01*
X73343154Y-109608358D01*
X72772811Y-109710527D01*
X72284981Y-110023179D01*
X72014812Y-110375286D01*
X71687588Y-110375286D01*
X71691543Y-110330809D01*
X71685458Y-110274514D01*
X71688298Y-110217967D01*
X71675452Y-110181940D01*
X71671341Y-110143908D01*
X71644177Y-110094228D01*
X71625161Y-110040898D01*
X71599504Y-110012528D01*
X71581153Y-109978966D01*
X71537043Y-109943462D01*
X71499067Y-109901469D01*
X71085667Y-109594169D01*
X71001485Y-109554241D01*
X70917427Y-109514016D01*
X70194027Y-109329316D01*
X70169129Y-109327979D01*
X70145654Y-109319573D01*
X69259581Y-109187901D01*
X68387111Y-109042249D01*
X67700835Y-108832118D01*
X67421389Y-108655192D01*
X67397727Y-108618288D01*
X67346761Y-108565357D01*
X67300577Y-108508211D01*
X66560677Y-107891628D01*
X64459634Y-105885752D01*
X61942456Y-102939757D01*
X59900936Y-99679234D01*
X58747236Y-97031195D01*
X58498514Y-96153617D01*
X58357019Y-95209993D01*
X58346826Y-95181646D01*
X58344524Y-95151611D01*
X57542484Y-92285311D01*
X57534074Y-92268721D01*
X57531243Y-92250335D01*
X56176366Y-88528337D01*
X54881737Y-84818233D01*
X54199524Y-81979906D01*
X54111774Y-81037473D01*
X54105767Y-81017282D01*
X54106126Y-80996219D01*
X53998257Y-80401040D01*
X54190583Y-78458567D01*
X55244228Y-76110994D01*
X57075897Y-74363942D01*
X58468530Y-73787000D01*
X61254522Y-73787000D01*
X62647434Y-74041500D01*
G36*
X138758616Y-95821692D02*
X138028265Y-96552043D01*
X138028265Y-94825640D01*
X137998156Y-94665625D01*
X137903587Y-94518660D01*
X137759291Y-94420067D01*
X137588006Y-94385381D01*
X136518006Y-94385381D01*
X136434388Y-94401115D01*
X136090389Y-94231740D01*
X135910006Y-94357396D01*
X135910006Y-95598640D01*
X135930006Y-95598640D01*
X135930006Y-95852640D01*
X135910006Y-95852640D01*
X135910006Y-95872640D01*
X135656006Y-95872640D01*
X135656006Y-95852640D01*
X135636006Y-95852640D01*
X135636006Y-95598640D01*
X135656006Y-95598640D01*
X135656006Y-94357396D01*
X135475623Y-94231740D01*
X135045494Y-94443523D01*
X134988357Y-94511749D01*
X134882984Y-94441341D01*
X134513006Y-94367748D01*
X134143028Y-94441341D01*
X133878006Y-94618423D01*
X133612984Y-94441341D01*
X133243006Y-94367748D01*
X132873028Y-94441341D01*
X132559375Y-94650917D01*
X132349799Y-94964570D01*
X132309167Y-95168840D01*
X131688006Y-95168840D01*
X131474928Y-95211224D01*
X131294289Y-95331923D01*
X125240831Y-101385381D01*
X124518006Y-101385381D01*
X124434388Y-101401115D01*
X124090389Y-101231740D01*
X123910006Y-101357396D01*
X123910006Y-102598640D01*
X123930006Y-102598640D01*
X123930006Y-102852640D01*
X123910006Y-102852640D01*
X123910006Y-104093884D01*
X124090389Y-104219540D01*
X124436113Y-104049315D01*
X124518006Y-104065899D01*
X125588006Y-104065899D01*
X125748021Y-104035790D01*
X125894986Y-103941221D01*
X125993579Y-103796925D01*
X126028265Y-103625640D01*
X126028265Y-102172815D01*
X131918640Y-96282440D01*
X132309167Y-96282440D01*
X132349799Y-96486710D01*
X132559375Y-96800363D01*
X132873028Y-97009939D01*
X133243006Y-97083532D01*
X133612984Y-97009939D01*
X133878006Y-96832857D01*
X134143028Y-97009939D01*
X134513006Y-97083532D01*
X134882984Y-97009939D01*
X134988357Y-96939531D01*
X135045494Y-97007757D01*
X135248501Y-97107711D01*
X121862384Y-110493828D01*
X118553018Y-110493828D01*
X118339940Y-110536212D01*
X118159301Y-110656911D01*
X117414376Y-111401836D01*
X117243006Y-111367748D01*
X116873028Y-111441341D01*
X116559375Y-111650917D01*
X116435179Y-111836789D01*
X113652208Y-109053818D01*
X113748021Y-109035790D01*
X113894986Y-108941221D01*
X113993579Y-108796925D01*
X114028265Y-108625640D01*
X114028265Y-108282440D01*
X116608006Y-108282440D01*
X116821084Y-108240056D01*
X117001723Y-108119357D01*
X121071636Y-104049444D01*
X121243006Y-104083532D01*
X121612984Y-104009939D01*
X121878006Y-103832857D01*
X122143028Y-104009939D01*
X122513006Y-104083532D01*
X122882984Y-104009939D01*
X122988357Y-103939531D01*
X123045494Y-104007757D01*
X123475623Y-104219540D01*
X123656006Y-104093884D01*
X123656006Y-102852640D01*
X123636006Y-102852640D01*
X123636006Y-102598640D01*
X123656006Y-102598640D01*
X123656006Y-101357396D01*
X123475623Y-101231740D01*
X123045494Y-101443523D01*
X122988357Y-101511749D01*
X122882984Y-101441341D01*
X122513006Y-101367748D01*
X122143028Y-101441341D01*
X121878006Y-101618423D01*
X121612984Y-101441341D01*
X121243006Y-101367748D01*
X120873028Y-101441341D01*
X120559375Y-101650917D01*
X120349799Y-101964570D01*
X120276206Y-102334548D01*
X120276206Y-103116732D01*
X120301636Y-103244576D01*
X116377372Y-107168840D01*
X114028265Y-107168840D01*
X114028265Y-107057430D01*
X114643016Y-107057430D01*
X114856094Y-107015046D01*
X115036733Y-106894347D01*
X137865181Y-84065899D01*
X138588006Y-84065899D01*
X138748021Y-84035790D01*
X138758616Y-84028972D01*
X138758616Y-95821692D01*
X138758616Y-95821692D01*
G37*
X138758616Y-95821692D02*
X138028265Y-96552043D01*
X138028265Y-94825640D01*
X137998156Y-94665625D01*
X137903587Y-94518660D01*
X137759291Y-94420067D01*
X137588006Y-94385381D01*
X136518006Y-94385381D01*
X136434388Y-94401115D01*
X136090389Y-94231740D01*
X135910006Y-94357396D01*
X135910006Y-95598640D01*
X135930006Y-95598640D01*
X135930006Y-95852640D01*
X135910006Y-95852640D01*
X135910006Y-95872640D01*
X135656006Y-95872640D01*
X135656006Y-95852640D01*
X135636006Y-95852640D01*
X135636006Y-95598640D01*
X135656006Y-95598640D01*
X135656006Y-94357396D01*
X135475623Y-94231740D01*
X135045494Y-94443523D01*
X134988357Y-94511749D01*
X134882984Y-94441341D01*
X134513006Y-94367748D01*
X134143028Y-94441341D01*
X133878006Y-94618423D01*
X133612984Y-94441341D01*
X133243006Y-94367748D01*
X132873028Y-94441341D01*
X132559375Y-94650917D01*
X132349799Y-94964570D01*
X132309167Y-95168840D01*
X131688006Y-95168840D01*
X131474928Y-95211224D01*
X131294289Y-95331923D01*
X125240831Y-101385381D01*
X124518006Y-101385381D01*
X124434388Y-101401115D01*
X124090389Y-101231740D01*
X123910006Y-101357396D01*
X123910006Y-102598640D01*
X123930006Y-102598640D01*
X123930006Y-102852640D01*
X123910006Y-102852640D01*
X123910006Y-104093884D01*
X124090389Y-104219540D01*
X124436113Y-104049315D01*
X124518006Y-104065899D01*
X125588006Y-104065899D01*
X125748021Y-104035790D01*
X125894986Y-103941221D01*
X125993579Y-103796925D01*
X126028265Y-103625640D01*
X126028265Y-102172815D01*
X131918640Y-96282440D01*
X132309167Y-96282440D01*
X132349799Y-96486710D01*
X132559375Y-96800363D01*
X132873028Y-97009939D01*
X133243006Y-97083532D01*
X133612984Y-97009939D01*
X133878006Y-96832857D01*
X134143028Y-97009939D01*
X134513006Y-97083532D01*
X134882984Y-97009939D01*
X134988357Y-96939531D01*
X135045494Y-97007757D01*
X135248501Y-97107711D01*
X121862384Y-110493828D01*
X118553018Y-110493828D01*
X118339940Y-110536212D01*
X118159301Y-110656911D01*
X117414376Y-111401836D01*
X117243006Y-111367748D01*
X116873028Y-111441341D01*
X116559375Y-111650917D01*
X116435179Y-111836789D01*
X113652208Y-109053818D01*
X113748021Y-109035790D01*
X113894986Y-108941221D01*
X113993579Y-108796925D01*
X114028265Y-108625640D01*
X114028265Y-108282440D01*
X116608006Y-108282440D01*
X116821084Y-108240056D01*
X117001723Y-108119357D01*
X121071636Y-104049444D01*
X121243006Y-104083532D01*
X121612984Y-104009939D01*
X121878006Y-103832857D01*
X122143028Y-104009939D01*
X122513006Y-104083532D01*
X122882984Y-104009939D01*
X122988357Y-103939531D01*
X123045494Y-104007757D01*
X123475623Y-104219540D01*
X123656006Y-104093884D01*
X123656006Y-102852640D01*
X123636006Y-102852640D01*
X123636006Y-102598640D01*
X123656006Y-102598640D01*
X123656006Y-101357396D01*
X123475623Y-101231740D01*
X123045494Y-101443523D01*
X122988357Y-101511749D01*
X122882984Y-101441341D01*
X122513006Y-101367748D01*
X122143028Y-101441341D01*
X121878006Y-101618423D01*
X121612984Y-101441341D01*
X121243006Y-101367748D01*
X120873028Y-101441341D01*
X120559375Y-101650917D01*
X120349799Y-101964570D01*
X120276206Y-102334548D01*
X120276206Y-103116732D01*
X120301636Y-103244576D01*
X116377372Y-107168840D01*
X114028265Y-107168840D01*
X114028265Y-107057430D01*
X114643016Y-107057430D01*
X114856094Y-107015046D01*
X115036733Y-106894347D01*
X137865181Y-84065899D01*
X138588006Y-84065899D01*
X138748021Y-84035790D01*
X138758616Y-84028972D01*
X138758616Y-95821692D01*
G36*
X111910006Y-107598640D02*
X111930006Y-107598640D01*
X111930006Y-107852640D01*
X111910006Y-107852640D01*
X111910006Y-107872640D01*
X111656006Y-107872640D01*
X111656006Y-107852640D01*
X111636006Y-107852640D01*
X111636006Y-107598640D01*
X111656006Y-107598640D01*
X111656006Y-107578640D01*
X111910006Y-107578640D01*
X111910006Y-107598640D01*
X111910006Y-107598640D01*
G37*
X111910006Y-107598640D02*
X111930006Y-107598640D01*
X111930006Y-107852640D01*
X111910006Y-107852640D01*
X111910006Y-107872640D01*
X111656006Y-107872640D01*
X111656006Y-107852640D01*
X111636006Y-107852640D01*
X111636006Y-107598640D01*
X111656006Y-107598640D01*
X111656006Y-107578640D01*
X111910006Y-107578640D01*
X111910006Y-107598640D01*
G36*
X76410006Y-91598640D02*
X76430006Y-91598640D01*
X76430006Y-91852640D01*
X76410006Y-91852640D01*
X76410006Y-91872640D01*
X76156006Y-91872640D01*
X76156006Y-91852640D01*
X76136006Y-91852640D01*
X76136006Y-91598640D01*
X76156006Y-91598640D01*
X76156006Y-91578640D01*
X76410006Y-91578640D01*
X76410006Y-91598640D01*
X76410006Y-91598640D01*
G37*
X76410006Y-91598640D02*
X76430006Y-91598640D01*
X76430006Y-91852640D01*
X76410006Y-91852640D01*
X76410006Y-91872640D01*
X76156006Y-91872640D01*
X76156006Y-91852640D01*
X76136006Y-91852640D01*
X76136006Y-91598640D01*
X76156006Y-91598640D01*
X76156006Y-91578640D01*
X76410006Y-91578640D01*
X76410006Y-91598640D01*
G36*
X136910006Y-82598640D02*
X136930006Y-82598640D01*
X136930006Y-82852640D01*
X136910006Y-82852640D01*
X136910006Y-82872640D01*
X136656006Y-82872640D01*
X136656006Y-82852640D01*
X136636006Y-82852640D01*
X136636006Y-82598640D01*
X136656006Y-82598640D01*
X136656006Y-82578640D01*
X136910006Y-82578640D01*
X136910006Y-82598640D01*
X136910006Y-82598640D01*
G37*
X136910006Y-82598640D02*
X136930006Y-82598640D01*
X136930006Y-82852640D01*
X136910006Y-82852640D01*
X136910006Y-82872640D01*
X136656006Y-82872640D01*
X136656006Y-82852640D01*
X136636006Y-82852640D01*
X136636006Y-82598640D01*
X136656006Y-82598640D01*
X136656006Y-82578640D01*
X136910006Y-82578640D01*
X136910006Y-82598640D01*
G36*
X64910006Y-82598640D02*
X64930006Y-82598640D01*
X64930006Y-82852640D01*
X64910006Y-82852640D01*
X64910006Y-82872640D01*
X64656006Y-82872640D01*
X64656006Y-82852640D01*
X64636006Y-82852640D01*
X64636006Y-82598640D01*
X64656006Y-82598640D01*
X64656006Y-82578640D01*
X64910006Y-82578640D01*
X64910006Y-82598640D01*
X64910006Y-82598640D01*
G37*
X64910006Y-82598640D02*
X64930006Y-82598640D01*
X64930006Y-82852640D01*
X64910006Y-82852640D01*
X64910006Y-82872640D01*
X64656006Y-82872640D01*
X64656006Y-82852640D01*
X64636006Y-82852640D01*
X64636006Y-82598640D01*
X64656006Y-82598640D01*
X64656006Y-82578640D01*
X64910006Y-82578640D01*
X64910006Y-82598640D01*
G36*
X106873000Y-113000000D02*
X106883006Y-113049410D01*
X106911447Y-113091035D01*
X106953841Y-113118315D01*
X107000000Y-113127000D01*
X109216932Y-113127000D01*
X111659289Y-115569357D01*
X111839928Y-115690056D01*
X112053006Y-115732440D01*
X112266084Y-115690056D01*
X112314899Y-115657439D01*
X114421207Y-115657439D01*
X114421207Y-121150005D01*
X114389289Y-121181923D01*
X114268590Y-121362562D01*
X114252108Y-121445422D01*
X114250518Y-121443523D01*
X113820389Y-121231740D01*
X113640006Y-121357396D01*
X113640006Y-122598640D01*
X113660006Y-122598640D01*
X113660006Y-122852640D01*
X113640006Y-122852640D01*
X113640006Y-122872640D01*
X113386006Y-122872640D01*
X113386006Y-122852640D01*
X113366006Y-122852640D01*
X113366006Y-122598640D01*
X113386006Y-122598640D01*
X113386006Y-121357396D01*
X113205623Y-121231740D01*
X112775494Y-121443523D01*
X112718357Y-121511749D01*
X112612984Y-121441341D01*
X112243006Y-121367748D01*
X111873028Y-121441341D01*
X111559375Y-121650917D01*
X111349799Y-121964570D01*
X111276206Y-122334548D01*
X111276206Y-123116732D01*
X111349799Y-123486710D01*
X111559375Y-123800363D01*
X111873028Y-124009939D01*
X112243006Y-124083532D01*
X112414376Y-124049444D01*
X118159310Y-129794378D01*
X118339949Y-129915077D01*
X118553027Y-129957461D01*
X123742985Y-129957461D01*
X123956063Y-129915077D01*
X124136702Y-129794378D01*
X124865181Y-129065899D01*
X125588006Y-129065899D01*
X125748021Y-129035790D01*
X125894986Y-128941221D01*
X125993579Y-128796925D01*
X126028265Y-128625640D01*
X126028265Y-126825640D01*
X125998156Y-126665625D01*
X125903587Y-126518660D01*
X125759291Y-126420067D01*
X125588006Y-126385381D01*
X124518006Y-126385381D01*
X124357991Y-126415490D01*
X124233849Y-126495373D01*
X124152984Y-126441341D01*
X123783006Y-126367748D01*
X123413028Y-126441341D01*
X123307655Y-126511749D01*
X123250518Y-126443523D01*
X122820389Y-126231740D01*
X122640006Y-126357396D01*
X122640006Y-127598640D01*
X122660006Y-127598640D01*
X122660006Y-127852640D01*
X122640006Y-127852640D01*
X122640006Y-127872640D01*
X122386006Y-127872640D01*
X122386006Y-127852640D01*
X122366006Y-127852640D01*
X122366006Y-127598640D01*
X122386006Y-127598640D01*
X122386006Y-126357396D01*
X122205623Y-126231740D01*
X121775494Y-126443523D01*
X121718357Y-126511749D01*
X121612984Y-126441341D01*
X121609806Y-126440709D01*
X121609806Y-116660360D01*
X126639558Y-116660360D01*
X126752905Y-117083378D01*
X126818288Y-117327389D01*
X126972072Y-117527805D01*
X127190847Y-117654114D01*
X127441304Y-117687087D01*
X128108333Y-117508357D01*
X128220586Y-117313929D01*
X127910197Y-116155543D01*
X126751811Y-116465931D01*
X126639558Y-116660360D01*
X121609806Y-116660360D01*
X121609806Y-114061797D01*
X121748021Y-114035790D01*
X121894986Y-113941221D01*
X121993579Y-113796925D01*
X122028265Y-113625640D01*
X122028265Y-113127000D01*
X126132790Y-113127000D01*
X126134694Y-113128904D01*
X126047512Y-113385720D01*
X126080215Y-113884783D01*
X126301412Y-114333343D01*
X126677428Y-114663109D01*
X126930775Y-114749113D01*
X126672612Y-114818288D01*
X126472196Y-114972072D01*
X126345886Y-115190846D01*
X126312913Y-115441303D01*
X126378295Y-115685314D01*
X126491643Y-116108333D01*
X126686071Y-116220586D01*
X127174159Y-116089803D01*
X128155543Y-116089803D01*
X128465931Y-117248189D01*
X128660360Y-117360442D01*
X129327388Y-117181712D01*
X129527804Y-117027928D01*
X129654114Y-116809154D01*
X129687087Y-116558697D01*
X129621705Y-116314686D01*
X129508357Y-115891667D01*
X129313929Y-115779414D01*
X128155543Y-116089803D01*
X127174159Y-116089803D01*
X127844457Y-115910197D01*
X127839281Y-115890879D01*
X128084627Y-115825138D01*
X128089803Y-115844457D01*
X129248189Y-115534069D01*
X129360442Y-115339640D01*
X129247095Y-114916622D01*
X129181712Y-114672611D01*
X129027928Y-114472195D01*
X128809153Y-114345886D01*
X128558696Y-114312913D01*
X128300533Y-114382088D01*
X128476917Y-114180965D01*
X128637688Y-113707376D01*
X128604984Y-113208313D01*
X128564887Y-113127000D01*
X129937069Y-113127000D01*
X130811932Y-115353741D01*
X131300699Y-119254453D01*
X130904039Y-123263634D01*
X130206567Y-126186197D01*
X129900469Y-127119271D01*
X129643407Y-127766423D01*
X128644059Y-129689779D01*
X127007323Y-132087620D01*
X125057378Y-134245515D01*
X123431446Y-135685411D01*
X122858893Y-136108798D01*
X122315448Y-136497896D01*
X120460394Y-137425459D01*
X117787930Y-138115968D01*
X115123568Y-137963608D01*
X113227730Y-137191666D01*
X112731997Y-136797785D01*
X112720132Y-136791682D01*
X112710963Y-136781990D01*
X112148710Y-136383303D01*
X110531012Y-135093662D01*
X108619769Y-133155671D01*
X107227383Y-130915928D01*
X106632279Y-128978066D01*
X106587815Y-128338714D01*
X106580796Y-128312931D01*
X106581252Y-128286214D01*
X106357952Y-127054214D01*
X106356187Y-127049740D01*
X106356175Y-127044929D01*
X105118965Y-120907707D01*
X104117546Y-114751443D01*
X104011604Y-113519654D01*
X104007788Y-113506490D01*
X104008534Y-113492807D01*
X103981744Y-113416646D01*
X103959264Y-113339098D01*
X103950702Y-113328397D01*
X103946154Y-113315469D01*
X103892260Y-113255361D01*
X103841814Y-113192316D01*
X103829807Y-113185706D01*
X103820658Y-113175502D01*
X103747866Y-113140594D01*
X103677132Y-113101653D01*
X103663509Y-113100141D01*
X103651152Y-113094215D01*
X103570541Y-113089820D01*
X103490290Y-113080912D01*
X103477126Y-113084728D01*
X103463442Y-113083982D01*
X103387277Y-113110774D01*
X103309734Y-113133252D01*
X103299034Y-113141814D01*
X103286104Y-113146362D01*
X103083605Y-113266262D01*
X103030970Y-113313455D01*
X102973939Y-113355249D01*
X102473639Y-113900949D01*
X102427743Y-113976540D01*
X102380096Y-114050991D01*
X102045296Y-114906690D01*
X102033356Y-114973599D01*
X102014139Y-115038791D01*
X101924539Y-116028290D01*
X101927723Y-116058198D01*
X101922846Y-116087878D01*
X101958546Y-117153078D01*
X101958667Y-117153596D01*
X101958582Y-117154122D01*
X101996399Y-118213868D01*
X101920351Y-119178363D01*
X101639697Y-120011832D01*
X101239181Y-120552698D01*
X101083941Y-120675650D01*
X101048168Y-120717727D01*
X101006019Y-120753408D01*
X100921304Y-120859907D01*
X100053006Y-121862158D01*
X99184697Y-120859893D01*
X99099993Y-120753408D01*
X99057844Y-120717727D01*
X99022071Y-120675650D01*
X98866831Y-120552698D01*
X98466315Y-120011832D01*
X98185661Y-119178362D01*
X98109613Y-118213868D01*
X98147430Y-117154122D01*
X98147345Y-117153596D01*
X98147466Y-117153078D01*
X98183166Y-116087878D01*
X98178289Y-116058198D01*
X98181473Y-116028290D01*
X98091873Y-115038790D01*
X98072656Y-114973598D01*
X98060716Y-114906690D01*
X97725916Y-114050990D01*
X97678254Y-113976515D01*
X97632373Y-113900949D01*
X97132073Y-113355249D01*
X97075044Y-113313457D01*
X97044143Y-113285750D01*
X98115000Y-113285750D01*
X98115000Y-114126309D01*
X98211673Y-114359698D01*
X98390301Y-114538327D01*
X98623690Y-114635000D01*
X99714250Y-114635000D01*
X99873000Y-114476250D01*
X99873000Y-113127000D01*
X100127000Y-113127000D01*
X100127000Y-114476250D01*
X100285750Y-114635000D01*
X101376310Y-114635000D01*
X101609699Y-114538327D01*
X101788327Y-114359698D01*
X101885000Y-114126309D01*
X101885000Y-113285750D01*
X101726250Y-113127000D01*
X100127000Y-113127000D01*
X99873000Y-113127000D01*
X98273750Y-113127000D01*
X98115000Y-113285750D01*
X97044143Y-113285750D01*
X97022407Y-113266262D01*
X96819907Y-113146362D01*
X96806979Y-113141814D01*
X96796278Y-113133252D01*
X96718737Y-113110775D01*
X96642569Y-113083982D01*
X96628883Y-113084728D01*
X96615722Y-113080913D01*
X96535483Y-113089820D01*
X96454859Y-113094215D01*
X96442502Y-113100141D01*
X96428880Y-113101653D01*
X96358149Y-113140593D01*
X96285354Y-113175502D01*
X96276205Y-113185706D01*
X96264198Y-113192316D01*
X96213755Y-113255357D01*
X96159858Y-113315469D01*
X96155310Y-113328399D01*
X96146748Y-113339099D01*
X96124270Y-113416642D01*
X96097478Y-113492807D01*
X96098224Y-113506491D01*
X96094408Y-113519655D01*
X95988466Y-114751443D01*
X94987047Y-120907707D01*
X93749837Y-127044929D01*
X93749825Y-127049740D01*
X93748060Y-127054214D01*
X93524760Y-128286214D01*
X93525216Y-128312932D01*
X93518197Y-128338714D01*
X93473733Y-128978066D01*
X92878629Y-130915928D01*
X91486243Y-133155671D01*
X89575000Y-135093662D01*
X87957302Y-136383303D01*
X87395050Y-136781989D01*
X87385880Y-136791683D01*
X87374014Y-136797786D01*
X86878283Y-137191666D01*
X84982444Y-137963608D01*
X82318082Y-138115968D01*
X79645621Y-137425461D01*
X77790562Y-136497895D01*
X77247119Y-136108798D01*
X76674566Y-135685411D01*
X75048630Y-134245510D01*
X73098686Y-132087617D01*
X71461951Y-129689777D01*
X70462605Y-127766423D01*
X70205540Y-127119262D01*
X69899444Y-126186194D01*
X69201973Y-123263636D01*
X68805313Y-119254453D01*
X69143096Y-116558697D01*
X70312913Y-116558697D01*
X70345886Y-116809154D01*
X70472196Y-117027928D01*
X70672612Y-117181712D01*
X71339640Y-117360442D01*
X71534069Y-117248189D01*
X71844457Y-116089803D01*
X70686071Y-115779414D01*
X70491643Y-115891667D01*
X70378295Y-116314686D01*
X70312913Y-116558697D01*
X69143096Y-116558697D01*
X69294080Y-115353741D01*
X70168943Y-113127000D01*
X71435113Y-113127000D01*
X71395015Y-113208313D01*
X71362312Y-113707376D01*
X71523082Y-114180965D01*
X71699466Y-114382087D01*
X71441304Y-114312913D01*
X71190847Y-114345886D01*
X70972072Y-114472195D01*
X70818288Y-114672611D01*
X70752905Y-114916622D01*
X70639558Y-115339640D01*
X70751811Y-115534069D01*
X71910197Y-115844457D01*
X71915373Y-115825138D01*
X72160719Y-115890879D01*
X72155543Y-115910197D01*
X72174862Y-115915373D01*
X72109121Y-116160719D01*
X72089803Y-116155543D01*
X71779414Y-117313929D01*
X71891667Y-117508357D01*
X72558696Y-117687087D01*
X72809153Y-117654114D01*
X72948599Y-117573605D01*
X72948599Y-127506782D01*
X72991135Y-127720626D01*
X73079345Y-127852640D01*
X73112268Y-127901913D01*
X74960536Y-129750182D01*
X75141824Y-129871315D01*
X75355667Y-129913850D01*
X82577596Y-129913850D01*
X82791440Y-129871314D01*
X82972727Y-129750181D01*
X88448137Y-124274771D01*
X88522340Y-124163719D01*
X88569270Y-124093484D01*
X88574757Y-124065899D01*
X88588006Y-124065899D01*
X88748021Y-124035790D01*
X88894986Y-123941221D01*
X88993579Y-123796925D01*
X89028265Y-123625640D01*
X89028265Y-121825640D01*
X88998156Y-121665625D01*
X88903587Y-121518660D01*
X88759291Y-121420067D01*
X88588006Y-121385381D01*
X87518006Y-121385381D01*
X87357991Y-121415490D01*
X87233849Y-121495373D01*
X87152984Y-121441341D01*
X86783006Y-121367748D01*
X86413028Y-121441341D01*
X86307655Y-121511749D01*
X86250518Y-121443523D01*
X85820389Y-121231740D01*
X85640006Y-121357396D01*
X85640006Y-122598640D01*
X85660006Y-122598640D01*
X85660006Y-122852640D01*
X85640006Y-122852640D01*
X85640006Y-124093884D01*
X85720945Y-124150267D01*
X81477371Y-128393841D01*
X80028265Y-128393841D01*
X80028265Y-127172815D01*
X83495826Y-123705254D01*
X83559375Y-123800363D01*
X83873028Y-124009939D01*
X84243006Y-124083532D01*
X84612984Y-124009939D01*
X84718357Y-123939531D01*
X84775494Y-124007757D01*
X85205623Y-124219540D01*
X85386006Y-124093884D01*
X85386006Y-122852640D01*
X85366006Y-122852640D01*
X85366006Y-122598640D01*
X85386006Y-122598640D01*
X85386006Y-121357396D01*
X85205623Y-121231740D01*
X84775494Y-121443523D01*
X84718357Y-121511749D01*
X84612984Y-121441341D01*
X84243006Y-121367748D01*
X83873028Y-121441341D01*
X83559375Y-121650917D01*
X83349799Y-121964570D01*
X83276206Y-122334548D01*
X83276206Y-122350006D01*
X79240831Y-126385381D01*
X78760699Y-126385381D01*
X87863640Y-117282440D01*
X89803006Y-117282440D01*
X90016084Y-117240056D01*
X90196723Y-117119357D01*
X90317422Y-116938718D01*
X90359806Y-116725640D01*
X90359806Y-113456274D01*
X90689080Y-113127000D01*
X93000000Y-113127000D01*
X93049410Y-113116994D01*
X93091035Y-113088553D01*
X93118315Y-113046159D01*
X93127000Y-113000000D01*
X93127000Y-111873691D01*
X98115000Y-111873691D01*
X98115000Y-112714250D01*
X98273750Y-112873000D01*
X99873000Y-112873000D01*
X99873000Y-111523750D01*
X100127000Y-111523750D01*
X100127000Y-112873000D01*
X101726250Y-112873000D01*
X101885000Y-112714250D01*
X101885000Y-111873691D01*
X101788327Y-111640302D01*
X101609699Y-111461673D01*
X101376310Y-111365000D01*
X100285750Y-111365000D01*
X100127000Y-111523750D01*
X99873000Y-111523750D01*
X99714250Y-111365000D01*
X98623690Y-111365000D01*
X98390301Y-111461673D01*
X98211673Y-111640302D01*
X98115000Y-111873691D01*
X93127000Y-111873691D01*
X93127000Y-111127000D01*
X106873000Y-111127000D01*
X106873000Y-113000000D01*
X106873000Y-113000000D01*
G37*
X106873000Y-113000000D02*
X106883006Y-113049410D01*
X106911447Y-113091035D01*
X106953841Y-113118315D01*
X107000000Y-113127000D01*
X109216932Y-113127000D01*
X111659289Y-115569357D01*
X111839928Y-115690056D01*
X112053006Y-115732440D01*
X112266084Y-115690056D01*
X112314899Y-115657439D01*
X114421207Y-115657439D01*
X114421207Y-121150005D01*
X114389289Y-121181923D01*
X114268590Y-121362562D01*
X114252108Y-121445422D01*
X114250518Y-121443523D01*
X113820389Y-121231740D01*
X113640006Y-121357396D01*
X113640006Y-122598640D01*
X113660006Y-122598640D01*
X113660006Y-122852640D01*
X113640006Y-122852640D01*
X113640006Y-122872640D01*
X113386006Y-122872640D01*
X113386006Y-122852640D01*
X113366006Y-122852640D01*
X113366006Y-122598640D01*
X113386006Y-122598640D01*
X113386006Y-121357396D01*
X113205623Y-121231740D01*
X112775494Y-121443523D01*
X112718357Y-121511749D01*
X112612984Y-121441341D01*
X112243006Y-121367748D01*
X111873028Y-121441341D01*
X111559375Y-121650917D01*
X111349799Y-121964570D01*
X111276206Y-122334548D01*
X111276206Y-123116732D01*
X111349799Y-123486710D01*
X111559375Y-123800363D01*
X111873028Y-124009939D01*
X112243006Y-124083532D01*
X112414376Y-124049444D01*
X118159310Y-129794378D01*
X118339949Y-129915077D01*
X118553027Y-129957461D01*
X123742985Y-129957461D01*
X123956063Y-129915077D01*
X124136702Y-129794378D01*
X124865181Y-129065899D01*
X125588006Y-129065899D01*
X125748021Y-129035790D01*
X125894986Y-128941221D01*
X125993579Y-128796925D01*
X126028265Y-128625640D01*
X126028265Y-126825640D01*
X125998156Y-126665625D01*
X125903587Y-126518660D01*
X125759291Y-126420067D01*
X125588006Y-126385381D01*
X124518006Y-126385381D01*
X124357991Y-126415490D01*
X124233849Y-126495373D01*
X124152984Y-126441341D01*
X123783006Y-126367748D01*
X123413028Y-126441341D01*
X123307655Y-126511749D01*
X123250518Y-126443523D01*
X122820389Y-126231740D01*
X122640006Y-126357396D01*
X122640006Y-127598640D01*
X122660006Y-127598640D01*
X122660006Y-127852640D01*
X122640006Y-127852640D01*
X122640006Y-127872640D01*
X122386006Y-127872640D01*
X122386006Y-127852640D01*
X122366006Y-127852640D01*
X122366006Y-127598640D01*
X122386006Y-127598640D01*
X122386006Y-126357396D01*
X122205623Y-126231740D01*
X121775494Y-126443523D01*
X121718357Y-126511749D01*
X121612984Y-126441341D01*
X121609806Y-126440709D01*
X121609806Y-116660360D01*
X126639558Y-116660360D01*
X126752905Y-117083378D01*
X126818288Y-117327389D01*
X126972072Y-117527805D01*
X127190847Y-117654114D01*
X127441304Y-117687087D01*
X128108333Y-117508357D01*
X128220586Y-117313929D01*
X127910197Y-116155543D01*
X126751811Y-116465931D01*
X126639558Y-116660360D01*
X121609806Y-116660360D01*
X121609806Y-114061797D01*
X121748021Y-114035790D01*
X121894986Y-113941221D01*
X121993579Y-113796925D01*
X122028265Y-113625640D01*
X122028265Y-113127000D01*
X126132790Y-113127000D01*
X126134694Y-113128904D01*
X126047512Y-113385720D01*
X126080215Y-113884783D01*
X126301412Y-114333343D01*
X126677428Y-114663109D01*
X126930775Y-114749113D01*
X126672612Y-114818288D01*
X126472196Y-114972072D01*
X126345886Y-115190846D01*
X126312913Y-115441303D01*
X126378295Y-115685314D01*
X126491643Y-116108333D01*
X126686071Y-116220586D01*
X127174159Y-116089803D01*
X128155543Y-116089803D01*
X128465931Y-117248189D01*
X128660360Y-117360442D01*
X129327388Y-117181712D01*
X129527804Y-117027928D01*
X129654114Y-116809154D01*
X129687087Y-116558697D01*
X129621705Y-116314686D01*
X129508357Y-115891667D01*
X129313929Y-115779414D01*
X128155543Y-116089803D01*
X127174159Y-116089803D01*
X127844457Y-115910197D01*
X127839281Y-115890879D01*
X128084627Y-115825138D01*
X128089803Y-115844457D01*
X129248189Y-115534069D01*
X129360442Y-115339640D01*
X129247095Y-114916622D01*
X129181712Y-114672611D01*
X129027928Y-114472195D01*
X128809153Y-114345886D01*
X128558696Y-114312913D01*
X128300533Y-114382088D01*
X128476917Y-114180965D01*
X128637688Y-113707376D01*
X128604984Y-113208313D01*
X128564887Y-113127000D01*
X129937069Y-113127000D01*
X130811932Y-115353741D01*
X131300699Y-119254453D01*
X130904039Y-123263634D01*
X130206567Y-126186197D01*
X129900469Y-127119271D01*
X129643407Y-127766423D01*
X128644059Y-129689779D01*
X127007323Y-132087620D01*
X125057378Y-134245515D01*
X123431446Y-135685411D01*
X122858893Y-136108798D01*
X122315448Y-136497896D01*
X120460394Y-137425459D01*
X117787930Y-138115968D01*
X115123568Y-137963608D01*
X113227730Y-137191666D01*
X112731997Y-136797785D01*
X112720132Y-136791682D01*
X112710963Y-136781990D01*
X112148710Y-136383303D01*
X110531012Y-135093662D01*
X108619769Y-133155671D01*
X107227383Y-130915928D01*
X106632279Y-128978066D01*
X106587815Y-128338714D01*
X106580796Y-128312931D01*
X106581252Y-128286214D01*
X106357952Y-127054214D01*
X106356187Y-127049740D01*
X106356175Y-127044929D01*
X105118965Y-120907707D01*
X104117546Y-114751443D01*
X104011604Y-113519654D01*
X104007788Y-113506490D01*
X104008534Y-113492807D01*
X103981744Y-113416646D01*
X103959264Y-113339098D01*
X103950702Y-113328397D01*
X103946154Y-113315469D01*
X103892260Y-113255361D01*
X103841814Y-113192316D01*
X103829807Y-113185706D01*
X103820658Y-113175502D01*
X103747866Y-113140594D01*
X103677132Y-113101653D01*
X103663509Y-113100141D01*
X103651152Y-113094215D01*
X103570541Y-113089820D01*
X103490290Y-113080912D01*
X103477126Y-113084728D01*
X103463442Y-113083982D01*
X103387277Y-113110774D01*
X103309734Y-113133252D01*
X103299034Y-113141814D01*
X103286104Y-113146362D01*
X103083605Y-113266262D01*
X103030970Y-113313455D01*
X102973939Y-113355249D01*
X102473639Y-113900949D01*
X102427743Y-113976540D01*
X102380096Y-114050991D01*
X102045296Y-114906690D01*
X102033356Y-114973599D01*
X102014139Y-115038791D01*
X101924539Y-116028290D01*
X101927723Y-116058198D01*
X101922846Y-116087878D01*
X101958546Y-117153078D01*
X101958667Y-117153596D01*
X101958582Y-117154122D01*
X101996399Y-118213868D01*
X101920351Y-119178363D01*
X101639697Y-120011832D01*
X101239181Y-120552698D01*
X101083941Y-120675650D01*
X101048168Y-120717727D01*
X101006019Y-120753408D01*
X100921304Y-120859907D01*
X100053006Y-121862158D01*
X99184697Y-120859893D01*
X99099993Y-120753408D01*
X99057844Y-120717727D01*
X99022071Y-120675650D01*
X98866831Y-120552698D01*
X98466315Y-120011832D01*
X98185661Y-119178362D01*
X98109613Y-118213868D01*
X98147430Y-117154122D01*
X98147345Y-117153596D01*
X98147466Y-117153078D01*
X98183166Y-116087878D01*
X98178289Y-116058198D01*
X98181473Y-116028290D01*
X98091873Y-115038790D01*
X98072656Y-114973598D01*
X98060716Y-114906690D01*
X97725916Y-114050990D01*
X97678254Y-113976515D01*
X97632373Y-113900949D01*
X97132073Y-113355249D01*
X97075044Y-113313457D01*
X97044143Y-113285750D01*
X98115000Y-113285750D01*
X98115000Y-114126309D01*
X98211673Y-114359698D01*
X98390301Y-114538327D01*
X98623690Y-114635000D01*
X99714250Y-114635000D01*
X99873000Y-114476250D01*
X99873000Y-113127000D01*
X100127000Y-113127000D01*
X100127000Y-114476250D01*
X100285750Y-114635000D01*
X101376310Y-114635000D01*
X101609699Y-114538327D01*
X101788327Y-114359698D01*
X101885000Y-114126309D01*
X101885000Y-113285750D01*
X101726250Y-113127000D01*
X100127000Y-113127000D01*
X99873000Y-113127000D01*
X98273750Y-113127000D01*
X98115000Y-113285750D01*
X97044143Y-113285750D01*
X97022407Y-113266262D01*
X96819907Y-113146362D01*
X96806979Y-113141814D01*
X96796278Y-113133252D01*
X96718737Y-113110775D01*
X96642569Y-113083982D01*
X96628883Y-113084728D01*
X96615722Y-113080913D01*
X96535483Y-113089820D01*
X96454859Y-113094215D01*
X96442502Y-113100141D01*
X96428880Y-113101653D01*
X96358149Y-113140593D01*
X96285354Y-113175502D01*
X96276205Y-113185706D01*
X96264198Y-113192316D01*
X96213755Y-113255357D01*
X96159858Y-113315469D01*
X96155310Y-113328399D01*
X96146748Y-113339099D01*
X96124270Y-113416642D01*
X96097478Y-113492807D01*
X96098224Y-113506491D01*
X96094408Y-113519655D01*
X95988466Y-114751443D01*
X94987047Y-120907707D01*
X93749837Y-127044929D01*
X93749825Y-127049740D01*
X93748060Y-127054214D01*
X93524760Y-128286214D01*
X93525216Y-128312932D01*
X93518197Y-128338714D01*
X93473733Y-128978066D01*
X92878629Y-130915928D01*
X91486243Y-133155671D01*
X89575000Y-135093662D01*
X87957302Y-136383303D01*
X87395050Y-136781989D01*
X87385880Y-136791683D01*
X87374014Y-136797786D01*
X86878283Y-137191666D01*
X84982444Y-137963608D01*
X82318082Y-138115968D01*
X79645621Y-137425461D01*
X77790562Y-136497895D01*
X77247119Y-136108798D01*
X76674566Y-135685411D01*
X75048630Y-134245510D01*
X73098686Y-132087617D01*
X71461951Y-129689777D01*
X70462605Y-127766423D01*
X70205540Y-127119262D01*
X69899444Y-126186194D01*
X69201973Y-123263636D01*
X68805313Y-119254453D01*
X69143096Y-116558697D01*
X70312913Y-116558697D01*
X70345886Y-116809154D01*
X70472196Y-117027928D01*
X70672612Y-117181712D01*
X71339640Y-117360442D01*
X71534069Y-117248189D01*
X71844457Y-116089803D01*
X70686071Y-115779414D01*
X70491643Y-115891667D01*
X70378295Y-116314686D01*
X70312913Y-116558697D01*
X69143096Y-116558697D01*
X69294080Y-115353741D01*
X70168943Y-113127000D01*
X71435113Y-113127000D01*
X71395015Y-113208313D01*
X71362312Y-113707376D01*
X71523082Y-114180965D01*
X71699466Y-114382087D01*
X71441304Y-114312913D01*
X71190847Y-114345886D01*
X70972072Y-114472195D01*
X70818288Y-114672611D01*
X70752905Y-114916622D01*
X70639558Y-115339640D01*
X70751811Y-115534069D01*
X71910197Y-115844457D01*
X71915373Y-115825138D01*
X72160719Y-115890879D01*
X72155543Y-115910197D01*
X72174862Y-115915373D01*
X72109121Y-116160719D01*
X72089803Y-116155543D01*
X71779414Y-117313929D01*
X71891667Y-117508357D01*
X72558696Y-117687087D01*
X72809153Y-117654114D01*
X72948599Y-117573605D01*
X72948599Y-127506782D01*
X72991135Y-127720626D01*
X73079345Y-127852640D01*
X73112268Y-127901913D01*
X74960536Y-129750182D01*
X75141824Y-129871315D01*
X75355667Y-129913850D01*
X82577596Y-129913850D01*
X82791440Y-129871314D01*
X82972727Y-129750181D01*
X88448137Y-124274771D01*
X88522340Y-124163719D01*
X88569270Y-124093484D01*
X88574757Y-124065899D01*
X88588006Y-124065899D01*
X88748021Y-124035790D01*
X88894986Y-123941221D01*
X88993579Y-123796925D01*
X89028265Y-123625640D01*
X89028265Y-121825640D01*
X88998156Y-121665625D01*
X88903587Y-121518660D01*
X88759291Y-121420067D01*
X88588006Y-121385381D01*
X87518006Y-121385381D01*
X87357991Y-121415490D01*
X87233849Y-121495373D01*
X87152984Y-121441341D01*
X86783006Y-121367748D01*
X86413028Y-121441341D01*
X86307655Y-121511749D01*
X86250518Y-121443523D01*
X85820389Y-121231740D01*
X85640006Y-121357396D01*
X85640006Y-122598640D01*
X85660006Y-122598640D01*
X85660006Y-122852640D01*
X85640006Y-122852640D01*
X85640006Y-124093884D01*
X85720945Y-124150267D01*
X81477371Y-128393841D01*
X80028265Y-128393841D01*
X80028265Y-127172815D01*
X83495826Y-123705254D01*
X83559375Y-123800363D01*
X83873028Y-124009939D01*
X84243006Y-124083532D01*
X84612984Y-124009939D01*
X84718357Y-123939531D01*
X84775494Y-124007757D01*
X85205623Y-124219540D01*
X85386006Y-124093884D01*
X85386006Y-122852640D01*
X85366006Y-122852640D01*
X85366006Y-122598640D01*
X85386006Y-122598640D01*
X85386006Y-121357396D01*
X85205623Y-121231740D01*
X84775494Y-121443523D01*
X84718357Y-121511749D01*
X84612984Y-121441341D01*
X84243006Y-121367748D01*
X83873028Y-121441341D01*
X83559375Y-121650917D01*
X83349799Y-121964570D01*
X83276206Y-122334548D01*
X83276206Y-122350006D01*
X79240831Y-126385381D01*
X78760699Y-126385381D01*
X87863640Y-117282440D01*
X89803006Y-117282440D01*
X90016084Y-117240056D01*
X90196723Y-117119357D01*
X90317422Y-116938718D01*
X90359806Y-116725640D01*
X90359806Y-113456274D01*
X90689080Y-113127000D01*
X93000000Y-113127000D01*
X93049410Y-113116994D01*
X93091035Y-113088553D01*
X93118315Y-113046159D01*
X93127000Y-113000000D01*
X93127000Y-111873691D01*
X98115000Y-111873691D01*
X98115000Y-112714250D01*
X98273750Y-112873000D01*
X99873000Y-112873000D01*
X99873000Y-111523750D01*
X100127000Y-111523750D01*
X100127000Y-112873000D01*
X101726250Y-112873000D01*
X101885000Y-112714250D01*
X101885000Y-111873691D01*
X101788327Y-111640302D01*
X101609699Y-111461673D01*
X101376310Y-111365000D01*
X100285750Y-111365000D01*
X100127000Y-111523750D01*
X99873000Y-111523750D01*
X99714250Y-111365000D01*
X98623690Y-111365000D01*
X98390301Y-111461673D01*
X98211673Y-111640302D01*
X98115000Y-111873691D01*
X93127000Y-111873691D01*
X93127000Y-111127000D01*
X106873000Y-111127000D01*
X106873000Y-113000000D01*
G36*
X76640006Y-127598640D02*
X76660006Y-127598640D01*
X76660006Y-127852640D01*
X76640006Y-127852640D01*
X76640006Y-127872640D01*
X76386006Y-127872640D01*
X76386006Y-127852640D01*
X76366006Y-127852640D01*
X76366006Y-127598640D01*
X76386006Y-127598640D01*
X76386006Y-127578640D01*
X76640006Y-127578640D01*
X76640006Y-127598640D01*
X76640006Y-127598640D01*
G37*
X76640006Y-127598640D02*
X76660006Y-127598640D01*
X76660006Y-127852640D01*
X76640006Y-127852640D01*
X76640006Y-127872640D01*
X76386006Y-127872640D01*
X76386006Y-127852640D01*
X76366006Y-127852640D01*
X76366006Y-127598640D01*
X76386006Y-127598640D01*
X76386006Y-127578640D01*
X76640006Y-127578640D01*
X76640006Y-127598640D01*
M02*
