G04 #@! TF.FileFunction,Legend,Top*
%FSLAX46Y46*%
G04 Gerber Fmt 4.6, Leading zero omitted, Abs format (unit mm)*
G04 Created by KiCad (PCBNEW 4.0.7) date Monday, September 03, 2018 'PMt' 09:38:33 PM*
%MOMM*%
%LPD*%
G01*
G04 APERTURE LIST*
%ADD10C,0.100000*%
%ADD11C,0.200000*%
%ADD12C,0.010000*%
%ADD13C,0.120000*%
%ADD14C,0.150000*%
G04 APERTURE END LIST*
D10*
D11*
X122738096Y-111000000D02*
X122642858Y-110952381D01*
X122500001Y-110952381D01*
X122357143Y-111000000D01*
X122261905Y-111095238D01*
X122214286Y-111190476D01*
X122166667Y-111380952D01*
X122166667Y-111523810D01*
X122214286Y-111714286D01*
X122261905Y-111809524D01*
X122357143Y-111904762D01*
X122500001Y-111952381D01*
X122595239Y-111952381D01*
X122738096Y-111904762D01*
X122785715Y-111857143D01*
X122785715Y-111523810D01*
X122595239Y-111523810D01*
X123214286Y-111952381D02*
X123214286Y-110952381D01*
X123785715Y-111952381D01*
X123785715Y-110952381D01*
X124261905Y-111952381D02*
X124261905Y-110952381D01*
X124500000Y-110952381D01*
X124642858Y-111000000D01*
X124738096Y-111095238D01*
X124785715Y-111190476D01*
X124833334Y-111380952D01*
X124833334Y-111523810D01*
X124785715Y-111714286D01*
X124738096Y-111809524D01*
X124642858Y-111904762D01*
X124500000Y-111952381D01*
X124261905Y-111952381D01*
X123476191Y-114452381D02*
X123476191Y-113452381D01*
X123714286Y-113452381D01*
X123857144Y-113500000D01*
X123952382Y-113595238D01*
X124000001Y-113690476D01*
X124047620Y-113880952D01*
X124047620Y-114023810D01*
X124000001Y-114214286D01*
X123952382Y-114309524D01*
X123857144Y-114404762D01*
X123714286Y-114452381D01*
X123476191Y-114452381D01*
X124476191Y-114452381D02*
X124476191Y-113452381D01*
X124952381Y-114452381D02*
X124952381Y-113452381D01*
X125523810Y-114452381D01*
X125523810Y-113452381D01*
X125309524Y-115952381D02*
X124833333Y-115952381D01*
X124785714Y-116428571D01*
X124833333Y-116380952D01*
X124928571Y-116333333D01*
X125166667Y-116333333D01*
X125261905Y-116380952D01*
X125309524Y-116428571D01*
X125357143Y-116523810D01*
X125357143Y-116761905D01*
X125309524Y-116857143D01*
X125261905Y-116904762D01*
X125166667Y-116952381D01*
X124928571Y-116952381D01*
X124833333Y-116904762D01*
X124785714Y-116857143D01*
X125642857Y-115952381D02*
X125976190Y-116952381D01*
X126309524Y-115952381D01*
X74309524Y-115952381D02*
X73833333Y-115952381D01*
X73785714Y-116428571D01*
X73833333Y-116380952D01*
X73928571Y-116333333D01*
X74166667Y-116333333D01*
X74261905Y-116380952D01*
X74309524Y-116428571D01*
X74357143Y-116523810D01*
X74357143Y-116761905D01*
X74309524Y-116857143D01*
X74261905Y-116904762D01*
X74166667Y-116952381D01*
X73928571Y-116952381D01*
X73833333Y-116904762D01*
X73785714Y-116857143D01*
X74642857Y-115952381D02*
X74976190Y-116952381D01*
X75309524Y-115952381D01*
X74309524Y-114452381D02*
X74309524Y-113452381D01*
X74547619Y-113452381D01*
X74690477Y-113500000D01*
X74785715Y-113595238D01*
X74833334Y-113690476D01*
X74880953Y-113880952D01*
X74880953Y-114023810D01*
X74833334Y-114214286D01*
X74785715Y-114309524D01*
X74690477Y-114404762D01*
X74547619Y-114452381D01*
X74309524Y-114452381D01*
X75500000Y-113452381D02*
X75690477Y-113452381D01*
X75785715Y-113500000D01*
X75880953Y-113595238D01*
X75928572Y-113785714D01*
X75928572Y-114119048D01*
X75880953Y-114309524D01*
X75785715Y-114404762D01*
X75690477Y-114452381D01*
X75500000Y-114452381D01*
X75404762Y-114404762D01*
X75309524Y-114309524D01*
X75261905Y-114119048D01*
X75261905Y-113785714D01*
X75309524Y-113595238D01*
X75404762Y-113500000D01*
X75500000Y-113452381D01*
X76357143Y-113452381D02*
X76357143Y-114261905D01*
X76404762Y-114357143D01*
X76452381Y-114404762D01*
X76547619Y-114452381D01*
X76738096Y-114452381D01*
X76833334Y-114404762D01*
X76880953Y-114357143D01*
X76928572Y-114261905D01*
X76928572Y-113452381D01*
X77261905Y-113452381D02*
X77833334Y-113452381D01*
X77547619Y-114452381D02*
X77547619Y-113452381D01*
X75738096Y-111000000D02*
X75642858Y-110952381D01*
X75500001Y-110952381D01*
X75357143Y-111000000D01*
X75261905Y-111095238D01*
X75214286Y-111190476D01*
X75166667Y-111380952D01*
X75166667Y-111523810D01*
X75214286Y-111714286D01*
X75261905Y-111809524D01*
X75357143Y-111904762D01*
X75500001Y-111952381D01*
X75595239Y-111952381D01*
X75738096Y-111904762D01*
X75785715Y-111857143D01*
X75785715Y-111523810D01*
X75595239Y-111523810D01*
X76214286Y-111952381D02*
X76214286Y-110952381D01*
X76785715Y-111952381D01*
X76785715Y-110952381D01*
X77261905Y-111952381D02*
X77261905Y-110952381D01*
X77500000Y-110952381D01*
X77642858Y-111000000D01*
X77738096Y-111095238D01*
X77785715Y-111190476D01*
X77833334Y-111380952D01*
X77833334Y-111523810D01*
X77785715Y-111714286D01*
X77738096Y-111809524D01*
X77642858Y-111904762D01*
X77500000Y-111952381D01*
X77261905Y-111952381D01*
X77280736Y-84843488D02*
X77347057Y-84831794D01*
X77452384Y-84847413D01*
X77647421Y-84983980D01*
X77698122Y-85077613D01*
X77709816Y-85143933D01*
X77694197Y-85249261D01*
X77639571Y-85327275D01*
X77518625Y-85416984D01*
X76722779Y-85557313D01*
X77229874Y-85912384D01*
X78310544Y-85448303D02*
X78388559Y-85502930D01*
X78439260Y-85596563D01*
X78450954Y-85662884D01*
X78435335Y-85768211D01*
X78365090Y-85951553D01*
X78228523Y-86146590D01*
X78080264Y-86275306D01*
X77986630Y-86326007D01*
X77920310Y-86337701D01*
X77814982Y-86322082D01*
X77736967Y-86267455D01*
X77686266Y-86173822D01*
X77674572Y-86107501D01*
X77690191Y-86002174D01*
X77760436Y-85818832D01*
X77897002Y-85623795D01*
X78045262Y-85495079D01*
X78138896Y-85444378D01*
X78205216Y-85432684D01*
X78310544Y-85448303D01*
X78790163Y-87004911D02*
X78322076Y-86677153D01*
X78556119Y-86841031D02*
X79129696Y-86021879D01*
X78969742Y-86084275D01*
X78837101Y-86107663D01*
X78731774Y-86092044D01*
X79586008Y-86864581D02*
X79535307Y-86770948D01*
X79523613Y-86704627D01*
X79539232Y-86599300D01*
X79566545Y-86560293D01*
X79660178Y-86509591D01*
X79726499Y-86497897D01*
X79831826Y-86513516D01*
X79987856Y-86622770D01*
X80038557Y-86716403D01*
X80050251Y-86782723D01*
X80034632Y-86888051D01*
X80007319Y-86927058D01*
X79913685Y-86977759D01*
X79847365Y-86989453D01*
X79742037Y-86973834D01*
X79586008Y-86864581D01*
X79480680Y-86848962D01*
X79414360Y-86860656D01*
X79320726Y-86911358D01*
X79211473Y-87067387D01*
X79195854Y-87172715D01*
X79207548Y-87239035D01*
X79258250Y-87332668D01*
X79414279Y-87441922D01*
X79519607Y-87457541D01*
X79585927Y-87445847D01*
X79679561Y-87395145D01*
X79788813Y-87239117D01*
X79804433Y-87133788D01*
X79792739Y-87067468D01*
X79742037Y-86973834D01*
X80139878Y-87484935D02*
X80763994Y-87921946D01*
X81665166Y-87797235D02*
X81743181Y-87851862D01*
X81793883Y-87945495D01*
X81805577Y-88011816D01*
X81789958Y-88117143D01*
X81719712Y-88300485D01*
X81583146Y-88495522D01*
X81434886Y-88624238D01*
X81341253Y-88674939D01*
X81274932Y-88686633D01*
X81169605Y-88671014D01*
X81091590Y-88616387D01*
X81040888Y-88522754D01*
X81029194Y-88456433D01*
X81044813Y-88351106D01*
X81115059Y-88167764D01*
X81251625Y-87972727D01*
X81399885Y-87844011D01*
X81493518Y-87793310D01*
X81559839Y-87781616D01*
X81665166Y-87797235D01*
X81754713Y-89080711D02*
X81910742Y-89189963D01*
X82016070Y-89205583D01*
X82082390Y-89193889D01*
X82242344Y-89131494D01*
X82390604Y-89002778D01*
X82609110Y-88690720D01*
X82624729Y-88585392D01*
X82613035Y-88519072D01*
X82562333Y-88425438D01*
X82406304Y-88316185D01*
X82300976Y-88300566D01*
X82234656Y-88312260D01*
X82141022Y-88362961D01*
X82004457Y-88557997D01*
X81988838Y-88663325D01*
X82000531Y-88729646D01*
X82051232Y-88823280D01*
X82207262Y-88932533D01*
X82312590Y-88948152D01*
X82378911Y-88936457D01*
X82472544Y-88885756D01*
X82714356Y-89287603D02*
X83338472Y-89724614D01*
X84239644Y-89599904D02*
X84317659Y-89654531D01*
X84368360Y-89748164D01*
X84380054Y-89814484D01*
X84364435Y-89919812D01*
X84294190Y-90103154D01*
X84157624Y-90298191D01*
X84009364Y-90426906D01*
X83915731Y-90477608D01*
X83849410Y-90489302D01*
X83744083Y-90473683D01*
X83666067Y-90419056D01*
X83615366Y-90325422D01*
X83603672Y-90259102D01*
X83619291Y-90153774D01*
X83689537Y-89970432D01*
X83826103Y-89775396D01*
X83974363Y-89646680D01*
X84067996Y-89595979D01*
X84134316Y-89584285D01*
X84239644Y-89599904D01*
X84785746Y-89982288D02*
X85292840Y-90337360D01*
X84801284Y-90458225D01*
X84918306Y-90540165D01*
X84969007Y-90633798D01*
X84980701Y-90700118D01*
X84965082Y-90805447D01*
X84828516Y-91000483D01*
X84734883Y-91051184D01*
X84668562Y-91062878D01*
X84563235Y-91047259D01*
X84329191Y-90883380D01*
X84278489Y-90789746D01*
X84266795Y-90723426D01*
X110142857Y-128602381D02*
X110142857Y-127602381D01*
X110142857Y-128554762D02*
X110047619Y-128602381D01*
X109857142Y-128602381D01*
X109761904Y-128554762D01*
X109714285Y-128507143D01*
X109666666Y-128411905D01*
X109666666Y-128126190D01*
X109714285Y-128030952D01*
X109761904Y-127983333D01*
X109857142Y-127935714D01*
X110047619Y-127935714D01*
X110142857Y-127983333D01*
X111000000Y-128554762D02*
X110904762Y-128602381D01*
X110714285Y-128602381D01*
X110619047Y-128554762D01*
X110571428Y-128459524D01*
X110571428Y-128078571D01*
X110619047Y-127983333D01*
X110714285Y-127935714D01*
X110904762Y-127935714D01*
X111000000Y-127983333D01*
X111047619Y-128078571D01*
X111047619Y-128173810D01*
X110571428Y-128269048D01*
X111428571Y-128554762D02*
X111523809Y-128602381D01*
X111714285Y-128602381D01*
X111809524Y-128554762D01*
X111857143Y-128459524D01*
X111857143Y-128411905D01*
X111809524Y-128316667D01*
X111714285Y-128269048D01*
X111571428Y-128269048D01*
X111476190Y-128221429D01*
X111428571Y-128126190D01*
X111428571Y-128078571D01*
X111476190Y-127983333D01*
X111571428Y-127935714D01*
X111714285Y-127935714D01*
X111809524Y-127983333D01*
X112285714Y-128602381D02*
X112285714Y-127935714D01*
X112285714Y-127602381D02*
X112238095Y-127650000D01*
X112285714Y-127697619D01*
X112333333Y-127650000D01*
X112285714Y-127602381D01*
X112285714Y-127697619D01*
X113190476Y-127935714D02*
X113190476Y-128745238D01*
X113142857Y-128840476D01*
X113095238Y-128888095D01*
X112999999Y-128935714D01*
X112857142Y-128935714D01*
X112761904Y-128888095D01*
X113190476Y-128554762D02*
X113095238Y-128602381D01*
X112904761Y-128602381D01*
X112809523Y-128554762D01*
X112761904Y-128507143D01*
X112714285Y-128411905D01*
X112714285Y-128126190D01*
X112761904Y-128030952D01*
X112809523Y-127983333D01*
X112904761Y-127935714D01*
X113095238Y-127935714D01*
X113190476Y-127983333D01*
X113666666Y-127935714D02*
X113666666Y-128602381D01*
X113666666Y-128030952D02*
X113714285Y-127983333D01*
X113809523Y-127935714D01*
X113952381Y-127935714D01*
X114047619Y-127983333D01*
X114095238Y-128078571D01*
X114095238Y-128602381D01*
X114952381Y-128554762D02*
X114857143Y-128602381D01*
X114666666Y-128602381D01*
X114571428Y-128554762D01*
X114523809Y-128459524D01*
X114523809Y-128078571D01*
X114571428Y-127983333D01*
X114666666Y-127935714D01*
X114857143Y-127935714D01*
X114952381Y-127983333D01*
X115000000Y-128078571D01*
X115000000Y-128173810D01*
X114523809Y-128269048D01*
X115857143Y-128602381D02*
X115857143Y-127602381D01*
X115857143Y-128554762D02*
X115761905Y-128602381D01*
X115571428Y-128602381D01*
X115476190Y-128554762D01*
X115428571Y-128507143D01*
X115380952Y-128411905D01*
X115380952Y-128126190D01*
X115428571Y-128030952D01*
X115476190Y-127983333D01*
X115571428Y-127935714D01*
X115761905Y-127935714D01*
X115857143Y-127983333D01*
X117095238Y-128602381D02*
X117095238Y-127602381D01*
X117095238Y-127983333D02*
X117190476Y-127935714D01*
X117380953Y-127935714D01*
X117476191Y-127983333D01*
X117523810Y-128030952D01*
X117571429Y-128126190D01*
X117571429Y-128411905D01*
X117523810Y-128507143D01*
X117476191Y-128554762D01*
X117380953Y-128602381D01*
X117190476Y-128602381D01*
X117095238Y-128554762D01*
X117904762Y-127935714D02*
X118142857Y-128602381D01*
X118380953Y-127935714D02*
X118142857Y-128602381D01*
X118047619Y-128840476D01*
X118000000Y-128888095D01*
X117904762Y-128935714D01*
X108095237Y-130302381D02*
X108095237Y-129302381D01*
X108476190Y-129302381D01*
X108571428Y-129350000D01*
X108619047Y-129397619D01*
X108666666Y-129492857D01*
X108666666Y-129635714D01*
X108619047Y-129730952D01*
X108571428Y-129778571D01*
X108476190Y-129826190D01*
X108095237Y-129826190D01*
X109523809Y-130302381D02*
X109523809Y-129778571D01*
X109476190Y-129683333D01*
X109380952Y-129635714D01*
X109190475Y-129635714D01*
X109095237Y-129683333D01*
X109523809Y-130254762D02*
X109428571Y-130302381D01*
X109190475Y-130302381D01*
X109095237Y-130254762D01*
X109047618Y-130159524D01*
X109047618Y-130064286D01*
X109095237Y-129969048D01*
X109190475Y-129921429D01*
X109428571Y-129921429D01*
X109523809Y-129873810D01*
X109857142Y-129635714D02*
X110238094Y-129635714D01*
X109999999Y-129302381D02*
X109999999Y-130159524D01*
X110047618Y-130254762D01*
X110142856Y-130302381D01*
X110238094Y-130302381D01*
X110571428Y-130302381D02*
X110571428Y-129635714D01*
X110571428Y-129826190D02*
X110619047Y-129730952D01*
X110666666Y-129683333D01*
X110761904Y-129635714D01*
X110857143Y-129635714D01*
X111190476Y-130302381D02*
X111190476Y-129635714D01*
X111190476Y-129302381D02*
X111142857Y-129350000D01*
X111190476Y-129397619D01*
X111238095Y-129350000D01*
X111190476Y-129302381D01*
X111190476Y-129397619D01*
X112095238Y-130254762D02*
X112000000Y-130302381D01*
X111809523Y-130302381D01*
X111714285Y-130254762D01*
X111666666Y-130207143D01*
X111619047Y-130111905D01*
X111619047Y-129826190D01*
X111666666Y-129730952D01*
X111714285Y-129683333D01*
X111809523Y-129635714D01*
X112000000Y-129635714D01*
X112095238Y-129683333D01*
X112523809Y-130302381D02*
X112523809Y-129302381D01*
X112619047Y-129921429D02*
X112904762Y-130302381D01*
X112904762Y-129635714D02*
X112523809Y-130016667D01*
X114095238Y-130302381D02*
X114095238Y-129302381D01*
X114476191Y-129302381D01*
X114571429Y-129350000D01*
X114619048Y-129397619D01*
X114666667Y-129492857D01*
X114666667Y-129635714D01*
X114619048Y-129730952D01*
X114571429Y-129778571D01*
X114476191Y-129826190D01*
X114095238Y-129826190D01*
X115476191Y-130254762D02*
X115380953Y-130302381D01*
X115190476Y-130302381D01*
X115095238Y-130254762D01*
X115047619Y-130159524D01*
X115047619Y-129778571D01*
X115095238Y-129683333D01*
X115190476Y-129635714D01*
X115380953Y-129635714D01*
X115476191Y-129683333D01*
X115523810Y-129778571D01*
X115523810Y-129873810D01*
X115047619Y-129969048D01*
X116095238Y-130302381D02*
X116000000Y-130254762D01*
X115952381Y-130159524D01*
X115952381Y-129302381D01*
X116619048Y-130302381D02*
X116523810Y-130254762D01*
X116476191Y-130159524D01*
X116476191Y-129302381D01*
X117380954Y-130254762D02*
X117285716Y-130302381D01*
X117095239Y-130302381D01*
X117000001Y-130254762D01*
X116952382Y-130159524D01*
X116952382Y-129778571D01*
X117000001Y-129683333D01*
X117095239Y-129635714D01*
X117285716Y-129635714D01*
X117380954Y-129683333D01*
X117428573Y-129778571D01*
X117428573Y-129873810D01*
X116952382Y-129969048D01*
X117714287Y-129635714D02*
X118095239Y-129635714D01*
X117857144Y-129302381D02*
X117857144Y-130159524D01*
X117904763Y-130254762D01*
X118000001Y-130302381D01*
X118095239Y-130302381D01*
X118428573Y-130302381D02*
X118428573Y-129635714D01*
X118428573Y-129302381D02*
X118380954Y-129350000D01*
X118428573Y-129397619D01*
X118476192Y-129350000D01*
X118428573Y-129302381D01*
X118428573Y-129397619D01*
X119285716Y-130254762D02*
X119190478Y-130302381D01*
X119000001Y-130302381D01*
X118904763Y-130254762D01*
X118857144Y-130159524D01*
X118857144Y-129778571D01*
X118904763Y-129683333D01*
X119000001Y-129635714D01*
X119190478Y-129635714D01*
X119285716Y-129683333D01*
X119333335Y-129778571D01*
X119333335Y-129873810D01*
X118857144Y-129969048D01*
X119761906Y-130302381D02*
X119761906Y-129635714D01*
X119761906Y-129826190D02*
X119809525Y-129730952D01*
X119857144Y-129683333D01*
X119952382Y-129635714D01*
X120047621Y-129635714D01*
X110997012Y-94657045D02*
X110423435Y-93837893D01*
X111348078Y-94411227D02*
X111047632Y-93982147D01*
X110953999Y-93931445D01*
X110848671Y-93947064D01*
X110731649Y-94029004D01*
X110680948Y-94122638D01*
X110669254Y-94188958D01*
X111238743Y-93673933D02*
X111550801Y-93455428D01*
X111164573Y-93318943D02*
X111656210Y-94021074D01*
X111749844Y-94071775D01*
X111855171Y-94056156D01*
X111933186Y-94001530D01*
X111706831Y-93346175D02*
X112018888Y-93127670D01*
X111632660Y-92991185D02*
X112124297Y-93693316D01*
X112217931Y-93744017D01*
X112323258Y-93728398D01*
X112401273Y-93673771D01*
X112291940Y-92936477D02*
X112865516Y-93755629D01*
X112319253Y-92975484D02*
X112369954Y-92881851D01*
X112525984Y-92772598D01*
X112631311Y-92756979D01*
X112697631Y-92768673D01*
X112791265Y-92819374D01*
X112955144Y-93053418D01*
X112970763Y-93158746D01*
X112959069Y-93225066D01*
X112908368Y-93318700D01*
X112752338Y-93427953D01*
X112647011Y-93443572D01*
X113349141Y-92951935D02*
X113454469Y-92936316D01*
X113610498Y-92827063D01*
X113661200Y-92733429D01*
X113645581Y-92628101D01*
X113618268Y-92589094D01*
X113524634Y-92538393D01*
X113419306Y-92554013D01*
X113302284Y-92635952D01*
X113196957Y-92651571D01*
X113103323Y-92600869D01*
X113076009Y-92561862D01*
X113060390Y-92456534D01*
X113111092Y-92362901D01*
X113228113Y-92280961D01*
X113333442Y-92265342D01*
X114023959Y-92421290D02*
X114090279Y-92432985D01*
X114078585Y-92499305D01*
X114012265Y-92487611D01*
X114023959Y-92421290D01*
X114078585Y-92499305D01*
X113723514Y-91992210D02*
X113789834Y-92003904D01*
X113778140Y-92070225D01*
X113711820Y-92058531D01*
X113723514Y-91992210D01*
X113778140Y-92070225D01*
X114452876Y-90958317D02*
X114488201Y-92503149D01*
X115311035Y-90357427D02*
X115346360Y-91902259D01*
X116153657Y-90232474D02*
X116617980Y-90895597D01*
X116633600Y-91000925D01*
X116621905Y-91067245D01*
X116571203Y-91160879D01*
X116454182Y-91242818D01*
X116348854Y-91258438D01*
X116508728Y-90739568D02*
X116458027Y-90833202D01*
X116301997Y-90942455D01*
X116196669Y-90958074D01*
X116130349Y-90946380D01*
X116036716Y-90895679D01*
X115872836Y-90661635D01*
X115857217Y-90556307D01*
X115868911Y-90489987D01*
X115919613Y-90396353D01*
X116075642Y-90287100D01*
X116180970Y-90271481D01*
X116926113Y-90505444D02*
X116543729Y-89959343D01*
X116352537Y-89686292D02*
X116340843Y-89752612D01*
X116407163Y-89764307D01*
X116418857Y-89697986D01*
X116352537Y-89686292D01*
X116407163Y-89764307D01*
X116816779Y-89768151D02*
X117128837Y-89549646D01*
X116742609Y-89413161D02*
X117234246Y-90115291D01*
X117327879Y-90165992D01*
X117433207Y-90150373D01*
X117511221Y-90095747D01*
X117784272Y-89904555D02*
X117210696Y-89085403D01*
X118135338Y-89658736D02*
X117834893Y-89229656D01*
X117741259Y-89178955D01*
X117635932Y-89194574D01*
X117518909Y-89276514D01*
X117468208Y-89370147D01*
X117456514Y-89436467D01*
X118494091Y-88593684D02*
X118876476Y-89139786D01*
X118143025Y-88839503D02*
X118443471Y-89268583D01*
X118537104Y-89319284D01*
X118642432Y-89303665D01*
X118759454Y-89221725D01*
X118810155Y-89128092D01*
X118821849Y-89061771D01*
X119266548Y-88866654D02*
X118692971Y-88047502D01*
X118911476Y-88359560D02*
X118962178Y-88265926D01*
X119118207Y-88156673D01*
X119223535Y-88141054D01*
X119289855Y-88152748D01*
X119383488Y-88203450D01*
X119547368Y-88437494D01*
X119562987Y-88542821D01*
X119551293Y-88609141D01*
X119500592Y-88702775D01*
X119344562Y-88812028D01*
X119239234Y-88827647D01*
X119953059Y-88269690D02*
X120019379Y-88281384D01*
X120007685Y-88347704D01*
X119941365Y-88336010D01*
X119953059Y-88269690D01*
X120007685Y-88347704D01*
X120721510Y-87789747D02*
X120670808Y-87883380D01*
X120514779Y-87992633D01*
X120409451Y-88008252D01*
X120343131Y-87996558D01*
X120249498Y-87945857D01*
X120085618Y-87711813D01*
X120069999Y-87606486D01*
X120081693Y-87540165D01*
X120132394Y-87446532D01*
X120288424Y-87337279D01*
X120393752Y-87321660D01*
X121216909Y-87500996D02*
X121111582Y-87516615D01*
X121045261Y-87504921D01*
X120951628Y-87454220D01*
X120787749Y-87220176D01*
X120772129Y-87114848D01*
X120783824Y-87048528D01*
X120834525Y-86954895D01*
X120951547Y-86872955D01*
X121056875Y-86857336D01*
X121123195Y-86869030D01*
X121216829Y-86919731D01*
X121380708Y-87153775D01*
X121396327Y-87259103D01*
X121384633Y-87325423D01*
X121333932Y-87419056D01*
X121216909Y-87500996D01*
X121841025Y-87063986D02*
X121458641Y-86517884D01*
X121513267Y-86595898D02*
X121524961Y-86529578D01*
X121575662Y-86435945D01*
X121692685Y-86354005D01*
X121798012Y-86338385D01*
X121891646Y-86389087D01*
X122192091Y-86818167D01*
X121891646Y-86389087D02*
X121876027Y-86283759D01*
X121926728Y-86190126D01*
X122043750Y-86108186D01*
X122149077Y-86092567D01*
X122242711Y-86143269D01*
X122543156Y-86572349D01*
X122917447Y-85031360D02*
X122952772Y-86576193D01*
X123409003Y-85152226D02*
X123982579Y-85971378D01*
X123436316Y-85191233D02*
X123487017Y-85097600D01*
X123643047Y-84988347D01*
X123748374Y-84972728D01*
X123814694Y-84984422D01*
X123908328Y-85035123D01*
X124072207Y-85269167D01*
X124087826Y-85374494D01*
X124076132Y-85440815D01*
X124025431Y-85534448D01*
X123869401Y-85643701D01*
X123764074Y-85659320D01*
X124150140Y-84633276D02*
X124723717Y-85452428D01*
X124177453Y-84672283D02*
X124228155Y-84578650D01*
X124384184Y-84469396D01*
X124489512Y-84453777D01*
X124555832Y-84465471D01*
X124649466Y-84516173D01*
X124813345Y-84750217D01*
X124828964Y-84855544D01*
X124817270Y-84921865D01*
X124766569Y-85015498D01*
X124610539Y-85124751D01*
X124505212Y-85140370D01*
X125558408Y-84402914D02*
X125507706Y-84496548D01*
X125351677Y-84605801D01*
X125246349Y-84621420D01*
X125152716Y-84570719D01*
X124934210Y-84258660D01*
X124918591Y-84153333D01*
X124969292Y-84059699D01*
X125125322Y-83950446D01*
X125230649Y-83934827D01*
X125324283Y-83985528D01*
X125378910Y-84063544D01*
X125043463Y-84414690D01*
X126092814Y-84086851D02*
X125987487Y-84102470D01*
X125893853Y-84051769D01*
X125402216Y-83349638D01*
X126521894Y-83786406D02*
X126416567Y-83802025D01*
X126322933Y-83751324D01*
X125831296Y-83049193D01*
X127118698Y-83310387D02*
X127067997Y-83404021D01*
X126911967Y-83513274D01*
X126806640Y-83528893D01*
X126713006Y-83478192D01*
X126494501Y-83166133D01*
X126478881Y-83060806D01*
X126529583Y-82967172D01*
X126685612Y-82857919D01*
X126790940Y-82842300D01*
X126884573Y-82893001D01*
X126939200Y-82971016D01*
X126603754Y-83322163D01*
X127036677Y-82612101D02*
X127348735Y-82393596D01*
X126962507Y-82257111D02*
X127454144Y-82959241D01*
X127547777Y-83009943D01*
X127653105Y-82994324D01*
X127731119Y-82939697D01*
X128004170Y-82748505D02*
X127621786Y-82202403D01*
X127430594Y-81929353D02*
X127418900Y-81995673D01*
X127485220Y-82007367D01*
X127496914Y-81941047D01*
X127430594Y-81929353D01*
X127485220Y-82007367D01*
X128378462Y-81207517D02*
X128413787Y-82752349D01*
X129225008Y-81254211D02*
X129369343Y-81211279D01*
X129435664Y-81222974D01*
X129529297Y-81273675D01*
X129611236Y-81390697D01*
X129626856Y-81496024D01*
X129615161Y-81562345D01*
X129564460Y-81655978D01*
X129252402Y-81874484D01*
X128678825Y-81055332D01*
X128951877Y-80864139D01*
X129057204Y-80848520D01*
X129123524Y-80860214D01*
X129217158Y-80910916D01*
X129271784Y-80988930D01*
X129287403Y-81094258D01*
X129275709Y-81160578D01*
X129225008Y-81254211D01*
X128951957Y-81445404D01*
X130040235Y-80508987D02*
X130422619Y-81055089D01*
X129689169Y-80754806D02*
X129989614Y-81183886D01*
X130083248Y-81234587D01*
X130188575Y-81218968D01*
X130305598Y-81137028D01*
X130356299Y-81043395D01*
X130367993Y-80977074D01*
X130313285Y-80317795D02*
X130625343Y-80099290D01*
X130239115Y-79962805D02*
X130730752Y-80664936D01*
X130824386Y-80715637D01*
X130929713Y-80700018D01*
X131007727Y-80645392D01*
X130781373Y-79990037D02*
X131093430Y-79771532D01*
X130707202Y-79635047D02*
X131198839Y-80337178D01*
X131292473Y-80387879D01*
X131397800Y-80372260D01*
X131475815Y-80317633D01*
X132033611Y-79868928D02*
X131982910Y-79962562D01*
X131826880Y-80071815D01*
X131721553Y-80087434D01*
X131627919Y-80036732D01*
X131409414Y-79724674D01*
X131393795Y-79619346D01*
X131444496Y-79525713D01*
X131600525Y-79416460D01*
X131705853Y-79400841D01*
X131799486Y-79451542D01*
X131854113Y-79529557D01*
X131518667Y-79880704D01*
X132450996Y-79634804D02*
X132068612Y-79088702D01*
X132177864Y-79244731D02*
X132162245Y-79139404D01*
X132173939Y-79073083D01*
X132224641Y-78979450D01*
X132302656Y-78924823D01*
X132458685Y-78815570D02*
X132770742Y-78597065D01*
X132958091Y-79279733D02*
X132466454Y-78577602D01*
X132450835Y-78472275D01*
X132501536Y-78378641D01*
X132579550Y-78324015D01*
X133543200Y-78870035D02*
X133437872Y-78885654D01*
X133344239Y-78834953D01*
X132852602Y-78132822D01*
X133394859Y-78160054D02*
X133972280Y-78569590D01*
X133784932Y-77886922D02*
X133972280Y-78569590D01*
X134030831Y-78819252D01*
X134019137Y-78885572D01*
X133968436Y-78979206D01*
X134892835Y-77808746D02*
X134881141Y-77875066D01*
X134791433Y-77996013D01*
X134713418Y-78050639D01*
X134569083Y-78093572D01*
X134436442Y-78070184D01*
X134342808Y-78019482D01*
X134194549Y-77890767D01*
X134112609Y-77773744D01*
X134042363Y-77590402D01*
X134026744Y-77485075D01*
X134050132Y-77352434D01*
X134139842Y-77231487D01*
X134217856Y-77176861D01*
X134362191Y-77133929D01*
X134428511Y-77145623D01*
X135298526Y-77640942D02*
X134724950Y-76821790D01*
X135649592Y-77395123D02*
X135349147Y-76966043D01*
X135255513Y-76915342D01*
X135150186Y-76930961D01*
X135033163Y-77012901D01*
X134982462Y-77106534D01*
X134970768Y-77172855D01*
X136390729Y-76876173D02*
X136090284Y-76447093D01*
X135996651Y-76396392D01*
X135891323Y-76412011D01*
X135735294Y-76521264D01*
X135684592Y-76614897D01*
X136363416Y-76837166D02*
X136312715Y-76930799D01*
X136117678Y-77067366D01*
X136012351Y-77082985D01*
X135918717Y-77032283D01*
X135864091Y-76954269D01*
X135848472Y-76848941D01*
X135899173Y-76755308D01*
X136094210Y-76618742D01*
X136144911Y-76525108D01*
X136780801Y-76603042D02*
X136398417Y-76056940D01*
X136207225Y-75783890D02*
X136195531Y-75850210D01*
X136261851Y-75861904D01*
X136273545Y-75795584D01*
X136207225Y-75783890D01*
X136261851Y-75861904D01*
X136788489Y-75783809D02*
X137170873Y-76329910D01*
X136843115Y-75861823D02*
X136854809Y-75795503D01*
X136905511Y-75701869D01*
X137022533Y-75619929D01*
X137127861Y-75604310D01*
X137221494Y-75655012D01*
X137521939Y-76084092D01*
D12*
G36*
X85555814Y-127468931D02*
X85639635Y-127913555D01*
X85948920Y-128041053D01*
X86258206Y-128168551D01*
X86629246Y-127916246D01*
X86733157Y-127845996D01*
X86827087Y-127783272D01*
X86906652Y-127730938D01*
X86967470Y-127691857D01*
X87005157Y-127668893D01*
X87015421Y-127663942D01*
X87033910Y-127676676D01*
X87073420Y-127711882D01*
X87129522Y-127765062D01*
X87197787Y-127831718D01*
X87273786Y-127907354D01*
X87353092Y-127987472D01*
X87431275Y-128067574D01*
X87503907Y-128143164D01*
X87566559Y-128209745D01*
X87614803Y-128262818D01*
X87644210Y-128297887D01*
X87651241Y-128309623D01*
X87641123Y-128331260D01*
X87612759Y-128378662D01*
X87569129Y-128447193D01*
X87513218Y-128532215D01*
X87448006Y-128629093D01*
X87410219Y-128684350D01*
X87341343Y-128785248D01*
X87280140Y-128876299D01*
X87229578Y-128952970D01*
X87192628Y-129010728D01*
X87172258Y-129045043D01*
X87169197Y-129052254D01*
X87176136Y-129072748D01*
X87195051Y-129120513D01*
X87223087Y-129188832D01*
X87257391Y-129270989D01*
X87295109Y-129360270D01*
X87333387Y-129449958D01*
X87369370Y-129533338D01*
X87400206Y-129603694D01*
X87423039Y-129654310D01*
X87435017Y-129678471D01*
X87435724Y-129679422D01*
X87454531Y-129684036D01*
X87504618Y-129694328D01*
X87580793Y-129709287D01*
X87677865Y-129727901D01*
X87790643Y-129749159D01*
X87856442Y-129761418D01*
X87976950Y-129784362D01*
X88085797Y-129806195D01*
X88177476Y-129825722D01*
X88246481Y-129841748D01*
X88287304Y-129853079D01*
X88295511Y-129856674D01*
X88303548Y-129881006D01*
X88310033Y-129935959D01*
X88314970Y-130015108D01*
X88318364Y-130112026D01*
X88320218Y-130220287D01*
X88320538Y-130333465D01*
X88319327Y-130445135D01*
X88316590Y-130548868D01*
X88312331Y-130638241D01*
X88306555Y-130706826D01*
X88299267Y-130748197D01*
X88294895Y-130756810D01*
X88268764Y-130767133D01*
X88213393Y-130781892D01*
X88136107Y-130799352D01*
X88044230Y-130817780D01*
X88012158Y-130823741D01*
X87857524Y-130852066D01*
X87735375Y-130874876D01*
X87641673Y-130893080D01*
X87572384Y-130907583D01*
X87523471Y-130919292D01*
X87490897Y-130929115D01*
X87470628Y-130937956D01*
X87458626Y-130946724D01*
X87456947Y-130948457D01*
X87440184Y-130976371D01*
X87414614Y-131030695D01*
X87382788Y-131104777D01*
X87347260Y-131191965D01*
X87310583Y-131285608D01*
X87275311Y-131379052D01*
X87243996Y-131465647D01*
X87219193Y-131538740D01*
X87203454Y-131591678D01*
X87199332Y-131617811D01*
X87199676Y-131618726D01*
X87213641Y-131640086D01*
X87245322Y-131687084D01*
X87291391Y-131754827D01*
X87348518Y-131838423D01*
X87413373Y-131932982D01*
X87431843Y-131959854D01*
X87497699Y-132057275D01*
X87555650Y-132146163D01*
X87602538Y-132221412D01*
X87635207Y-132277920D01*
X87650500Y-132310581D01*
X87651241Y-132314593D01*
X87638392Y-132335684D01*
X87602888Y-132377464D01*
X87549293Y-132435445D01*
X87482171Y-132505135D01*
X87406087Y-132582045D01*
X87325604Y-132661683D01*
X87245287Y-132739561D01*
X87169699Y-132811186D01*
X87103405Y-132872070D01*
X87050969Y-132917721D01*
X87016955Y-132943650D01*
X87007545Y-132947883D01*
X86985643Y-132937912D01*
X86940800Y-132911020D01*
X86880321Y-132871736D01*
X86833789Y-132840117D01*
X86749475Y-132782098D01*
X86649626Y-132713784D01*
X86549473Y-132645579D01*
X86495627Y-132609075D01*
X86313371Y-132485800D01*
X86160381Y-132568520D01*
X86090682Y-132604759D01*
X86031414Y-132632926D01*
X85991311Y-132648991D01*
X85981103Y-132651226D01*
X85968829Y-132634722D01*
X85944613Y-132588082D01*
X85910263Y-132515609D01*
X85867588Y-132421606D01*
X85818394Y-132310374D01*
X85764490Y-132186215D01*
X85707684Y-132053432D01*
X85649782Y-131916327D01*
X85592593Y-131779202D01*
X85537924Y-131646358D01*
X85487584Y-131522098D01*
X85443380Y-131410725D01*
X85407119Y-131316539D01*
X85380609Y-131243844D01*
X85365658Y-131196941D01*
X85363254Y-131180833D01*
X85382311Y-131160286D01*
X85424036Y-131126933D01*
X85479706Y-131087702D01*
X85484378Y-131084599D01*
X85628264Y-130969423D01*
X85744283Y-130835053D01*
X85831430Y-130685784D01*
X85888699Y-130525913D01*
X85915086Y-130359737D01*
X85909585Y-130191552D01*
X85871190Y-130025655D01*
X85798895Y-129866342D01*
X85777626Y-129831487D01*
X85666996Y-129690737D01*
X85536302Y-129577714D01*
X85390064Y-129493003D01*
X85232808Y-129437194D01*
X85069057Y-129410874D01*
X84903333Y-129414630D01*
X84740162Y-129449050D01*
X84584065Y-129514723D01*
X84439567Y-129612235D01*
X84394869Y-129651813D01*
X84281112Y-129775703D01*
X84198218Y-129906124D01*
X84141356Y-130052315D01*
X84109687Y-130197088D01*
X84101869Y-130359860D01*
X84127938Y-130523440D01*
X84185245Y-130682298D01*
X84271144Y-130830906D01*
X84382986Y-130963735D01*
X84518123Y-131075256D01*
X84535883Y-131087011D01*
X84592150Y-131125508D01*
X84634923Y-131158863D01*
X84655372Y-131180160D01*
X84655669Y-131180833D01*
X84651279Y-131203871D01*
X84633876Y-131256157D01*
X84605268Y-131333390D01*
X84567265Y-131431268D01*
X84521674Y-131545491D01*
X84470303Y-131671758D01*
X84414962Y-131805767D01*
X84357458Y-131943218D01*
X84299601Y-132079808D01*
X84243198Y-132211237D01*
X84190058Y-132333205D01*
X84141990Y-132441409D01*
X84100801Y-132531549D01*
X84068301Y-132599323D01*
X84046297Y-132640430D01*
X84037436Y-132651226D01*
X84010360Y-132642819D01*
X83959697Y-132620272D01*
X83894183Y-132587613D01*
X83858159Y-132568520D01*
X83705168Y-132485800D01*
X83522912Y-132609075D01*
X83429875Y-132672228D01*
X83328015Y-132741727D01*
X83232562Y-132807165D01*
X83184750Y-132840117D01*
X83117505Y-132885273D01*
X83060564Y-132921057D01*
X83021354Y-132942938D01*
X83008619Y-132947563D01*
X82990083Y-132935085D01*
X82949059Y-132900252D01*
X82889525Y-132846678D01*
X82815458Y-132777983D01*
X82730835Y-132697781D01*
X82677315Y-132646286D01*
X82583681Y-132554286D01*
X82502759Y-132471999D01*
X82437823Y-132402945D01*
X82392142Y-132350644D01*
X82368989Y-132318616D01*
X82366768Y-132312116D01*
X82377076Y-132287394D01*
X82405561Y-132237405D01*
X82449063Y-132167212D01*
X82504423Y-132081875D01*
X82568480Y-131986456D01*
X82586697Y-131959854D01*
X82653073Y-131863167D01*
X82712622Y-131776117D01*
X82762016Y-131703595D01*
X82797925Y-131650493D01*
X82817019Y-131621703D01*
X82818864Y-131618726D01*
X82816105Y-131595782D01*
X82801462Y-131545336D01*
X82777487Y-131474041D01*
X82746734Y-131388547D01*
X82711756Y-131295507D01*
X82675107Y-131201574D01*
X82639339Y-131113399D01*
X82607006Y-131037634D01*
X82580662Y-130980931D01*
X82562858Y-130949943D01*
X82561593Y-130948457D01*
X82550706Y-130939601D01*
X82532318Y-130930843D01*
X82502394Y-130921277D01*
X82456897Y-130909996D01*
X82391791Y-130896093D01*
X82303039Y-130878663D01*
X82186607Y-130856798D01*
X82038458Y-130829591D01*
X82006382Y-130823741D01*
X81911314Y-130805374D01*
X81828435Y-130787405D01*
X81765070Y-130771569D01*
X81728542Y-130759600D01*
X81723644Y-130756810D01*
X81715573Y-130732072D01*
X81709013Y-130676790D01*
X81703967Y-130597389D01*
X81700441Y-130500296D01*
X81698439Y-130391938D01*
X81697964Y-130278740D01*
X81699023Y-130167128D01*
X81701618Y-130063529D01*
X81705754Y-129974368D01*
X81711437Y-129906072D01*
X81718669Y-129865066D01*
X81723029Y-129856674D01*
X81747302Y-129848208D01*
X81802574Y-129834435D01*
X81883338Y-129816550D01*
X81984088Y-129795748D01*
X82099317Y-129773223D01*
X82162098Y-129761418D01*
X82281213Y-129739151D01*
X82387435Y-129718979D01*
X82475573Y-129701915D01*
X82540434Y-129688969D01*
X82576826Y-129681155D01*
X82582816Y-129679422D01*
X82592939Y-129659890D01*
X82614338Y-129612843D01*
X82644161Y-129545003D01*
X82679555Y-129463091D01*
X82717668Y-129373828D01*
X82755647Y-129283935D01*
X82790640Y-129200135D01*
X82819794Y-129129147D01*
X82840257Y-129077694D01*
X82849177Y-129052497D01*
X82849343Y-129051396D01*
X82839231Y-129031519D01*
X82810883Y-128985777D01*
X82767277Y-128918717D01*
X82711394Y-128834884D01*
X82646213Y-128738826D01*
X82608321Y-128683650D01*
X82539275Y-128582481D01*
X82477950Y-128490630D01*
X82427337Y-128412744D01*
X82390429Y-128353469D01*
X82370218Y-128317451D01*
X82367299Y-128309377D01*
X82379847Y-128290584D01*
X82414537Y-128250457D01*
X82466937Y-128193493D01*
X82532616Y-128124185D01*
X82607144Y-128047031D01*
X82686087Y-127966525D01*
X82765017Y-127887163D01*
X82839500Y-127813440D01*
X82905106Y-127749852D01*
X82957404Y-127700894D01*
X82991961Y-127671061D01*
X83003522Y-127663942D01*
X83022346Y-127673953D01*
X83067369Y-127702078D01*
X83134213Y-127745454D01*
X83218501Y-127801218D01*
X83315856Y-127866506D01*
X83389293Y-127916246D01*
X83760333Y-128168551D01*
X84378905Y-127913555D01*
X84462725Y-127468931D01*
X84546546Y-127024307D01*
X85471994Y-127024307D01*
X85555814Y-127468931D01*
X85555814Y-127468931D01*
G37*
X85555814Y-127468931D02*
X85639635Y-127913555D01*
X85948920Y-128041053D01*
X86258206Y-128168551D01*
X86629246Y-127916246D01*
X86733157Y-127845996D01*
X86827087Y-127783272D01*
X86906652Y-127730938D01*
X86967470Y-127691857D01*
X87005157Y-127668893D01*
X87015421Y-127663942D01*
X87033910Y-127676676D01*
X87073420Y-127711882D01*
X87129522Y-127765062D01*
X87197787Y-127831718D01*
X87273786Y-127907354D01*
X87353092Y-127987472D01*
X87431275Y-128067574D01*
X87503907Y-128143164D01*
X87566559Y-128209745D01*
X87614803Y-128262818D01*
X87644210Y-128297887D01*
X87651241Y-128309623D01*
X87641123Y-128331260D01*
X87612759Y-128378662D01*
X87569129Y-128447193D01*
X87513218Y-128532215D01*
X87448006Y-128629093D01*
X87410219Y-128684350D01*
X87341343Y-128785248D01*
X87280140Y-128876299D01*
X87229578Y-128952970D01*
X87192628Y-129010728D01*
X87172258Y-129045043D01*
X87169197Y-129052254D01*
X87176136Y-129072748D01*
X87195051Y-129120513D01*
X87223087Y-129188832D01*
X87257391Y-129270989D01*
X87295109Y-129360270D01*
X87333387Y-129449958D01*
X87369370Y-129533338D01*
X87400206Y-129603694D01*
X87423039Y-129654310D01*
X87435017Y-129678471D01*
X87435724Y-129679422D01*
X87454531Y-129684036D01*
X87504618Y-129694328D01*
X87580793Y-129709287D01*
X87677865Y-129727901D01*
X87790643Y-129749159D01*
X87856442Y-129761418D01*
X87976950Y-129784362D01*
X88085797Y-129806195D01*
X88177476Y-129825722D01*
X88246481Y-129841748D01*
X88287304Y-129853079D01*
X88295511Y-129856674D01*
X88303548Y-129881006D01*
X88310033Y-129935959D01*
X88314970Y-130015108D01*
X88318364Y-130112026D01*
X88320218Y-130220287D01*
X88320538Y-130333465D01*
X88319327Y-130445135D01*
X88316590Y-130548868D01*
X88312331Y-130638241D01*
X88306555Y-130706826D01*
X88299267Y-130748197D01*
X88294895Y-130756810D01*
X88268764Y-130767133D01*
X88213393Y-130781892D01*
X88136107Y-130799352D01*
X88044230Y-130817780D01*
X88012158Y-130823741D01*
X87857524Y-130852066D01*
X87735375Y-130874876D01*
X87641673Y-130893080D01*
X87572384Y-130907583D01*
X87523471Y-130919292D01*
X87490897Y-130929115D01*
X87470628Y-130937956D01*
X87458626Y-130946724D01*
X87456947Y-130948457D01*
X87440184Y-130976371D01*
X87414614Y-131030695D01*
X87382788Y-131104777D01*
X87347260Y-131191965D01*
X87310583Y-131285608D01*
X87275311Y-131379052D01*
X87243996Y-131465647D01*
X87219193Y-131538740D01*
X87203454Y-131591678D01*
X87199332Y-131617811D01*
X87199676Y-131618726D01*
X87213641Y-131640086D01*
X87245322Y-131687084D01*
X87291391Y-131754827D01*
X87348518Y-131838423D01*
X87413373Y-131932982D01*
X87431843Y-131959854D01*
X87497699Y-132057275D01*
X87555650Y-132146163D01*
X87602538Y-132221412D01*
X87635207Y-132277920D01*
X87650500Y-132310581D01*
X87651241Y-132314593D01*
X87638392Y-132335684D01*
X87602888Y-132377464D01*
X87549293Y-132435445D01*
X87482171Y-132505135D01*
X87406087Y-132582045D01*
X87325604Y-132661683D01*
X87245287Y-132739561D01*
X87169699Y-132811186D01*
X87103405Y-132872070D01*
X87050969Y-132917721D01*
X87016955Y-132943650D01*
X87007545Y-132947883D01*
X86985643Y-132937912D01*
X86940800Y-132911020D01*
X86880321Y-132871736D01*
X86833789Y-132840117D01*
X86749475Y-132782098D01*
X86649626Y-132713784D01*
X86549473Y-132645579D01*
X86495627Y-132609075D01*
X86313371Y-132485800D01*
X86160381Y-132568520D01*
X86090682Y-132604759D01*
X86031414Y-132632926D01*
X85991311Y-132648991D01*
X85981103Y-132651226D01*
X85968829Y-132634722D01*
X85944613Y-132588082D01*
X85910263Y-132515609D01*
X85867588Y-132421606D01*
X85818394Y-132310374D01*
X85764490Y-132186215D01*
X85707684Y-132053432D01*
X85649782Y-131916327D01*
X85592593Y-131779202D01*
X85537924Y-131646358D01*
X85487584Y-131522098D01*
X85443380Y-131410725D01*
X85407119Y-131316539D01*
X85380609Y-131243844D01*
X85365658Y-131196941D01*
X85363254Y-131180833D01*
X85382311Y-131160286D01*
X85424036Y-131126933D01*
X85479706Y-131087702D01*
X85484378Y-131084599D01*
X85628264Y-130969423D01*
X85744283Y-130835053D01*
X85831430Y-130685784D01*
X85888699Y-130525913D01*
X85915086Y-130359737D01*
X85909585Y-130191552D01*
X85871190Y-130025655D01*
X85798895Y-129866342D01*
X85777626Y-129831487D01*
X85666996Y-129690737D01*
X85536302Y-129577714D01*
X85390064Y-129493003D01*
X85232808Y-129437194D01*
X85069057Y-129410874D01*
X84903333Y-129414630D01*
X84740162Y-129449050D01*
X84584065Y-129514723D01*
X84439567Y-129612235D01*
X84394869Y-129651813D01*
X84281112Y-129775703D01*
X84198218Y-129906124D01*
X84141356Y-130052315D01*
X84109687Y-130197088D01*
X84101869Y-130359860D01*
X84127938Y-130523440D01*
X84185245Y-130682298D01*
X84271144Y-130830906D01*
X84382986Y-130963735D01*
X84518123Y-131075256D01*
X84535883Y-131087011D01*
X84592150Y-131125508D01*
X84634923Y-131158863D01*
X84655372Y-131180160D01*
X84655669Y-131180833D01*
X84651279Y-131203871D01*
X84633876Y-131256157D01*
X84605268Y-131333390D01*
X84567265Y-131431268D01*
X84521674Y-131545491D01*
X84470303Y-131671758D01*
X84414962Y-131805767D01*
X84357458Y-131943218D01*
X84299601Y-132079808D01*
X84243198Y-132211237D01*
X84190058Y-132333205D01*
X84141990Y-132441409D01*
X84100801Y-132531549D01*
X84068301Y-132599323D01*
X84046297Y-132640430D01*
X84037436Y-132651226D01*
X84010360Y-132642819D01*
X83959697Y-132620272D01*
X83894183Y-132587613D01*
X83858159Y-132568520D01*
X83705168Y-132485800D01*
X83522912Y-132609075D01*
X83429875Y-132672228D01*
X83328015Y-132741727D01*
X83232562Y-132807165D01*
X83184750Y-132840117D01*
X83117505Y-132885273D01*
X83060564Y-132921057D01*
X83021354Y-132942938D01*
X83008619Y-132947563D01*
X82990083Y-132935085D01*
X82949059Y-132900252D01*
X82889525Y-132846678D01*
X82815458Y-132777983D01*
X82730835Y-132697781D01*
X82677315Y-132646286D01*
X82583681Y-132554286D01*
X82502759Y-132471999D01*
X82437823Y-132402945D01*
X82392142Y-132350644D01*
X82368989Y-132318616D01*
X82366768Y-132312116D01*
X82377076Y-132287394D01*
X82405561Y-132237405D01*
X82449063Y-132167212D01*
X82504423Y-132081875D01*
X82568480Y-131986456D01*
X82586697Y-131959854D01*
X82653073Y-131863167D01*
X82712622Y-131776117D01*
X82762016Y-131703595D01*
X82797925Y-131650493D01*
X82817019Y-131621703D01*
X82818864Y-131618726D01*
X82816105Y-131595782D01*
X82801462Y-131545336D01*
X82777487Y-131474041D01*
X82746734Y-131388547D01*
X82711756Y-131295507D01*
X82675107Y-131201574D01*
X82639339Y-131113399D01*
X82607006Y-131037634D01*
X82580662Y-130980931D01*
X82562858Y-130949943D01*
X82561593Y-130948457D01*
X82550706Y-130939601D01*
X82532318Y-130930843D01*
X82502394Y-130921277D01*
X82456897Y-130909996D01*
X82391791Y-130896093D01*
X82303039Y-130878663D01*
X82186607Y-130856798D01*
X82038458Y-130829591D01*
X82006382Y-130823741D01*
X81911314Y-130805374D01*
X81828435Y-130787405D01*
X81765070Y-130771569D01*
X81728542Y-130759600D01*
X81723644Y-130756810D01*
X81715573Y-130732072D01*
X81709013Y-130676790D01*
X81703967Y-130597389D01*
X81700441Y-130500296D01*
X81698439Y-130391938D01*
X81697964Y-130278740D01*
X81699023Y-130167128D01*
X81701618Y-130063529D01*
X81705754Y-129974368D01*
X81711437Y-129906072D01*
X81718669Y-129865066D01*
X81723029Y-129856674D01*
X81747302Y-129848208D01*
X81802574Y-129834435D01*
X81883338Y-129816550D01*
X81984088Y-129795748D01*
X82099317Y-129773223D01*
X82162098Y-129761418D01*
X82281213Y-129739151D01*
X82387435Y-129718979D01*
X82475573Y-129701915D01*
X82540434Y-129688969D01*
X82576826Y-129681155D01*
X82582816Y-129679422D01*
X82592939Y-129659890D01*
X82614338Y-129612843D01*
X82644161Y-129545003D01*
X82679555Y-129463091D01*
X82717668Y-129373828D01*
X82755647Y-129283935D01*
X82790640Y-129200135D01*
X82819794Y-129129147D01*
X82840257Y-129077694D01*
X82849177Y-129052497D01*
X82849343Y-129051396D01*
X82839231Y-129031519D01*
X82810883Y-128985777D01*
X82767277Y-128918717D01*
X82711394Y-128834884D01*
X82646213Y-128738826D01*
X82608321Y-128683650D01*
X82539275Y-128582481D01*
X82477950Y-128490630D01*
X82427337Y-128412744D01*
X82390429Y-128353469D01*
X82370218Y-128317451D01*
X82367299Y-128309377D01*
X82379847Y-128290584D01*
X82414537Y-128250457D01*
X82466937Y-128193493D01*
X82532616Y-128124185D01*
X82607144Y-128047031D01*
X82686087Y-127966525D01*
X82765017Y-127887163D01*
X82839500Y-127813440D01*
X82905106Y-127749852D01*
X82957404Y-127700894D01*
X82991961Y-127671061D01*
X83003522Y-127663942D01*
X83022346Y-127673953D01*
X83067369Y-127702078D01*
X83134213Y-127745454D01*
X83218501Y-127801218D01*
X83315856Y-127866506D01*
X83389293Y-127916246D01*
X83760333Y-128168551D01*
X84378905Y-127913555D01*
X84462725Y-127468931D01*
X84546546Y-127024307D01*
X85471994Y-127024307D01*
X85555814Y-127468931D01*
D13*
X98520000Y-110000000D02*
X98520000Y-112000000D01*
X101480000Y-112000000D02*
X101480000Y-110000000D01*
X127625651Y-109464186D02*
X125056289Y-110152645D01*
X128955981Y-114429045D02*
X127625651Y-109464186D01*
X126386618Y-115117504D02*
X125056289Y-110152645D01*
X128955981Y-114429045D02*
X126386618Y-115117504D01*
X129284681Y-115655771D02*
X129628911Y-116940452D01*
X129628911Y-116940452D02*
X128344229Y-117284681D01*
X74943711Y-110152645D02*
X72374349Y-109464186D01*
X73613382Y-115117504D02*
X74943711Y-110152645D01*
X71044019Y-114429045D02*
X72374349Y-109464186D01*
X73613382Y-115117504D02*
X71044019Y-114429045D01*
X73284681Y-116344229D02*
X72940452Y-117628911D01*
X72940452Y-117628911D02*
X71655771Y-117284681D01*
D12*
G36*
X99812526Y-104922699D02*
X100086772Y-105060071D01*
X100319949Y-105289071D01*
X100471630Y-105573218D01*
X100507683Y-105788833D01*
X100460186Y-105948909D01*
X100342467Y-105987107D01*
X100192800Y-105911559D01*
X100049460Y-105730396D01*
X100027057Y-105686722D01*
X99909763Y-105485629D01*
X99798329Y-105362714D01*
X99780214Y-105352933D01*
X99657753Y-105377577D01*
X99457952Y-105484974D01*
X99307287Y-105589854D01*
X99021407Y-105774747D01*
X98832363Y-105820825D01*
X98740031Y-105728098D01*
X98730000Y-105639775D01*
X98795514Y-105493658D01*
X98960817Y-105305023D01*
X99179048Y-105116014D01*
X99403344Y-104968774D01*
X99537638Y-104913439D01*
X99812526Y-104922699D01*
X99812526Y-104922699D01*
G37*
X99812526Y-104922699D02*
X100086772Y-105060071D01*
X100319949Y-105289071D01*
X100471630Y-105573218D01*
X100507683Y-105788833D01*
X100460186Y-105948909D01*
X100342467Y-105987107D01*
X100192800Y-105911559D01*
X100049460Y-105730396D01*
X100027057Y-105686722D01*
X99909763Y-105485629D01*
X99798329Y-105362714D01*
X99780214Y-105352933D01*
X99657753Y-105377577D01*
X99457952Y-105484974D01*
X99307287Y-105589854D01*
X99021407Y-105774747D01*
X98832363Y-105820825D01*
X98740031Y-105728098D01*
X98730000Y-105639775D01*
X98795514Y-105493658D01*
X98960817Y-105305023D01*
X99179048Y-105116014D01*
X99403344Y-104968774D01*
X99537638Y-104913439D01*
X99812526Y-104922699D01*
G36*
X100719258Y-103723794D02*
X100803012Y-103791837D01*
X100824414Y-103936831D01*
X100801454Y-104148686D01*
X100786274Y-104462781D01*
X100860715Y-104732083D01*
X101045411Y-105009649D01*
X101206693Y-105190586D01*
X101370406Y-105406651D01*
X101416168Y-105572370D01*
X101410857Y-105592753D01*
X101311937Y-105709663D01*
X101152527Y-105684829D01*
X100923514Y-105515544D01*
X100821294Y-105417738D01*
X100509792Y-105007163D01*
X100363548Y-104562313D01*
X100364494Y-104181210D01*
X100435630Y-103874038D01*
X100549349Y-103723631D01*
X100712429Y-103721249D01*
X100719258Y-103723794D01*
X100719258Y-103723794D01*
G37*
X100719258Y-103723794D02*
X100803012Y-103791837D01*
X100824414Y-103936831D01*
X100801454Y-104148686D01*
X100786274Y-104462781D01*
X100860715Y-104732083D01*
X101045411Y-105009649D01*
X101206693Y-105190586D01*
X101370406Y-105406651D01*
X101416168Y-105572370D01*
X101410857Y-105592753D01*
X101311937Y-105709663D01*
X101152527Y-105684829D01*
X100923514Y-105515544D01*
X100821294Y-105417738D01*
X100509792Y-105007163D01*
X100363548Y-104562313D01*
X100364494Y-104181210D01*
X100435630Y-103874038D01*
X100549349Y-103723631D01*
X100712429Y-103721249D01*
X100719258Y-103723794D01*
G36*
X100266307Y-101130231D02*
X100579355Y-101301908D01*
X100820593Y-101582555D01*
X100965588Y-101942771D01*
X100989908Y-102353156D01*
X100984838Y-102395275D01*
X100864696Y-102788071D01*
X100612245Y-103243168D01*
X100243416Y-103741029D01*
X99774143Y-104262114D01*
X99220358Y-104786882D01*
X98655739Y-105251660D01*
X98317195Y-105493771D01*
X98083557Y-105614769D01*
X97944248Y-105617383D01*
X97888691Y-105504344D01*
X97886738Y-105450167D01*
X97950895Y-105289388D01*
X98146616Y-105082973D01*
X98402282Y-104878667D01*
X98877336Y-104494029D01*
X99330644Y-104069332D01*
X99742810Y-103628328D01*
X100094437Y-103194768D01*
X100366129Y-102792405D01*
X100538491Y-102444991D01*
X100592667Y-102196353D01*
X100516436Y-101928493D01*
X100321486Y-101709011D01*
X100058426Y-101587153D01*
X99955830Y-101576667D01*
X99722100Y-101630510D01*
X99505286Y-101804072D01*
X99287122Y-102115402D01*
X99149038Y-102373697D01*
X98986890Y-102624298D01*
X98736558Y-102922824D01*
X98426772Y-103243647D01*
X98086261Y-103561141D01*
X97743757Y-103849680D01*
X97427990Y-104083636D01*
X97167688Y-104237384D01*
X97005144Y-104286000D01*
X96879113Y-104233117D01*
X96862631Y-104099908D01*
X96944270Y-103924533D01*
X97112603Y-103745152D01*
X97182620Y-103693333D01*
X97794831Y-103242722D01*
X98270666Y-102801473D01*
X98638723Y-102340789D01*
X98817361Y-102047380D01*
X99070122Y-101632121D01*
X99307837Y-101353853D01*
X99560546Y-101186343D01*
X99858291Y-101103363D01*
X99905882Y-101096925D01*
X100266307Y-101130231D01*
X100266307Y-101130231D01*
G37*
X100266307Y-101130231D02*
X100579355Y-101301908D01*
X100820593Y-101582555D01*
X100965588Y-101942771D01*
X100989908Y-102353156D01*
X100984838Y-102395275D01*
X100864696Y-102788071D01*
X100612245Y-103243168D01*
X100243416Y-103741029D01*
X99774143Y-104262114D01*
X99220358Y-104786882D01*
X98655739Y-105251660D01*
X98317195Y-105493771D01*
X98083557Y-105614769D01*
X97944248Y-105617383D01*
X97888691Y-105504344D01*
X97886738Y-105450167D01*
X97950895Y-105289388D01*
X98146616Y-105082973D01*
X98402282Y-104878667D01*
X98877336Y-104494029D01*
X99330644Y-104069332D01*
X99742810Y-103628328D01*
X100094437Y-103194768D01*
X100366129Y-102792405D01*
X100538491Y-102444991D01*
X100592667Y-102196353D01*
X100516436Y-101928493D01*
X100321486Y-101709011D01*
X100058426Y-101587153D01*
X99955830Y-101576667D01*
X99722100Y-101630510D01*
X99505286Y-101804072D01*
X99287122Y-102115402D01*
X99149038Y-102373697D01*
X98986890Y-102624298D01*
X98736558Y-102922824D01*
X98426772Y-103243647D01*
X98086261Y-103561141D01*
X97743757Y-103849680D01*
X97427990Y-104083636D01*
X97167688Y-104237384D01*
X97005144Y-104286000D01*
X96879113Y-104233117D01*
X96862631Y-104099908D01*
X96944270Y-103924533D01*
X97112603Y-103745152D01*
X97182620Y-103693333D01*
X97794831Y-103242722D01*
X98270666Y-102801473D01*
X98638723Y-102340789D01*
X98817361Y-102047380D01*
X99070122Y-101632121D01*
X99307837Y-101353853D01*
X99560546Y-101186343D01*
X99858291Y-101103363D01*
X99905882Y-101096925D01*
X100266307Y-101130231D01*
G36*
X100287683Y-100342338D02*
X100774827Y-100510067D01*
X101210608Y-100821369D01*
X101390340Y-101016140D01*
X101486399Y-101145497D01*
X101557984Y-101280432D01*
X101607196Y-101445013D01*
X101636139Y-101663311D01*
X101646916Y-101959395D01*
X101641630Y-102357333D01*
X101622384Y-102881196D01*
X101598667Y-103400434D01*
X101598692Y-103856277D01*
X101660696Y-104188903D01*
X101801937Y-104438418D01*
X102039672Y-104644927D01*
X102169360Y-104726664D01*
X102383480Y-104898098D01*
X102448742Y-105047253D01*
X102385602Y-105149218D01*
X102214513Y-105179086D01*
X101955932Y-105111946D01*
X101881139Y-105077645D01*
X101526972Y-104810606D01*
X101278720Y-104423210D01*
X101143670Y-103932743D01*
X101129104Y-103356489D01*
X101133670Y-103303958D01*
X101187540Y-102741065D01*
X101226185Y-102321474D01*
X101249043Y-102019792D01*
X101255553Y-101810626D01*
X101245154Y-101668580D01*
X101217286Y-101568260D01*
X101171388Y-101484274D01*
X101106897Y-101391225D01*
X101090907Y-101368109D01*
X100760110Y-101007615D01*
X100381256Y-100797784D01*
X99976359Y-100735123D01*
X99567432Y-100816140D01*
X99176489Y-101037342D01*
X98825544Y-101395237D01*
X98595262Y-101764041D01*
X98415207Y-102071064D01*
X98202602Y-102372383D01*
X98124358Y-102467509D01*
X97893186Y-102698731D01*
X97620515Y-102925096D01*
X97349330Y-103115666D01*
X97122617Y-103239507D01*
X97009303Y-103270000D01*
X96867440Y-103226706D01*
X96869930Y-103097953D01*
X97015945Y-102885431D01*
X97304654Y-102590831D01*
X97373968Y-102527171D01*
X97673561Y-102229134D01*
X97956223Y-101902639D01*
X98171051Y-101607589D01*
X98208631Y-101544983D01*
X98516345Y-101072575D01*
X98840482Y-100734025D01*
X99215179Y-100494786D01*
X99273630Y-100467244D01*
X99777758Y-100325593D01*
X100287683Y-100342338D01*
X100287683Y-100342338D01*
G37*
X100287683Y-100342338D02*
X100774827Y-100510067D01*
X101210608Y-100821369D01*
X101390340Y-101016140D01*
X101486399Y-101145497D01*
X101557984Y-101280432D01*
X101607196Y-101445013D01*
X101636139Y-101663311D01*
X101646916Y-101959395D01*
X101641630Y-102357333D01*
X101622384Y-102881196D01*
X101598667Y-103400434D01*
X101598692Y-103856277D01*
X101660696Y-104188903D01*
X101801937Y-104438418D01*
X102039672Y-104644927D01*
X102169360Y-104726664D01*
X102383480Y-104898098D01*
X102448742Y-105047253D01*
X102385602Y-105149218D01*
X102214513Y-105179086D01*
X101955932Y-105111946D01*
X101881139Y-105077645D01*
X101526972Y-104810606D01*
X101278720Y-104423210D01*
X101143670Y-103932743D01*
X101129104Y-103356489D01*
X101133670Y-103303958D01*
X101187540Y-102741065D01*
X101226185Y-102321474D01*
X101249043Y-102019792D01*
X101255553Y-101810626D01*
X101245154Y-101668580D01*
X101217286Y-101568260D01*
X101171388Y-101484274D01*
X101106897Y-101391225D01*
X101090907Y-101368109D01*
X100760110Y-101007615D01*
X100381256Y-100797784D01*
X99976359Y-100735123D01*
X99567432Y-100816140D01*
X99176489Y-101037342D01*
X98825544Y-101395237D01*
X98595262Y-101764041D01*
X98415207Y-102071064D01*
X98202602Y-102372383D01*
X98124358Y-102467509D01*
X97893186Y-102698731D01*
X97620515Y-102925096D01*
X97349330Y-103115666D01*
X97122617Y-103239507D01*
X97009303Y-103270000D01*
X96867440Y-103226706D01*
X96869930Y-103097953D01*
X97015945Y-102885431D01*
X97304654Y-102590831D01*
X97373968Y-102527171D01*
X97673561Y-102229134D01*
X97956223Y-101902639D01*
X98171051Y-101607589D01*
X98208631Y-101544983D01*
X98516345Y-101072575D01*
X98840482Y-100734025D01*
X99215179Y-100494786D01*
X99273630Y-100467244D01*
X99777758Y-100325593D01*
X100287683Y-100342338D01*
G36*
X100156581Y-102080188D02*
X100169333Y-102192012D01*
X100104803Y-102423578D01*
X99911798Y-102762976D01*
X99591198Y-103208761D01*
X99413751Y-103433514D01*
X99233094Y-103631943D01*
X98975577Y-103882189D01*
X98669538Y-104160338D01*
X98343313Y-104442473D01*
X98025241Y-104704678D01*
X97743660Y-104923038D01*
X97526906Y-105073635D01*
X97403318Y-105132554D01*
X97400464Y-105132667D01*
X97275950Y-105063782D01*
X97230070Y-104988603D01*
X97241656Y-104860212D01*
X97376490Y-104692479D01*
X97547151Y-104544103D01*
X98039538Y-104123569D01*
X98521182Y-103670053D01*
X98958216Y-103218180D01*
X99316771Y-102802575D01*
X99518000Y-102529167D01*
X99744141Y-102225017D01*
X99934773Y-102044237D01*
X100076664Y-101993678D01*
X100156581Y-102080188D01*
X100156581Y-102080188D01*
G37*
X100156581Y-102080188D02*
X100169333Y-102192012D01*
X100104803Y-102423578D01*
X99911798Y-102762976D01*
X99591198Y-103208761D01*
X99413751Y-103433514D01*
X99233094Y-103631943D01*
X98975577Y-103882189D01*
X98669538Y-104160338D01*
X98343313Y-104442473D01*
X98025241Y-104704678D01*
X97743660Y-104923038D01*
X97526906Y-105073635D01*
X97403318Y-105132554D01*
X97400464Y-105132667D01*
X97275950Y-105063782D01*
X97230070Y-104988603D01*
X97241656Y-104860212D01*
X97376490Y-104692479D01*
X97547151Y-104544103D01*
X98039538Y-104123569D01*
X98521182Y-103670053D01*
X98958216Y-103218180D01*
X99316771Y-102802575D01*
X99518000Y-102529167D01*
X99744141Y-102225017D01*
X99934773Y-102044237D01*
X100076664Y-101993678D01*
X100156581Y-102080188D01*
G36*
X100641807Y-99625189D02*
X101227845Y-99857283D01*
X101734931Y-100226736D01*
X102139884Y-100719338D01*
X102258954Y-100929501D01*
X102363908Y-101151828D01*
X102424630Y-101343284D01*
X102448731Y-101557882D01*
X102443818Y-101849630D01*
X102427415Y-102125278D01*
X102398342Y-102508299D01*
X102364933Y-102862336D01*
X102333050Y-103127464D01*
X102323656Y-103186381D01*
X102309201Y-103378524D01*
X102355453Y-103562115D01*
X102481253Y-103793020D01*
X102578210Y-103941206D01*
X102770039Y-104269125D01*
X102834113Y-104491883D01*
X102770138Y-104607482D01*
X102678428Y-104624667D01*
X102552992Y-104565203D01*
X102378461Y-104415343D01*
X102303733Y-104335595D01*
X102095151Y-104063366D01*
X101964118Y-103789117D01*
X101902331Y-103471875D01*
X101901487Y-103070666D01*
X101948536Y-102582846D01*
X102000102Y-102090155D01*
X102011292Y-101720687D01*
X101975771Y-101431790D01*
X101887205Y-101180811D01*
X101739261Y-100925098D01*
X101691949Y-100854989D01*
X101314312Y-100445461D01*
X100848913Y-100159532D01*
X100328794Y-100003918D01*
X99786998Y-99985336D01*
X99256566Y-100110502D01*
X98907093Y-100288942D01*
X98676926Y-100480427D01*
X98409479Y-100767182D01*
X98152252Y-101097897D01*
X98133779Y-101124367D01*
X97778705Y-101596920D01*
X97463418Y-101932903D01*
X97195965Y-102124695D01*
X97030170Y-102169333D01*
X96897969Y-102113393D01*
X96871610Y-101978800D01*
X96946649Y-101815396D01*
X97071974Y-101700484D01*
X97212594Y-101570703D01*
X97410341Y-101340776D01*
X97630104Y-101052562D01*
X97708848Y-100941152D01*
X98135489Y-100390085D01*
X98558637Y-99990411D01*
X99003659Y-99726667D01*
X99495924Y-99583393D01*
X100000000Y-99544667D01*
X100641807Y-99625189D01*
X100641807Y-99625189D01*
G37*
X100641807Y-99625189D02*
X101227845Y-99857283D01*
X101734931Y-100226736D01*
X102139884Y-100719338D01*
X102258954Y-100929501D01*
X102363908Y-101151828D01*
X102424630Y-101343284D01*
X102448731Y-101557882D01*
X102443818Y-101849630D01*
X102427415Y-102125278D01*
X102398342Y-102508299D01*
X102364933Y-102862336D01*
X102333050Y-103127464D01*
X102323656Y-103186381D01*
X102309201Y-103378524D01*
X102355453Y-103562115D01*
X102481253Y-103793020D01*
X102578210Y-103941206D01*
X102770039Y-104269125D01*
X102834113Y-104491883D01*
X102770138Y-104607482D01*
X102678428Y-104624667D01*
X102552992Y-104565203D01*
X102378461Y-104415343D01*
X102303733Y-104335595D01*
X102095151Y-104063366D01*
X101964118Y-103789117D01*
X101902331Y-103471875D01*
X101901487Y-103070666D01*
X101948536Y-102582846D01*
X102000102Y-102090155D01*
X102011292Y-101720687D01*
X101975771Y-101431790D01*
X101887205Y-101180811D01*
X101739261Y-100925098D01*
X101691949Y-100854989D01*
X101314312Y-100445461D01*
X100848913Y-100159532D01*
X100328794Y-100003918D01*
X99786998Y-99985336D01*
X99256566Y-100110502D01*
X98907093Y-100288942D01*
X98676926Y-100480427D01*
X98409479Y-100767182D01*
X98152252Y-101097897D01*
X98133779Y-101124367D01*
X97778705Y-101596920D01*
X97463418Y-101932903D01*
X97195965Y-102124695D01*
X97030170Y-102169333D01*
X96897969Y-102113393D01*
X96871610Y-101978800D01*
X96946649Y-101815396D01*
X97071974Y-101700484D01*
X97212594Y-101570703D01*
X97410341Y-101340776D01*
X97630104Y-101052562D01*
X97708848Y-100941152D01*
X98135489Y-100390085D01*
X98558637Y-99990411D01*
X99003659Y-99726667D01*
X99495924Y-99583393D01*
X100000000Y-99544667D01*
X100641807Y-99625189D01*
G36*
X102861938Y-100952960D02*
X102982694Y-101132419D01*
X103016064Y-101207492D01*
X103082585Y-101464077D01*
X103126614Y-101829091D01*
X103147803Y-102252968D01*
X103145807Y-102686140D01*
X103120280Y-103079041D01*
X103070875Y-103382101D01*
X103032045Y-103495346D01*
X102918178Y-103666489D01*
X102797982Y-103763643D01*
X102712871Y-103758776D01*
X102697857Y-103721555D01*
X102692234Y-103615014D01*
X102684873Y-103372594D01*
X102676637Y-103027731D01*
X102668390Y-102613858D01*
X102666505Y-102508000D01*
X102656771Y-102066930D01*
X102644248Y-101671636D01*
X102630431Y-101360950D01*
X102616816Y-101173704D01*
X102614481Y-101155975D01*
X102629665Y-100980006D01*
X102732098Y-100916626D01*
X102861938Y-100952960D01*
X102861938Y-100952960D01*
G37*
X102861938Y-100952960D02*
X102982694Y-101132419D01*
X103016064Y-101207492D01*
X103082585Y-101464077D01*
X103126614Y-101829091D01*
X103147803Y-102252968D01*
X103145807Y-102686140D01*
X103120280Y-103079041D01*
X103070875Y-103382101D01*
X103032045Y-103495346D01*
X102918178Y-103666489D01*
X102797982Y-103763643D01*
X102712871Y-103758776D01*
X102697857Y-103721555D01*
X102692234Y-103615014D01*
X102684873Y-103372594D01*
X102676637Y-103027731D01*
X102668390Y-102613858D01*
X102666505Y-102508000D01*
X102656771Y-102066930D01*
X102644248Y-101671636D01*
X102630431Y-101360950D01*
X102616816Y-101173704D01*
X102614481Y-101155975D01*
X102629665Y-100980006D01*
X102732098Y-100916626D01*
X102861938Y-100952960D01*
G36*
X100388609Y-98829449D02*
X100698918Y-98847253D01*
X100937188Y-98886562D01*
X101152014Y-98955149D01*
X101372615Y-99051676D01*
X101646484Y-99208637D01*
X101952671Y-99428631D01*
X102259400Y-99682802D01*
X102534896Y-99942294D01*
X102747384Y-100178255D01*
X102865088Y-100361828D01*
X102878667Y-100419311D01*
X102833882Y-100583586D01*
X102703985Y-100607615D01*
X102495662Y-100493442D01*
X102215597Y-100243115D01*
X102178545Y-100205122D01*
X101837444Y-99898407D01*
X101452723Y-99623896D01*
X101227667Y-99496942D01*
X100953702Y-99372974D01*
X100714782Y-99298477D01*
X100449273Y-99261447D01*
X100095540Y-99249879D01*
X99957667Y-99249587D01*
X99362061Y-99288869D01*
X98861429Y-99416790D01*
X98422706Y-99651697D01*
X98012826Y-100011934D01*
X97598724Y-100515847D01*
X97547033Y-100587045D01*
X97346735Y-100820771D01*
X97163955Y-100956479D01*
X97024806Y-100982928D01*
X96955399Y-100888874D01*
X96952000Y-100843246D01*
X97007727Y-100654616D01*
X97155722Y-100388820D01*
X97367202Y-100087100D01*
X97613389Y-99790702D01*
X97853521Y-99551333D01*
X98232053Y-99245704D01*
X98582739Y-99037043D01*
X98954126Y-98908601D01*
X99394758Y-98843631D01*
X99953182Y-98825382D01*
X99957667Y-98825380D01*
X100388609Y-98829449D01*
X100388609Y-98829449D01*
G37*
X100388609Y-98829449D02*
X100698918Y-98847253D01*
X100937188Y-98886562D01*
X101152014Y-98955149D01*
X101372615Y-99051676D01*
X101646484Y-99208637D01*
X101952671Y-99428631D01*
X102259400Y-99682802D01*
X102534896Y-99942294D01*
X102747384Y-100178255D01*
X102865088Y-100361828D01*
X102878667Y-100419311D01*
X102833882Y-100583586D01*
X102703985Y-100607615D01*
X102495662Y-100493442D01*
X102215597Y-100243115D01*
X102178545Y-100205122D01*
X101837444Y-99898407D01*
X101452723Y-99623896D01*
X101227667Y-99496942D01*
X100953702Y-99372974D01*
X100714782Y-99298477D01*
X100449273Y-99261447D01*
X100095540Y-99249879D01*
X99957667Y-99249587D01*
X99362061Y-99288869D01*
X98861429Y-99416790D01*
X98422706Y-99651697D01*
X98012826Y-100011934D01*
X97598724Y-100515847D01*
X97547033Y-100587045D01*
X97346735Y-100820771D01*
X97163955Y-100956479D01*
X97024806Y-100982928D01*
X96955399Y-100888874D01*
X96952000Y-100843246D01*
X97007727Y-100654616D01*
X97155722Y-100388820D01*
X97367202Y-100087100D01*
X97613389Y-99790702D01*
X97853521Y-99551333D01*
X98232053Y-99245704D01*
X98582739Y-99037043D01*
X98954126Y-98908601D01*
X99394758Y-98843631D01*
X99953182Y-98825382D01*
X99957667Y-98825380D01*
X100388609Y-98829449D01*
G36*
X100724974Y-98059202D02*
X100998444Y-98107426D01*
X101337109Y-98221951D01*
X101710985Y-98385192D01*
X102068561Y-98570821D01*
X102358326Y-98752507D01*
X102508447Y-98879245D01*
X102606323Y-99010504D01*
X102583560Y-99107989D01*
X102517089Y-99180530D01*
X102419812Y-99256967D01*
X102317275Y-99254786D01*
X102155891Y-99164278D01*
X102057082Y-99097183D01*
X101636942Y-98830585D01*
X101255413Y-98652281D01*
X100857695Y-98546353D01*
X100388993Y-98496879D01*
X99957667Y-98487245D01*
X99534062Y-98490378D01*
X99232953Y-98506056D01*
X99007564Y-98542223D01*
X98811119Y-98606823D01*
X98596844Y-98707803D01*
X98565984Y-98723633D01*
X98245802Y-98911157D01*
X97930908Y-99130966D01*
X97782574Y-99252800D01*
X97596278Y-99416597D01*
X97469705Y-99519393D01*
X97438589Y-99537982D01*
X97353318Y-99505202D01*
X97311833Y-99488593D01*
X97207966Y-99382307D01*
X97238569Y-99217944D01*
X97386729Y-99013307D01*
X97635532Y-98786195D01*
X97968065Y-98554408D01*
X98367416Y-98335746D01*
X98439582Y-98301690D01*
X98730885Y-98182364D01*
X99016994Y-98105884D01*
X99357598Y-98060311D01*
X99770777Y-98035400D01*
X100286924Y-98030533D01*
X100724974Y-98059202D01*
X100724974Y-98059202D01*
G37*
X100724974Y-98059202D02*
X100998444Y-98107426D01*
X101337109Y-98221951D01*
X101710985Y-98385192D01*
X102068561Y-98570821D01*
X102358326Y-98752507D01*
X102508447Y-98879245D01*
X102606323Y-99010504D01*
X102583560Y-99107989D01*
X102517089Y-99180530D01*
X102419812Y-99256967D01*
X102317275Y-99254786D01*
X102155891Y-99164278D01*
X102057082Y-99097183D01*
X101636942Y-98830585D01*
X101255413Y-98652281D01*
X100857695Y-98546353D01*
X100388993Y-98496879D01*
X99957667Y-98487245D01*
X99534062Y-98490378D01*
X99232953Y-98506056D01*
X99007564Y-98542223D01*
X98811119Y-98606823D01*
X98596844Y-98707803D01*
X98565984Y-98723633D01*
X98245802Y-98911157D01*
X97930908Y-99130966D01*
X97782574Y-99252800D01*
X97596278Y-99416597D01*
X97469705Y-99519393D01*
X97438589Y-99537982D01*
X97353318Y-99505202D01*
X97311833Y-99488593D01*
X97207966Y-99382307D01*
X97238569Y-99217944D01*
X97386729Y-99013307D01*
X97635532Y-98786195D01*
X97968065Y-98554408D01*
X98367416Y-98335746D01*
X98439582Y-98301690D01*
X98730885Y-98182364D01*
X99016994Y-98105884D01*
X99357598Y-98060311D01*
X99770777Y-98035400D01*
X100286924Y-98030533D01*
X100724974Y-98059202D01*
D14*
X98107143Y-111166666D02*
X98154762Y-111214285D01*
X98202381Y-111357142D01*
X98202381Y-111452380D01*
X98154762Y-111595238D01*
X98059524Y-111690476D01*
X97964286Y-111738095D01*
X97773810Y-111785714D01*
X97630952Y-111785714D01*
X97440476Y-111738095D01*
X97345238Y-111690476D01*
X97250000Y-111595238D01*
X97202381Y-111452380D01*
X97202381Y-111357142D01*
X97250000Y-111214285D01*
X97297619Y-111166666D01*
X98202381Y-110214285D02*
X98202381Y-110785714D01*
X98202381Y-110500000D02*
X97202381Y-110500000D01*
X97345238Y-110595238D01*
X97440476Y-110690476D01*
X97488095Y-110785714D01*
X128139339Y-117807921D02*
X128324210Y-118497868D01*
X128315186Y-118648182D01*
X128247843Y-118764824D01*
X128122178Y-118847795D01*
X128030186Y-118872444D01*
X129364084Y-118515027D02*
X128812126Y-118662924D01*
X129088104Y-118588976D02*
X128829285Y-117623050D01*
X128774266Y-117785689D01*
X128706923Y-117902331D01*
X128627255Y-117972977D01*
X71216711Y-117635375D02*
X71031840Y-118325322D01*
X70948869Y-118450986D01*
X70832227Y-118518330D01*
X70681913Y-118527352D01*
X70589920Y-118502703D01*
X71606030Y-117838290D02*
X71664351Y-117804618D01*
X71768668Y-117783271D01*
X71998651Y-117844895D01*
X72078320Y-117915541D01*
X72111991Y-117973862D01*
X72133338Y-118078179D01*
X72108689Y-118170172D01*
X72025718Y-118295837D01*
X71325864Y-118699898D01*
X71923818Y-118860120D01*
M02*
